<?xml version="1.0" encoding="UTF-8" standalone="no"?>
<!DOCTYPE svg PUBLIC "-//W3C//DTD SVG 1.1//EN"
 "http://www.w3.org/Graphics/SVG/1.1/DTD/svg11.dtd">
<!-- Generated by graphviz version 2.43.0 (0)
 -->
<!-- Title: Operator Pages: 1 -->
<svg width="231pt" height="84pt"
 viewBox="0.00 0.00 230.50 84.00" xmlns="http://www.w3.org/2000/svg" xmlns:xlink="http://www.w3.org/1999/xlink">
<g id="graph0" class="graph" transform="scale(1 1) rotate(0) translate(4 80)">
<title>Operator</title>
<!-- Node1 -->
<g id="node1" class="node">
<title>Node1</title>
<g id="a_node1"><a xlink:title="Abstract base class for all input/output operators that modify a float array.">
<polygon fill="#bfbfbf" stroke="black" points="77.5,-56.5 77.5,-75.5 131.5,-75.5 131.5,-56.5 77.5,-56.5"/>
<text text-anchor="middle" x="104.5" y="-63.5" font-family="Helvetica,sans-Serif" font-size="10.00">Operator</text>
</a>
</g>
</g>
<!-- Node2 -->
<g id="node2" class="node">
<title>Node2</title>
<g id="a_node2"><a xlink:href="classMinMaxOperator.html" target="_top" xlink:title="rescales values from [min, max] to [0, 1]">
<polygon fill="none" stroke="black" points="0,-0.5 0,-19.5 89,-19.5 89,-0.5 0,-0.5"/>
<text text-anchor="middle" x="44.5" y="-7.5" font-family="Helvetica,sans-Serif" font-size="10.00">MinMaxOperator</text>
</a>
</g>
</g>
<!-- Node1&#45;&gt;Node2 -->
<g id="edge1" class="edge">
<title>Node1&#45;&gt;Node2</title>
<path fill="none" stroke="midnightblue" d="M87.32,-49.54C76.62,-39.91 63.24,-27.87 54.32,-19.83"/>
<polygon fill="midnightblue" stroke="midnightblue" points="85.09,-52.24 94.86,-56.32 89.77,-47.03 85.09,-52.24"/>
</g>
<!-- Node3 -->
<g id="node3" class="node">
<title>Node3</title>
<g id="a_node3"><a xlink:href="classRgbNormalizeOperator.html" target="_top" xlink:title=" ">
<polygon fill="none" stroke="black" points="106.5,-0.5 106.5,-19.5 222.5,-19.5 222.5,-0.5 106.5,-0.5"/>
<text text-anchor="middle" x="164.5" y="-7.5" font-family="Helvetica,sans-Serif" font-size="10.00">RgbNormalizeOperator</text>
</a>
</g>
</g>
<!-- Node1&#45;&gt;Node3 -->
<g id="edge2" class="edge">
<title>Node1&#45;&gt;Node3</title>
<path fill="none" stroke="midnightblue" d="M121.68,-49.54C132.38,-39.91 145.76,-27.87 154.68,-19.83"/>
<polygon fill="midnightblue" stroke="midnightblue" points="119.23,-47.03 114.14,-56.32 123.91,-52.24 119.23,-47.03"/>
</g>
</g>
</svg>
