<?xml version="1.0" encoding="UTF-8" standalone="no"?>
<!DOCTYPE svg PUBLIC "-//W3C//DTD SVG 1.1//EN"
 "http://www.w3.org/Graphics/SVG/1.1/DTD/svg11.dtd">
<!-- Generated by graphviz version 2.43.0 (0)
 -->
<!-- Title: Operator Pages: 1 -->
<svg width="384pt" height="84pt"
 viewBox="0.00 0.00 384.00 84.00" xmlns="http://www.w3.org/2000/svg" xmlns:xlink="http://www.w3.org/1999/xlink">
<g id="graph0" class="graph" transform="scale(1 1) rotate(0) translate(4 80)">
<title>Operator</title>
<!-- Node1 -->
<g id="node1" class="node">
<title>Node1</title>
<g id="a_node1"><a xlink:title="Abstract base class for all input/output operators that modify a float array.">
<polygon fill="#bfbfbf" stroke="black" points="137.5,-56.5 137.5,-75.5 191.5,-75.5 191.5,-56.5 137.5,-56.5"/>
<text text-anchor="middle" x="164.5" y="-63.5" font-family="Helvetica,sans-Serif" font-size="10.00">Operator</text>
</a>
</g>
</g>
<!-- Node2 -->
<g id="node2" class="node">
<title>Node2</title>
<g id="a_node2"><a xlink:href="classMinMaxOperator.html" target="_top" xlink:title="rescales values from [min, max] to [0, 1]">
<polygon fill="none" stroke="black" points="0,-0.5 0,-19.5 89,-19.5 89,-0.5 0,-0.5"/>
<text text-anchor="middle" x="44.5" y="-7.5" font-family="Helvetica,sans-Serif" font-size="10.00">MinMaxOperator</text>
</a>
</g>
</g>
<!-- Node1&#45;&gt;Node2 -->
<g id="edge1" class="edge">
<title>Node1&#45;&gt;Node2</title>
<path fill="none" stroke="midnightblue" d="M136.13,-52.23C113.68,-42.13 82.96,-28.31 63.43,-19.52"/>
<polygon fill="midnightblue" stroke="midnightblue" points="134.93,-55.53 145.49,-56.44 137.8,-49.15 134.93,-55.53"/>
</g>
<!-- Node3 -->
<g id="node3" class="node">
<title>Node3</title>
<g id="a_node3"><a xlink:href="classRgbNormalizeOperator.html" target="_top" xlink:title=" ">
<polygon fill="none" stroke="black" points="106.5,-0.5 106.5,-19.5 222.5,-19.5 222.5,-0.5 106.5,-0.5"/>
<text text-anchor="middle" x="164.5" y="-7.5" font-family="Helvetica,sans-Serif" font-size="10.00">RgbNormalizeOperator</text>
</a>
</g>
</g>
<!-- Node1&#45;&gt;Node3 -->
<g id="edge2" class="edge">
<title>Node1&#45;&gt;Node3</title>
<path fill="none" stroke="midnightblue" d="M164.5,-45.8C164.5,-36.91 164.5,-26.78 164.5,-19.75"/>
<polygon fill="midnightblue" stroke="midnightblue" points="161,-46.08 164.5,-56.08 168,-46.08 161,-46.08"/>
</g>
<!-- Node4 -->
<g id="node4" class="node">
<title>Node4</title>
<g id="a_node4"><a xlink:href="classRgbNormalizeOperatorYolo.html" target="_top" xlink:title=" ">
<polygon fill="none" stroke="black" points="241,-0.5 241,-19.5 376,-19.5 376,-0.5 241,-0.5"/>
<text text-anchor="middle" x="308.5" y="-7.5" font-family="Helvetica,sans-Serif" font-size="10.00">RgbNormalizeOperatorYolo</text>
</a>
</g>
</g>
<!-- Node1&#45;&gt;Node4 -->
<g id="edge3" class="edge">
<title>Node1&#45;&gt;Node4</title>
<path fill="none" stroke="midnightblue" d="M196.75,-52.91C223.82,-42.75 261.82,-28.51 285.79,-19.52"/>
<polygon fill="midnightblue" stroke="midnightblue" points="195.45,-49.66 187.32,-56.44 197.91,-56.21 195.45,-49.66"/>
</g>
</g>
</svg>
