<?xml version="1.0" encoding="UTF-8" standalone="no"?>
<!DOCTYPE svg PUBLIC "-//W3C//DTD SVG 1.1//EN"
 "http://www.w3.org/Graphics/SVG/1.1/DTD/svg11.dtd">
<!-- Generated by graphviz version 2.43.0 (0)
 -->
<!-- Title: RgbNormalizeOperator Pages: 1 -->
<svg width="186pt" height="106pt"
 viewBox="0.00 0.00 186.00 106.00" xmlns="http://www.w3.org/2000/svg" xmlns:xlink="http://www.w3.org/1999/xlink">
<g id="graph0" class="graph" transform="scale(1 1) rotate(0) translate(4 102)">
<title>RgbNormalizeOperator</title>
<!-- Node1 -->
<g id="node1" class="node">
<title>Node1</title>
<g id="a_node1"><a xlink:title=" ">
<polygon fill="#bfbfbf" stroke="black" points="18,-0.5 18,-19.5 134,-19.5 134,-0.5 18,-0.5"/>
<text text-anchor="middle" x="76" y="-7.5" font-family="Helvetica,sans-Serif" font-size="10.00">RgbNormalizeOperator</text>
</a>
</g>
</g>
<!-- Node2 -->
<g id="node2" class="node">
<title>Node2</title>
<g id="a_node2"><a xlink:href="classOperator.html" target="_top" xlink:title="Abstract base class for all input/output operators that modify a float array.">
<polygon fill="none" stroke="black" points="0,-78.5 0,-97.5 54,-97.5 54,-78.5 0,-78.5"/>
<text text-anchor="middle" x="27" y="-85.5" font-family="Helvetica,sans-Serif" font-size="10.00">Operator</text>
</a>
</g>
</g>
<!-- Node2&#45;&gt;Node1 -->
<g id="edge1" class="edge">
<title>Node2&#45;&gt;Node1</title>
<path fill="none" stroke="midnightblue" d="M38.24,-69.57C48.31,-53.95 62.65,-31.7 70.44,-19.62"/>
<polygon fill="midnightblue" stroke="midnightblue" points="35.1,-67.98 32.62,-78.28 40.98,-71.77 35.1,-67.98"/>
</g>
<!-- Node3 -->
<g id="node3" class="node">
<title>Node3</title>
<g id="a_node3"><a xlink:title=" ">
<polygon fill="none" stroke="#bfbfbf" points="72,-78.5 72,-97.5 178,-97.5 178,-78.5 72,-78.5"/>
<text text-anchor="middle" x="125" y="-85.5" font-family="Helvetica,sans-Serif" font-size="10.00">std::array&lt; float, 3 &gt;</text>
</a>
</g>
</g>
<!-- Node3&#45;&gt;Node1 -->
<g id="edge2" class="edge">
<title>Node3&#45;&gt;Node1</title>
<path fill="none" stroke="#9a32cd" stroke-dasharray="5,2" d="M113.76,-69.57C103.69,-53.95 89.35,-31.7 81.56,-19.62"/>
<polygon fill="#9a32cd" stroke="#9a32cd" points="111.02,-71.77 119.38,-78.28 116.9,-67.98 111.02,-71.77"/>
<text text-anchor="middle" x="121" y="-52" font-family="Helvetica,sans-Serif" font-size="10.00"> mean</text>
<text text-anchor="middle" x="121" y="-41" font-family="Helvetica,sans-Serif" font-size="10.00">stddev</text>
</g>
</g>
</svg>
