<?xml version="1.0" encoding="UTF-8" standalone="no"?>
<!DOCTYPE svg PUBLIC "-//W3C//DTD SVG 1.1//EN"
 "http://www.w3.org/Graphics/SVG/1.1/DTD/svg11.dtd">
<!-- Generated by graphviz version 2.43.0 (0)
 -->
<!-- Title: src/DepthModel.cpp Pages: 1 -->
<svg width="816pt" height="319pt"
 viewBox="0.00 0.00 816.19 319.00" xmlns="http://www.w3.org/2000/svg" xmlns:xlink="http://www.w3.org/1999/xlink">
<g id="graph0" class="graph" transform="scale(1 1) rotate(0) translate(4 315)">
<title>src/DepthModel.cpp</title>
<!-- Node1 -->
<g id="node1" class="node">
<title>Node1</title>
<g id="a_node1"><a xlink:title=" ">
<polygon fill="#bfbfbf" stroke="black" points="233.89,-291.5 233.89,-310.5 337.89,-310.5 337.89,-291.5 233.89,-291.5"/>
<text text-anchor="middle" x="285.89" y="-298.5" font-family="Helvetica,sans-Serif" font-size="10.00">src/DepthModel.cpp</text>
</a>
</g>
</g>
<!-- Node2 -->
<g id="node2" class="node">
<title>Node2</title>
<g id="a_node2"><a xlink:href="DepthModel_8hpp.html" target="_top" xlink:title=" ">
<polygon fill="none" stroke="black" points="216.39,-235.5 216.39,-254.5 355.39,-254.5 355.39,-235.5 216.39,-235.5"/>
<text text-anchor="middle" x="285.89" y="-242.5" font-family="Helvetica,sans-Serif" font-size="10.00">EyeAICore/DepthModel.hpp</text>
</a>
</g>
</g>
<!-- Node1&#45;&gt;Node2 -->
<g id="edge1" class="edge">
<title>Node1&#45;&gt;Node2</title>
<path fill="none" stroke="midnightblue" d="M285.89,-291.08C285.89,-284.01 285.89,-273.86 285.89,-264.99"/>
<polygon fill="midnightblue" stroke="midnightblue" points="289.39,-264.75 285.89,-254.75 282.39,-264.75 289.39,-264.75"/>
</g>
<!-- Node3 -->
<g id="node3" class="node">
<title>Node3</title>
<g id="a_node3"><a xlink:href="TfLiteRuntime_8hpp.html" target="_top" xlink:title=" ">
<polygon fill="none" stroke="black" points="294.89,-179.5 294.89,-198.5 464.89,-198.5 464.89,-179.5 294.89,-179.5"/>
<text text-anchor="middle" x="379.89" y="-186.5" font-family="Helvetica,sans-Serif" font-size="10.00">EyeAICore/tflite/TfLiteRuntime.hpp</text>
</a>
</g>
</g>
<!-- Node1&#45;&gt;Node3 -->
<g id="edge29" class="edge">
<title>Node1&#45;&gt;Node3</title>
<path fill="none" stroke="midnightblue" d="M312.1,-291.42C329.63,-284.35 351.79,-272.6 364.89,-255 374.73,-241.79 378.26,-223.2 379.46,-209.29"/>
<polygon fill="midnightblue" stroke="midnightblue" points="382.98,-209.09 380.01,-198.92 375.99,-208.72 382.98,-209.09"/>
</g>
<!-- Node4 -->
<g id="node4" class="node">
<title>Node4</title>
<g id="a_node4"><a xlink:href="Operators_8hpp.html" target="_top" xlink:title=" ">
<polygon fill="none" stroke="black" points="123.39,-62 123.39,-81 252.39,-81 252.39,-62 123.39,-62"/>
<text text-anchor="middle" x="187.89" y="-69" font-family="Helvetica,sans-Serif" font-size="10.00">EyeAICore/Operators.hpp</text>
</a>
</g>
</g>
<!-- Node1&#45;&gt;Node4 -->
<g id="edge28" class="edge">
<title>Node1&#45;&gt;Node4</title>
<path fill="none" stroke="midnightblue" d="M257.83,-291.46C240.19,-284.55 218.63,-272.98 206.89,-255 173.41,-203.71 179.5,-126.52 184.61,-91.27"/>
<polygon fill="midnightblue" stroke="midnightblue" points="188.13,-91.44 186.25,-81.02 181.22,-90.34 188.13,-91.44"/>
</g>
<!-- Node2&#45;&gt;Node3 -->
<g id="edge2" class="edge">
<title>Node2&#45;&gt;Node3</title>
<path fill="none" stroke="midnightblue" d="M301,-235.32C315.8,-226.82 338.59,-213.73 355.87,-203.8"/>
<polygon fill="midnightblue" stroke="midnightblue" points="357.9,-206.67 364.83,-198.65 354.41,-200.6 357.9,-206.67"/>
</g>
<!-- Node3&#45;&gt;Node4 -->
<g id="edge3" class="edge">
<title>Node3&#45;&gt;Node4</title>
<path fill="none" stroke="midnightblue" d="M365.46,-179.32C332.44,-159.45 251.14,-110.55 211.04,-86.42"/>
<polygon fill="midnightblue" stroke="midnightblue" points="212.6,-83.28 202.23,-81.12 208.99,-89.28 212.6,-83.28"/>
</g>
<!-- Node8 -->
<g id="node8" class="node">
<title>Node8</title>
<g id="a_node8"><a xlink:title=" ">
<polygon fill="none" stroke="#bfbfbf" points="75.89,-0.5 75.89,-19.5 113.89,-19.5 113.89,-0.5 75.89,-0.5"/>
<text text-anchor="middle" x="94.89" y="-7.5" font-family="Helvetica,sans-Serif" font-size="10.00">span</text>
</a>
</g>
</g>
<!-- Node3&#45;&gt;Node8 -->
<g id="edge25" class="edge">
<title>Node3&#45;&gt;Node8</title>
<path fill="none" stroke="midnightblue" d="M310.08,-179.46C212.12,-165.86 41.82,-135.72 5.89,-87 -2.28,-75.91 -1.32,-67.74 5.89,-56 18.85,-34.93 45.06,-23.36 65.7,-17.25"/>
<polygon fill="midnightblue" stroke="midnightblue" points="66.84,-20.57 75.59,-14.6 65.03,-13.81 66.84,-20.57"/>
</g>
<!-- Node9 -->
<g id="node9" class="node">
<title>Node9</title>
<g id="a_node9"><a xlink:title=" ">
<polygon fill="none" stroke="#bfbfbf" points="336.39,-0.5 336.39,-19.5 377.39,-19.5 377.39,-0.5 336.39,-0.5"/>
<text text-anchor="middle" x="356.89" y="-7.5" font-family="Helvetica,sans-Serif" font-size="10.00">string</text>
</a>
</g>
</g>
<!-- Node3&#45;&gt;Node9 -->
<g id="edge26" class="edge">
<title>Node3&#45;&gt;Node9</title>
<path fill="none" stroke="midnightblue" d="M465.15,-187.05C610.93,-182.66 883.59,-160.67 787.89,-56 759.24,-24.66 463.25,-28.01 387.59,-19.27"/>
<polygon fill="midnightblue" stroke="midnightblue" points="387.82,-15.76 377.41,-17.75 386.79,-22.69 387.82,-15.76"/>
</g>
<!-- Node10 -->
<g id="node10" class="node">
<title>Node10</title>
<g id="a_node10"><a xlink:href="TfLiteUtils_8hpp.html" target="_top" xlink:title=" ">
<polygon fill="none" stroke="black" points="335.89,-123.5 335.89,-142.5 415.89,-142.5 415.89,-123.5 335.89,-123.5"/>
<text text-anchor="middle" x="375.89" y="-130.5" font-family="Helvetica,sans-Serif" font-size="10.00">TfLiteUtils.hpp</text>
</a>
</g>
</g>
<!-- Node3&#45;&gt;Node10 -->
<g id="edge9" class="edge">
<title>Node3&#45;&gt;Node10</title>
<path fill="none" stroke="midnightblue" d="M379.23,-179.08C378.71,-172.01 377.96,-161.86 377.3,-152.99"/>
<polygon fill="midnightblue" stroke="midnightblue" points="380.77,-152.47 376.54,-142.75 373.79,-152.98 380.77,-152.47"/>
</g>
<!-- Node14 -->
<g id="node14" class="node">
<title>Node14</title>
<g id="a_node14"><a xlink:title=" ">
<polygon fill="none" stroke="#bfbfbf" points="14.89,-62 14.89,-81 66.89,-81 66.89,-62 14.89,-62"/>
<text text-anchor="middle" x="40.89" y="-69" font-family="Helvetica,sans-Serif" font-size="10.00">memory</text>
</a>
</g>
</g>
<!-- Node3&#45;&gt;Node14 -->
<g id="edge24" class="edge">
<title>Node3&#45;&gt;Node14</title>
<path fill="none" stroke="midnightblue" d="M354.69,-179.41C294.87,-159.03 144.23,-107.71 75.75,-84.38"/>
<polygon fill="midnightblue" stroke="midnightblue" points="76.86,-81.06 66.26,-81.14 74.6,-87.68 76.86,-81.06"/>
</g>
<!-- Node15 -->
<g id="node15" class="node">
<title>Node15</title>
<g id="a_node15"><a xlink:title=" ">
<polygon fill="none" stroke="#bfbfbf" points="460.89,-62 460.89,-81 526.89,-81 526.89,-62 460.89,-62"/>
<text text-anchor="middle" x="493.89" y="-69" font-family="Helvetica,sans-Serif" font-size="10.00">string_view</text>
</a>
</g>
</g>
<!-- Node3&#45;&gt;Node15 -->
<g id="edge27" class="edge">
<title>Node3&#45;&gt;Node15</title>
<path fill="none" stroke="midnightblue" d="M388.55,-179.4C397.63,-170.36 412.3,-155.72 424.89,-143 443.22,-124.48 464.13,-103.07 478.09,-88.75"/>
<polygon fill="midnightblue" stroke="midnightblue" points="480.96,-90.82 485.42,-81.21 475.94,-85.94 480.96,-90.82"/>
</g>
<!-- Node16 -->
<g id="node16" class="node">
<title>Node16</title>
<g id="a_node16"><a xlink:title=" ">
<polygon fill="none" stroke="#bfbfbf" points="544.89,-56.5 544.89,-86.5 638.89,-86.5 638.89,-56.5 544.89,-56.5"/>
<text text-anchor="start" x="552.89" y="-74.5" font-family="Helvetica,sans-Serif" font-size="10.00">tensorflow/lite/c/c</text>
<text text-anchor="middle" x="591.89" y="-63.5" font-family="Helvetica,sans-Serif" font-size="10.00">_api.h</text>
</a>
</g>
</g>
<!-- Node3&#45;&gt;Node16 -->
<g id="edge22" class="edge">
<title>Node3&#45;&gt;Node16</title>
<path fill="none" stroke="midnightblue" d="M395.83,-179.32C429.95,-160.73 510.76,-116.7 557.29,-91.35"/>
<polygon fill="midnightblue" stroke="midnightblue" points="559.01,-94.4 566.11,-86.55 555.66,-88.26 559.01,-94.4"/>
</g>
<!-- Node17 -->
<g id="node17" class="node">
<title>Node17</title>
<g id="a_node17"><a xlink:title=" ">
<polygon fill="none" stroke="#bfbfbf" points="656.89,-56.5 656.89,-86.5 778.89,-86.5 778.89,-56.5 656.89,-56.5"/>
<text text-anchor="start" x="664.89" y="-74.5" font-family="Helvetica,sans-Serif" font-size="10.00">tensorflow/lite/delegates</text>
<text text-anchor="middle" x="717.89" y="-63.5" font-family="Helvetica,sans-Serif" font-size="10.00">/gpu/delegate.h</text>
</a>
</g>
</g>
<!-- Node3&#45;&gt;Node17 -->
<g id="edge23" class="edge">
<title>Node3&#45;&gt;Node17</title>
<path fill="none" stroke="midnightblue" d="M405.02,-179.41C460.37,-160.5 593.7,-114.94 667.18,-89.83"/>
<polygon fill="midnightblue" stroke="midnightblue" points="668.37,-93.12 676.7,-86.58 666.11,-86.5 668.37,-93.12"/>
</g>
<!-- Node5 -->
<g id="node5" class="node">
<title>Node5</title>
<g id="a_node5"><a xlink:title=" ">
<polygon fill="none" stroke="#bfbfbf" points="149.89,-0.5 149.89,-19.5 187.89,-19.5 187.89,-0.5 149.89,-0.5"/>
<text text-anchor="middle" x="168.89" y="-7.5" font-family="Helvetica,sans-Serif" font-size="10.00">array</text>
</a>
</g>
</g>
<!-- Node4&#45;&gt;Node5 -->
<g id="edge4" class="edge">
<title>Node4&#45;&gt;Node5</title>
<path fill="none" stroke="midnightblue" d="M185.17,-61.98C182.46,-53.49 178.22,-40.2 174.74,-29.32"/>
<polygon fill="midnightblue" stroke="midnightblue" points="177.99,-27.97 171.61,-19.51 171.32,-30.1 177.99,-27.97"/>
</g>
<!-- Node6 -->
<g id="node6" class="node">
<title>Node6</title>
<g id="a_node6"><a xlink:title=" ">
<polygon fill="none" stroke="#bfbfbf" points="273.89,-0.5 273.89,-19.5 317.89,-19.5 317.89,-0.5 273.89,-0.5"/>
<text text-anchor="middle" x="295.89" y="-7.5" font-family="Helvetica,sans-Serif" font-size="10.00">format</text>
</a>
</g>
</g>
<!-- Node4&#45;&gt;Node6 -->
<g id="edge5" class="edge">
<title>Node4&#45;&gt;Node6</title>
<path fill="none" stroke="midnightblue" d="M203.37,-61.98C221.17,-52.17 250.63,-35.93 271.52,-24.42"/>
<polygon fill="midnightblue" stroke="midnightblue" points="273.38,-27.4 280.45,-19.51 270,-21.27 273.38,-27.4"/>
</g>
<!-- Node7 -->
<g id="node7" class="node">
<title>Node7</title>
<g id="a_node7"><a xlink:title=" ">
<polygon fill="none" stroke="#bfbfbf" points="205.89,-0.5 205.89,-19.5 255.89,-19.5 255.89,-0.5 205.89,-0.5"/>
<text text-anchor="middle" x="230.89" y="-7.5" font-family="Helvetica,sans-Serif" font-size="10.00">optional</text>
</a>
</g>
</g>
<!-- Node4&#45;&gt;Node7 -->
<g id="edge6" class="edge">
<title>Node4&#45;&gt;Node7</title>
<path fill="none" stroke="midnightblue" d="M194.05,-61.98C200.5,-53.05 210.8,-38.81 218.87,-27.64"/>
<polygon fill="midnightblue" stroke="midnightblue" points="221.72,-29.66 224.74,-19.51 216.05,-25.56 221.72,-29.66"/>
</g>
<!-- Node4&#45;&gt;Node8 -->
<g id="edge7" class="edge">
<title>Node4&#45;&gt;Node8</title>
<path fill="none" stroke="midnightblue" d="M174.57,-61.98C159.51,-52.34 134.78,-36.52 116.86,-25.05"/>
<polygon fill="midnightblue" stroke="midnightblue" points="118.5,-21.95 108.19,-19.51 114.73,-27.85 118.5,-21.95"/>
</g>
<!-- Node4&#45;&gt;Node9 -->
<g id="edge8" class="edge">
<title>Node4&#45;&gt;Node9</title>
<path fill="none" stroke="midnightblue" d="M212.11,-61.98C242.3,-51.35 293.91,-33.17 326.66,-21.64"/>
<polygon fill="midnightblue" stroke="midnightblue" points="327.91,-24.91 336.18,-18.29 325.58,-18.31 327.91,-24.91"/>
</g>
<!-- Node10&#45;&gt;Node4 -->
<g id="edge10" class="edge">
<title>Node10&#45;&gt;Node4</title>
<path fill="none" stroke="midnightblue" d="M348.96,-123.48C316.29,-113.14 261.07,-95.66 224.55,-84.1"/>
<polygon fill="midnightblue" stroke="midnightblue" points="225.37,-80.69 214.78,-81.01 223.26,-87.36 225.37,-80.69"/>
</g>
<!-- Node10&#45;&gt;Node7 -->
<g id="edge17" class="edge">
<title>Node10&#45;&gt;Node7</title>
<path fill="none" stroke="midnightblue" d="M358.03,-123.37C341.98,-115.18 318.19,-101.92 299.89,-87 277.98,-69.13 256.73,-44.23 243.74,-27.87"/>
<polygon fill="midnightblue" stroke="midnightblue" points="246.32,-25.49 237.42,-19.76 240.8,-29.8 246.32,-25.49"/>
</g>
<!-- Node10&#45;&gt;Node8 -->
<g id="edge18" class="edge">
<title>Node10&#45;&gt;Node8</title>
<path fill="none" stroke="midnightblue" d="M335.83,-127.54C266.5,-119.48 129.96,-101.91 113.89,-87 98.19,-72.43 94.62,-47.02 94.19,-29.63"/>
<polygon fill="midnightblue" stroke="midnightblue" points="97.69,-29.57 94.27,-19.54 90.69,-29.52 97.69,-29.57"/>
</g>
<!-- Node11 -->
<g id="node11" class="node">
<title>Node11</title>
<g id="a_node11"><a xlink:href="Errors_8hpp.html" target="_top" xlink:title=" ">
<polygon fill="none" stroke="black" points="308.89,-62 308.89,-81 442.89,-81 442.89,-62 308.89,-62"/>
<text text-anchor="middle" x="375.89" y="-69" font-family="Helvetica,sans-Serif" font-size="10.00">EyeAICore/utils/Errors.hpp</text>
</a>
</g>
</g>
<!-- Node10&#45;&gt;Node11 -->
<g id="edge11" class="edge">
<title>Node10&#45;&gt;Node11</title>
<path fill="none" stroke="midnightblue" d="M375.89,-123.48C375.89,-115.08 375.89,-101.98 375.89,-91.16"/>
<polygon fill="midnightblue" stroke="midnightblue" points="379.39,-91.01 375.89,-81.01 372.39,-91.01 379.39,-91.01"/>
</g>
<!-- Node10&#45;&gt;Node14 -->
<g id="edge16" class="edge">
<title>Node10&#45;&gt;Node14</title>
<path fill="none" stroke="midnightblue" d="M335.79,-128.4C278.57,-122.71 170.5,-109.84 80.89,-87 77.91,-86.24 74.84,-85.34 71.79,-84.37"/>
<polygon fill="midnightblue" stroke="midnightblue" points="72.83,-81.03 62.24,-81.11 70.57,-87.66 72.83,-81.03"/>
</g>
<!-- Node10&#45;&gt;Node15 -->
<g id="edge19" class="edge">
<title>Node10&#45;&gt;Node15</title>
<path fill="none" stroke="midnightblue" d="M392.8,-123.48C412.43,-113.58 445.02,-97.14 467.88,-85.62"/>
<polygon fill="midnightblue" stroke="midnightblue" points="469.66,-88.64 477.02,-81.01 466.51,-82.39 469.66,-88.64"/>
</g>
<!-- Node10&#45;&gt;Node16 -->
<g id="edge20" class="edge">
<title>Node10&#45;&gt;Node16</title>
<path fill="none" stroke="midnightblue" d="M406.84,-123.48C440.14,-114.3 493.83,-99.51 534.83,-88.22"/>
<polygon fill="midnightblue" stroke="midnightblue" points="535.98,-91.53 544.69,-85.5 534.12,-84.78 535.98,-91.53"/>
</g>
<!-- Node10&#45;&gt;Node17 -->
<g id="edge21" class="edge">
<title>Node10&#45;&gt;Node17</title>
<path fill="none" stroke="midnightblue" d="M416.08,-125.87C467.31,-117.94 558.86,-103.39 646.95,-87.13"/>
<polygon fill="midnightblue" stroke="midnightblue" points="647.64,-90.56 656.84,-85.3 646.37,-83.68 647.64,-90.56"/>
</g>
<!-- Node11&#45;&gt;Node6 -->
<g id="edge12" class="edge">
<title>Node11&#45;&gt;Node6</title>
<path fill="none" stroke="midnightblue" d="M364.43,-61.98C351.72,-52.52 330.98,-37.1 315.64,-25.69"/>
<polygon fill="midnightblue" stroke="midnightblue" points="317.45,-22.67 307.33,-19.51 313.27,-28.29 317.45,-22.67"/>
</g>
<!-- Node11&#45;&gt;Node9 -->
<g id="edge13" class="edge">
<title>Node11&#45;&gt;Node9</title>
<path fill="none" stroke="midnightblue" d="M373.17,-61.98C370.46,-53.49 366.22,-40.2 362.74,-29.32"/>
<polygon fill="midnightblue" stroke="midnightblue" points="365.99,-27.97 359.61,-19.51 359.32,-30.1 365.99,-27.97"/>
</g>
<!-- Node12 -->
<g id="node12" class="node">
<title>Node12</title>
<g id="a_node12"><a xlink:title=" ">
<polygon fill="none" stroke="#bfbfbf" points="395.39,-0.5 395.39,-19.5 478.39,-19.5 478.39,-0.5 395.39,-0.5"/>
<text text-anchor="middle" x="436.89" y="-7.5" font-family="Helvetica,sans-Serif" font-size="10.00">tl/expected.hpp</text>
</a>
</g>
</g>
<!-- Node11&#45;&gt;Node12 -->
<g id="edge14" class="edge">
<title>Node11&#45;&gt;Node12</title>
<path fill="none" stroke="midnightblue" d="M384.63,-61.98C394.05,-52.78 409.26,-37.96 420.84,-26.66"/>
<polygon fill="midnightblue" stroke="midnightblue" points="423.45,-29 428.17,-19.51 418.57,-23.99 423.45,-29"/>
</g>
<!-- Node13 -->
<g id="node13" class="node">
<title>Node13</title>
<g id="a_node13"><a xlink:title=" ">
<polygon fill="none" stroke="#bfbfbf" points="496.89,-0.5 496.89,-19.5 542.89,-19.5 542.89,-0.5 496.89,-0.5"/>
<text text-anchor="middle" x="519.89" y="-7.5" font-family="Helvetica,sans-Serif" font-size="10.00">variant</text>
</a>
</g>
</g>
<!-- Node11&#45;&gt;Node13 -->
<g id="edge15" class="edge">
<title>Node11&#45;&gt;Node13</title>
<path fill="none" stroke="midnightblue" d="M396.52,-61.98C421.01,-51.86 462.04,-34.9 490,-23.35"/>
<polygon fill="midnightblue" stroke="midnightblue" points="491.39,-26.56 499.3,-19.51 488.72,-20.09 491.39,-26.56"/>
</g>
</g>
</svg>
