<?xml version="1.0" encoding="UTF-8" standalone="no"?>
<!DOCTYPE svg PUBLIC "-//W3C//DTD SVG 1.1//EN"
 "http://www.w3.org/Graphics/SVG/1.1/DTD/svg11.dtd">
<!-- Generated by graphviz version 2.43.0 (0)
 -->
<!-- Title: src/utils/DepthColormap.cpp Pages: 1 -->
<svg width="593pt" height="140pt"
 viewBox="0.00 0.00 593.00 140.00" xmlns="http://www.w3.org/2000/svg" xmlns:xlink="http://www.w3.org/1999/xlink">
<g id="graph0" class="graph" transform="scale(1 1) rotate(0) translate(4 136)">
<title>src/utils/DepthColormap.cpp</title>
<!-- Node1 -->
<g id="node1" class="node">
<title>Node1</title>
<g id="a_node1"><a xlink:title=" ">
<polygon fill="#bfbfbf" stroke="black" points="284.5,-112.5 284.5,-131.5 425.5,-131.5 425.5,-112.5 284.5,-112.5"/>
<text text-anchor="middle" x="355" y="-119.5" font-family="Helvetica,sans-Serif" font-size="10.00">src/utils/DepthColormap.cpp</text>
</a>
</g>
</g>
<!-- Node2 -->
<g id="node2" class="node">
<title>Node2</title>
<g id="a_node2"><a xlink:href="DepthColormap_8hpp.html" target="_top" xlink:title=" ">
<polygon fill="none" stroke="black" points="0,-56.5 0,-75.5 176,-75.5 176,-56.5 0,-56.5"/>
<text text-anchor="middle" x="88" y="-63.5" font-family="Helvetica,sans-Serif" font-size="10.00">EyeAICore/utils/DepthColormap.hpp</text>
</a>
</g>
</g>
<!-- Node1&#45;&gt;Node2 -->
<g id="edge1" class="edge">
<title>Node1&#45;&gt;Node2</title>
<path fill="none" stroke="midnightblue" d="M312.69,-112.44C265.92,-102.98 190.54,-87.74 140.15,-77.55"/>
<polygon fill="midnightblue" stroke="midnightblue" points="140.6,-74.07 130.11,-75.52 139.22,-80.93 140.6,-74.07"/>
</g>
<!-- Node6 -->
<g id="node6" class="node">
<title>Node6</title>
<g id="a_node6"><a xlink:href="ImageUtils_8hpp.html" target="_top" xlink:title=" ">
<polygon fill="none" stroke="black" points="194.5,-56.5 194.5,-75.5 349.5,-75.5 349.5,-56.5 194.5,-56.5"/>
<text text-anchor="middle" x="272" y="-63.5" font-family="Helvetica,sans-Serif" font-size="10.00">EyeAICore/utils/ImageUtils.hpp</text>
</a>
</g>
</g>
<!-- Node1&#45;&gt;Node6 -->
<g id="edge5" class="edge">
<title>Node1&#45;&gt;Node6</title>
<path fill="none" stroke="midnightblue" d="M341.66,-112.32C328.84,-103.98 309.22,-91.21 294.06,-81.35"/>
<polygon fill="midnightblue" stroke="midnightblue" points="295.59,-78.17 285.3,-75.65 291.78,-84.04 295.59,-78.17"/>
</g>
<!-- Node8 -->
<g id="node8" class="node">
<title>Node8</title>
<g id="a_node8"><a xlink:href="Profiling_8hpp.html" target="_top" xlink:title=" ">
<polygon fill="none" stroke="black" points="367.5,-56.5 367.5,-75.5 510.5,-75.5 510.5,-56.5 367.5,-56.5"/>
<text text-anchor="middle" x="439" y="-63.5" font-family="Helvetica,sans-Serif" font-size="10.00">EyeAICore/utils/Profiling.hpp</text>
</a>
</g>
</g>
<!-- Node1&#45;&gt;Node8 -->
<g id="edge7" class="edge">
<title>Node1&#45;&gt;Node8</title>
<path fill="none" stroke="midnightblue" d="M368.5,-112.32C381.6,-103.9 401.71,-90.97 417.11,-81.07"/>
<polygon fill="midnightblue" stroke="midnightblue" points="419.02,-84.01 425.54,-75.65 415.23,-78.12 419.02,-84.01"/>
</g>
<!-- Node12 -->
<g id="node12" class="node">
<title>Node12</title>
<g id="a_node12"><a xlink:title=" ">
<polygon fill="none" stroke="#bfbfbf" points="529,-56.5 529,-75.5 585,-75.5 585,-56.5 529,-56.5"/>
<text text-anchor="middle" x="557" y="-63.5" font-family="Helvetica,sans-Serif" font-size="10.00">algorithm</text>
</a>
</g>
</g>
<!-- Node1&#45;&gt;Node12 -->
<g id="edge11" class="edge">
<title>Node1&#45;&gt;Node12</title>
<path fill="none" stroke="midnightblue" d="M387.01,-112.44C422.85,-102.86 480.9,-87.34 519.02,-77.15"/>
<polygon fill="midnightblue" stroke="midnightblue" points="519.97,-80.52 528.73,-74.56 518.16,-73.76 519.97,-80.52"/>
</g>
<!-- Node3 -->
<g id="node3" class="node">
<title>Node3</title>
<g id="a_node3"><a xlink:title=" ">
<polygon fill="none" stroke="#bfbfbf" points="1,-0.5 1,-19.5 51,-19.5 51,-0.5 1,-0.5"/>
<text text-anchor="middle" x="26" y="-7.5" font-family="Helvetica,sans-Serif" font-size="10.00">optional</text>
</a>
</g>
</g>
<!-- Node2&#45;&gt;Node3 -->
<g id="edge2" class="edge">
<title>Node2&#45;&gt;Node3</title>
<path fill="none" stroke="midnightblue" d="M78.04,-56.32C68.87,-48.34 55.06,-36.31 43.97,-26.65"/>
<polygon fill="midnightblue" stroke="midnightblue" points="45.98,-23.76 36.14,-19.83 41.38,-29.04 45.98,-23.76"/>
</g>
<!-- Node4 -->
<g id="node4" class="node">
<title>Node4</title>
<g id="a_node4"><a xlink:title=" ">
<polygon fill="none" stroke="#bfbfbf" points="69,-0.5 69,-19.5 107,-19.5 107,-0.5 69,-0.5"/>
<text text-anchor="middle" x="88" y="-7.5" font-family="Helvetica,sans-Serif" font-size="10.00">span</text>
</a>
</g>
</g>
<!-- Node2&#45;&gt;Node4 -->
<g id="edge3" class="edge">
<title>Node2&#45;&gt;Node4</title>
<path fill="none" stroke="midnightblue" d="M88,-56.08C88,-49.01 88,-38.86 88,-29.99"/>
<polygon fill="midnightblue" stroke="midnightblue" points="91.5,-29.75 88,-19.75 84.5,-29.75 91.5,-29.75"/>
</g>
<!-- Node5 -->
<g id="node5" class="node">
<title>Node5</title>
<g id="a_node5"><a xlink:title=" ">
<polygon fill="none" stroke="#bfbfbf" points="125.5,-0.5 125.5,-19.5 166.5,-19.5 166.5,-0.5 125.5,-0.5"/>
<text text-anchor="middle" x="146" y="-7.5" font-family="Helvetica,sans-Serif" font-size="10.00">string</text>
</a>
</g>
</g>
<!-- Node2&#45;&gt;Node5 -->
<g id="edge4" class="edge">
<title>Node2&#45;&gt;Node5</title>
<path fill="none" stroke="midnightblue" d="M97.32,-56.32C105.89,-48.34 118.81,-36.31 129.19,-26.65"/>
<polygon fill="midnightblue" stroke="midnightblue" points="131.58,-29.21 136.51,-19.83 126.81,-24.09 131.58,-29.21"/>
</g>
<!-- Node7 -->
<g id="node7" class="node">
<title>Node7</title>
<g id="a_node7"><a xlink:title=" ">
<polygon fill="none" stroke="#bfbfbf" points="249,-0.5 249,-19.5 295,-19.5 295,-0.5 249,-0.5"/>
<text text-anchor="middle" x="272" y="-7.5" font-family="Helvetica,sans-Serif" font-size="10.00">cstdint</text>
</a>
</g>
</g>
<!-- Node6&#45;&gt;Node7 -->
<g id="edge6" class="edge">
<title>Node6&#45;&gt;Node7</title>
<path fill="none" stroke="midnightblue" d="M272,-56.08C272,-49.01 272,-38.86 272,-29.99"/>
<polygon fill="midnightblue" stroke="midnightblue" points="275.5,-29.75 272,-19.75 268.5,-29.75 275.5,-29.75"/>
</g>
<!-- Node9 -->
<g id="node9" class="node">
<title>Node9</title>
<g id="a_node9"><a xlink:title=" ">
<polygon fill="none" stroke="#bfbfbf" points="326,-0.5 326,-19.5 372,-19.5 372,-0.5 326,-0.5"/>
<text text-anchor="middle" x="349" y="-7.5" font-family="Helvetica,sans-Serif" font-size="10.00">chrono</text>
</a>
</g>
</g>
<!-- Node8&#45;&gt;Node9 -->
<g id="edge8" class="edge">
<title>Node8&#45;&gt;Node9</title>
<path fill="none" stroke="midnightblue" d="M424.54,-56.32C410.5,-47.9 388.95,-34.97 372.46,-25.07"/>
<polygon fill="midnightblue" stroke="midnightblue" points="373.8,-21.8 363.42,-19.65 370.2,-27.8 373.8,-21.8"/>
</g>
<!-- Node10 -->
<g id="node10" class="node">
<title>Node10</title>
<g id="a_node10"><a xlink:title=" ">
<polygon fill="none" stroke="#bfbfbf" points="390.5,-0.5 390.5,-19.5 487.5,-19.5 487.5,-0.5 390.5,-0.5"/>
<text text-anchor="middle" x="439" y="-7.5" font-family="Helvetica,sans-Serif" font-size="10.00">concurrentqueue.h</text>
</a>
</g>
</g>
<!-- Node8&#45;&gt;Node10 -->
<g id="edge9" class="edge">
<title>Node8&#45;&gt;Node10</title>
<path fill="none" stroke="midnightblue" d="M439,-56.08C439,-49.01 439,-38.86 439,-29.99"/>
<polygon fill="midnightblue" stroke="midnightblue" points="442.5,-29.75 439,-19.75 435.5,-29.75 442.5,-29.75"/>
</g>
<!-- Node11 -->
<g id="node11" class="node">
<title>Node11</title>
<g id="a_node11"><a xlink:title=" ">
<polygon fill="none" stroke="#bfbfbf" points="506,-0.5 506,-19.5 572,-19.5 572,-0.5 506,-0.5"/>
<text text-anchor="middle" x="539" y="-7.5" font-family="Helvetica,sans-Serif" font-size="10.00">string_view</text>
</a>
</g>
</g>
<!-- Node8&#45;&gt;Node11 -->
<g id="edge10" class="edge">
<title>Node8&#45;&gt;Node11</title>
<path fill="none" stroke="midnightblue" d="M455.07,-56.32C470.96,-47.74 495.51,-34.49 513.96,-24.52"/>
<polygon fill="midnightblue" stroke="midnightblue" points="515.84,-27.49 522.97,-19.65 512.51,-21.33 515.84,-27.49"/>
</g>
</g>
</svg>
