<?xml version="1.0" encoding="UTF-8" standalone="no"?>
<!DOCTYPE svg PUBLIC "-//W3C//DTD SVG 1.1//EN"
 "http://www.w3.org/Graphics/SVG/1.1/DTD/svg11.dtd">
<!-- Generated by graphviz version 2.43.0 (0)
 -->
<!-- Title: include/EyeAICore/DepthModel.hpp Pages: 1 -->
<svg width="819pt" height="263pt"
 viewBox="0.00 0.00 819.00 263.00" xmlns="http://www.w3.org/2000/svg" xmlns:xlink="http://www.w3.org/1999/xlink">
<g id="graph0" class="graph" transform="scale(1 1) rotate(0) translate(4 259)">
<title>include/EyeAICore/DepthModel.hpp</title>
<!-- Node1 -->
<g id="node1" class="node">
<title>Node1</title>
<g id="a_node1"><a xlink:title=" ">
<polygon fill="#bfbfbf" stroke="black" points="328.5,-235.5 328.5,-254.5 501.5,-254.5 501.5,-235.5 328.5,-235.5"/>
<text text-anchor="middle" x="415" y="-242.5" font-family="Helvetica,sans-Serif" font-size="10.00">include/EyeAICore/DepthModel.hpp</text>
</a>
</g>
</g>
<!-- Node2 -->
<g id="node2" class="node">
<title>Node2</title>
<g id="a_node2"><a xlink:href="TfLiteRuntime_8hpp.html" target="_top" xlink:title=" ">
<polygon fill="none" stroke="black" points="330,-179.5 330,-198.5 500,-198.5 500,-179.5 330,-179.5"/>
<text text-anchor="middle" x="415" y="-186.5" font-family="Helvetica,sans-Serif" font-size="10.00">EyeAICore/tflite/TfLiteRuntime.hpp</text>
</a>
</g>
</g>
<!-- Node1&#45;&gt;Node2 -->
<g id="edge1" class="edge">
<title>Node1&#45;&gt;Node2</title>
<path fill="none" stroke="midnightblue" d="M415,-235.08C415,-228.01 415,-217.86 415,-208.99"/>
<polygon fill="midnightblue" stroke="midnightblue" points="418.5,-208.75 415,-198.75 411.5,-208.75 418.5,-208.75"/>
</g>
<!-- Node3 -->
<g id="node3" class="node">
<title>Node3</title>
<g id="a_node3"><a xlink:href="Operators_8hpp.html" target="_top" xlink:title=" ">
<polygon fill="none" stroke="black" points="85.5,-62 85.5,-81 214.5,-81 214.5,-62 85.5,-62"/>
<text text-anchor="middle" x="150" y="-69" font-family="Helvetica,sans-Serif" font-size="10.00">EyeAICore/Operators.hpp</text>
</a>
</g>
</g>
<!-- Node2&#45;&gt;Node3 -->
<g id="edge2" class="edge">
<title>Node2&#45;&gt;Node3</title>
<path fill="none" stroke="midnightblue" d="M395.08,-179.32C348.74,-159.12 233.49,-108.89 179.19,-85.22"/>
<polygon fill="midnightblue" stroke="midnightblue" points="180.35,-81.91 169.79,-81.12 177.56,-88.33 180.35,-81.91"/>
</g>
<!-- Node7 -->
<g id="node7" class="node">
<title>Node7</title>
<g id="a_node7"><a xlink:title=" ">
<polygon fill="none" stroke="#bfbfbf" points="0,-0.5 0,-19.5 38,-19.5 38,-0.5 0,-0.5"/>
<text text-anchor="middle" x="19" y="-7.5" font-family="Helvetica,sans-Serif" font-size="10.00">span</text>
</a>
</g>
</g>
<!-- Node2&#45;&gt;Node7 -->
<g id="edge24" class="edge">
<title>Node2&#45;&gt;Node7</title>
<path fill="none" stroke="midnightblue" d="M329.81,-183.39C272.19,-178.14 195.2,-166.94 131,-143 86.86,-126.54 69.44,-124.56 41,-87 28.34,-70.27 22.95,-46.45 20.67,-29.95"/>
<polygon fill="midnightblue" stroke="midnightblue" points="24.13,-29.42 19.53,-19.88 17.18,-30.21 24.13,-29.42"/>
</g>
<!-- Node8 -->
<g id="node8" class="node">
<title>Node8</title>
<g id="a_node8"><a xlink:title=" ">
<polygon fill="none" stroke="#bfbfbf" points="127.5,-0.5 127.5,-19.5 168.5,-19.5 168.5,-0.5 127.5,-0.5"/>
<text text-anchor="middle" x="148" y="-7.5" font-family="Helvetica,sans-Serif" font-size="10.00">string</text>
</a>
</g>
</g>
<!-- Node2&#45;&gt;Node8 -->
<g id="edge25" class="edge">
<title>Node2&#45;&gt;Node8</title>
<path fill="none" stroke="midnightblue" d="M358.71,-179.46C271.41,-164.93 109.87,-132.5 76,-87 67.77,-75.95 69.32,-68.05 76,-56 84.99,-39.77 102.55,-28.62 118.08,-21.48"/>
<polygon fill="midnightblue" stroke="midnightblue" points="119.54,-24.66 127.38,-17.54 116.81,-18.22 119.54,-24.66"/>
</g>
<!-- Node9 -->
<g id="node9" class="node">
<title>Node9</title>
<g id="a_node9"><a xlink:href="TfLiteUtils_8hpp.html" target="_top" xlink:title=" ">
<polygon fill="none" stroke="black" points="341,-123.5 341,-142.5 421,-142.5 421,-123.5 341,-123.5"/>
<text text-anchor="middle" x="381" y="-130.5" font-family="Helvetica,sans-Serif" font-size="10.00">TfLiteUtils.hpp</text>
</a>
</g>
</g>
<!-- Node2&#45;&gt;Node9 -->
<g id="edge8" class="edge">
<title>Node2&#45;&gt;Node9</title>
<path fill="none" stroke="midnightblue" d="M409.39,-179.08C404.63,-171.53 397.68,-160.49 391.85,-151.23"/>
<polygon fill="midnightblue" stroke="midnightblue" points="394.8,-149.35 386.51,-142.75 388.88,-153.08 394.8,-149.35"/>
</g>
<!-- Node13 -->
<g id="node13" class="node">
<title>Node13</title>
<g id="a_node13"><a xlink:title=" ">
<polygon fill="none" stroke="#bfbfbf" points="423,-62 423,-81 475,-81 475,-62 423,-62"/>
<text text-anchor="middle" x="449" y="-69" font-family="Helvetica,sans-Serif" font-size="10.00">memory</text>
</a>
</g>
</g>
<!-- Node2&#45;&gt;Node13 -->
<g id="edge23" class="edge">
<title>Node2&#45;&gt;Node13</title>
<path fill="none" stroke="midnightblue" d="M418.03,-179.42C421.17,-170.4 426.15,-155.77 430,-143 435.25,-125.57 440.59,-105.51 444.26,-91.25"/>
<polygon fill="midnightblue" stroke="midnightblue" points="447.74,-91.78 446.82,-81.23 440.96,-90.05 447.74,-91.78"/>
</g>
<!-- Node14 -->
<g id="node14" class="node">
<title>Node14</title>
<g id="a_node14"><a xlink:title=" ">
<polygon fill="none" stroke="#bfbfbf" points="493,-62 493,-81 559,-81 559,-62 493,-62"/>
<text text-anchor="middle" x="526" y="-69" font-family="Helvetica,sans-Serif" font-size="10.00">string_view</text>
</a>
</g>
</g>
<!-- Node2&#45;&gt;Node14 -->
<g id="edge26" class="edge">
<title>Node2&#45;&gt;Node14</title>
<path fill="none" stroke="midnightblue" d="M423.34,-179.32C441.82,-160.09 486.46,-113.64 510.33,-88.81"/>
<polygon fill="midnightblue" stroke="midnightblue" points="513.15,-90.92 517.56,-81.28 508.11,-86.07 513.15,-90.92"/>
</g>
<!-- Node15 -->
<g id="node15" class="node">
<title>Node15</title>
<g id="a_node15"><a xlink:title=" ">
<polygon fill="none" stroke="#bfbfbf" points="577,-56.5 577,-86.5 671,-86.5 671,-56.5 577,-56.5"/>
<text text-anchor="start" x="585" y="-74.5" font-family="Helvetica,sans-Serif" font-size="10.00">tensorflow/lite/c/c</text>
<text text-anchor="middle" x="624" y="-63.5" font-family="Helvetica,sans-Serif" font-size="10.00">_api.h</text>
</a>
</g>
</g>
<!-- Node2&#45;&gt;Node15 -->
<g id="edge21" class="edge">
<title>Node2&#45;&gt;Node15</title>
<path fill="none" stroke="midnightblue" d="M430.71,-179.32C464.28,-160.77 543.69,-116.88 589.6,-91.51"/>
<polygon fill="midnightblue" stroke="midnightblue" points="591.53,-94.45 598.58,-86.55 588.14,-88.32 591.53,-94.45"/>
</g>
<!-- Node16 -->
<g id="node16" class="node">
<title>Node16</title>
<g id="a_node16"><a xlink:title=" ">
<polygon fill="none" stroke="#bfbfbf" points="689,-56.5 689,-86.5 811,-86.5 811,-56.5 689,-56.5"/>
<text text-anchor="start" x="697" y="-74.5" font-family="Helvetica,sans-Serif" font-size="10.00">tensorflow/lite/delegates</text>
<text text-anchor="middle" x="750" y="-63.5" font-family="Helvetica,sans-Serif" font-size="10.00">/gpu/delegate.h</text>
</a>
</g>
</g>
<!-- Node2&#45;&gt;Node16 -->
<g id="edge22" class="edge">
<title>Node2&#45;&gt;Node16</title>
<path fill="none" stroke="midnightblue" d="M439.91,-179.41C494.65,-160.54 626.37,-115.13 699.29,-89.98"/>
<polygon fill="midnightblue" stroke="midnightblue" points="700.86,-93.14 709.18,-86.58 698.58,-86.53 700.86,-93.14"/>
</g>
<!-- Node4 -->
<g id="node4" class="node">
<title>Node4</title>
<g id="a_node4"><a xlink:title=" ">
<polygon fill="none" stroke="#bfbfbf" points="71,-0.5 71,-19.5 109,-19.5 109,-0.5 71,-0.5"/>
<text text-anchor="middle" x="90" y="-7.5" font-family="Helvetica,sans-Serif" font-size="10.00">array</text>
</a>
</g>
</g>
<!-- Node3&#45;&gt;Node4 -->
<g id="edge3" class="edge">
<title>Node3&#45;&gt;Node4</title>
<path fill="none" stroke="midnightblue" d="M141.4,-61.98C132.14,-52.78 117.18,-37.96 105.79,-26.66"/>
<polygon fill="midnightblue" stroke="midnightblue" points="108.15,-24.07 98.58,-19.51 103.22,-29.04 108.15,-24.07"/>
</g>
<!-- Node5 -->
<g id="node5" class="node">
<title>Node5</title>
<g id="a_node5"><a xlink:title=" ">
<polygon fill="none" stroke="#bfbfbf" points="255,-0.5 255,-19.5 299,-19.5 299,-0.5 255,-0.5"/>
<text text-anchor="middle" x="277" y="-7.5" font-family="Helvetica,sans-Serif" font-size="10.00">format</text>
</a>
</g>
</g>
<!-- Node3&#45;&gt;Node5 -->
<g id="edge4" class="edge">
<title>Node3&#45;&gt;Node5</title>
<path fill="none" stroke="midnightblue" d="M168.2,-61.98C189.51,-51.99 225.03,-35.35 249.66,-23.81"/>
<polygon fill="midnightblue" stroke="midnightblue" points="251.27,-26.92 258.84,-19.51 248.3,-20.58 251.27,-26.92"/>
</g>
<!-- Node6 -->
<g id="node6" class="node">
<title>Node6</title>
<g id="a_node6"><a xlink:title=" ">
<polygon fill="none" stroke="#bfbfbf" points="187,-0.5 187,-19.5 237,-19.5 237,-0.5 187,-0.5"/>
<text text-anchor="middle" x="212" y="-7.5" font-family="Helvetica,sans-Serif" font-size="10.00">optional</text>
</a>
</g>
</g>
<!-- Node3&#45;&gt;Node6 -->
<g id="edge5" class="edge">
<title>Node3&#45;&gt;Node6</title>
<path fill="none" stroke="midnightblue" d="M158.88,-61.98C168.46,-52.78 183.91,-37.96 195.69,-26.66"/>
<polygon fill="midnightblue" stroke="midnightblue" points="198.34,-28.96 203.13,-19.51 193.49,-23.91 198.34,-28.96"/>
</g>
<!-- Node3&#45;&gt;Node7 -->
<g id="edge6" class="edge">
<title>Node3&#45;&gt;Node7</title>
<path fill="none" stroke="midnightblue" d="M131.23,-61.98C109.15,-51.95 72.28,-35.2 46.86,-23.65"/>
<polygon fill="midnightblue" stroke="midnightblue" points="48.29,-20.46 37.73,-19.51 45.39,-26.83 48.29,-20.46"/>
</g>
<!-- Node3&#45;&gt;Node8 -->
<g id="edge7" class="edge">
<title>Node3&#45;&gt;Node8</title>
<path fill="none" stroke="midnightblue" d="M149.71,-61.98C149.43,-53.58 148.99,-40.48 148.63,-29.66"/>
<polygon fill="midnightblue" stroke="midnightblue" points="152.12,-29.39 148.29,-19.51 145.12,-29.62 152.12,-29.39"/>
</g>
<!-- Node9&#45;&gt;Node3 -->
<g id="edge9" class="edge">
<title>Node9&#45;&gt;Node3</title>
<path fill="none" stroke="midnightblue" d="M347.9,-123.48C307.08,-112.96 237.59,-95.06 192.76,-83.51"/>
<polygon fill="midnightblue" stroke="midnightblue" points="193.59,-80.11 183.04,-81.01 191.85,-86.89 193.59,-80.11"/>
</g>
<!-- Node9&#45;&gt;Node6 -->
<g id="edge16" class="edge">
<title>Node9&#45;&gt;Node6</title>
<path fill="none" stroke="midnightblue" d="M340.87,-123.53C316.15,-116.79 284.93,-105.36 262,-87 242.5,-71.39 228.01,-46.05 219.78,-28.97"/>
<polygon fill="midnightblue" stroke="midnightblue" points="222.82,-27.2 215.48,-19.56 216.45,-30.11 222.82,-27.2"/>
</g>
<!-- Node9&#45;&gt;Node7 -->
<g id="edge17" class="edge">
<title>Node9&#45;&gt;Node7</title>
<path fill="none" stroke="midnightblue" d="M340.78,-129.84C268.47,-125.36 119.98,-113.18 76,-87 53.15,-73.4 36.47,-46.78 27.25,-28.94"/>
<polygon fill="midnightblue" stroke="midnightblue" points="30.34,-27.28 22.8,-19.84 24.05,-30.36 30.34,-27.28"/>
</g>
<!-- Node10 -->
<g id="node10" class="node">
<title>Node10</title>
<g id="a_node10"><a xlink:href="Errors_8hpp.html" target="_top" xlink:title=" ">
<polygon fill="none" stroke="black" points="271,-62 271,-81 405,-81 405,-62 271,-62"/>
<text text-anchor="middle" x="338" y="-69" font-family="Helvetica,sans-Serif" font-size="10.00">EyeAICore/utils/Errors.hpp</text>
</a>
</g>
</g>
<!-- Node9&#45;&gt;Node10 -->
<g id="edge10" class="edge">
<title>Node9&#45;&gt;Node10</title>
<path fill="none" stroke="midnightblue" d="M374.84,-123.48C368.39,-114.55 358.1,-100.31 350.03,-89.14"/>
<polygon fill="midnightblue" stroke="midnightblue" points="352.84,-87.06 344.15,-81.01 347.17,-91.16 352.84,-87.06"/>
</g>
<!-- Node9&#45;&gt;Node13 -->
<g id="edge15" class="edge">
<title>Node9&#45;&gt;Node13</title>
<path fill="none" stroke="midnightblue" d="M390.74,-123.48C401.35,-114.2 418.52,-99.17 431.48,-87.83"/>
<polygon fill="midnightblue" stroke="midnightblue" points="434.05,-90.23 439.28,-81.01 429.44,-84.96 434.05,-90.23"/>
</g>
<!-- Node9&#45;&gt;Node14 -->
<g id="edge18" class="edge">
<title>Node9&#45;&gt;Node14</title>
<path fill="none" stroke="midnightblue" d="M401.77,-123.48C426.43,-113.36 467.75,-96.4 495.9,-84.85"/>
<polygon fill="midnightblue" stroke="midnightblue" points="497.34,-88.04 505.26,-81.01 494.68,-81.57 497.34,-88.04"/>
</g>
<!-- Node9&#45;&gt;Node15 -->
<g id="edge19" class="edge">
<title>Node9&#45;&gt;Node15</title>
<path fill="none" stroke="midnightblue" d="M417.24,-123.47C452.89,-115.04 509.11,-101.64 566.92,-87.25"/>
<polygon fill="midnightblue" stroke="midnightblue" points="568.11,-90.56 576.96,-84.74 566.41,-83.77 568.11,-90.56"/>
</g>
<!-- Node9&#45;&gt;Node16 -->
<g id="edge20" class="edge">
<title>Node9&#45;&gt;Node16</title>
<path fill="none" stroke="midnightblue" d="M421.26,-126.66C476.87,-119.12 580.58,-104.49 678.85,-87.15"/>
<polygon fill="midnightblue" stroke="midnightblue" points="679.72,-90.55 688.95,-85.35 678.5,-83.66 679.72,-90.55"/>
</g>
<!-- Node10&#45;&gt;Node5 -->
<g id="edge11" class="edge">
<title>Node10&#45;&gt;Node5</title>
<path fill="none" stroke="midnightblue" d="M329.26,-61.98C319.84,-52.78 304.64,-37.96 293.05,-26.66"/>
<polygon fill="midnightblue" stroke="midnightblue" points="295.33,-23.99 285.72,-19.51 290.44,-29 295.33,-23.99"/>
</g>
<!-- Node10&#45;&gt;Node8 -->
<g id="edge12" class="edge">
<title>Node10&#45;&gt;Node8</title>
<path fill="none" stroke="midnightblue" d="M310.78,-61.98C275.7,-50.99 214.9,-31.95 178.36,-20.51"/>
<polygon fill="midnightblue" stroke="midnightblue" points="179.33,-17.14 168.74,-17.49 177.23,-23.82 179.33,-17.14"/>
</g>
<!-- Node11 -->
<g id="node11" class="node">
<title>Node11</title>
<g id="a_node11"><a xlink:title=" ">
<polygon fill="none" stroke="#bfbfbf" points="381.5,-0.5 381.5,-19.5 464.5,-19.5 464.5,-0.5 381.5,-0.5"/>
<text text-anchor="middle" x="423" y="-7.5" font-family="Helvetica,sans-Serif" font-size="10.00">tl/expected.hpp</text>
</a>
</g>
</g>
<!-- Node10&#45;&gt;Node11 -->
<g id="edge13" class="edge">
<title>Node10&#45;&gt;Node11</title>
<path fill="none" stroke="midnightblue" d="M350.18,-61.98C363.81,-52.43 386.13,-36.81 402.47,-25.37"/>
<polygon fill="midnightblue" stroke="midnightblue" points="404.66,-28.11 410.84,-19.51 400.64,-22.38 404.66,-28.11"/>
</g>
<!-- Node12 -->
<g id="node12" class="node">
<title>Node12</title>
<g id="a_node12"><a xlink:title=" ">
<polygon fill="none" stroke="#bfbfbf" points="317,-0.5 317,-19.5 363,-19.5 363,-0.5 317,-0.5"/>
<text text-anchor="middle" x="340" y="-7.5" font-family="Helvetica,sans-Serif" font-size="10.00">variant</text>
</a>
</g>
</g>
<!-- Node10&#45;&gt;Node12 -->
<g id="edge14" class="edge">
<title>Node10&#45;&gt;Node12</title>
<path fill="none" stroke="midnightblue" d="M338.29,-61.98C338.57,-53.58 339.01,-40.48 339.37,-29.66"/>
<polygon fill="midnightblue" stroke="midnightblue" points="342.88,-29.62 339.71,-19.51 335.88,-29.39 342.88,-29.62"/>
</g>
</g>
</svg>
