<?xml version="1.0" encoding="UTF-8" standalone="no"?>
<!DOCTYPE svg PUBLIC "-//W3C//DTD SVG 1.1//EN"
 "http://www.w3.org/Graphics/SVG/1.1/DTD/svg11.dtd">
<!-- Generated by graphviz version 2.43.0 (0)
 -->
<!-- Title: include/EyeAICore/utils/Errors.hpp Pages: 1 -->
<svg width="277pt" height="95pt"
 viewBox="0.00 0.00 277.00 95.00" xmlns="http://www.w3.org/2000/svg" xmlns:xlink="http://www.w3.org/1999/xlink">
<g id="graph0" class="graph" transform="scale(1 1) rotate(0) translate(4 91)">
<title>include/EyeAICore/utils/Errors.hpp</title>
<!-- Node1 -->
<g id="node1" class="node">
<title>Node1</title>
<g id="a_node1"><a xlink:title=" ">
<polygon fill="#bfbfbf" stroke="black" points="63.5,-56.5 63.5,-86.5 182.5,-86.5 182.5,-56.5 63.5,-56.5"/>
<text text-anchor="start" x="71.5" y="-74.5" font-family="Helvetica,sans-Serif" font-size="10.00">include/EyeAICore/utils</text>
<text text-anchor="middle" x="123" y="-63.5" font-family="Helvetica,sans-Serif" font-size="10.00">/Errors.hpp</text>
</a>
</g>
</g>
<!-- Node2 -->
<g id="node2" class="node">
<title>Node2</title>
<g id="a_node2"><a xlink:title=" ">
<polygon fill="none" stroke="#bfbfbf" points="0,-0.5 0,-19.5 44,-19.5 44,-0.5 0,-0.5"/>
<text text-anchor="middle" x="22" y="-7.5" font-family="Helvetica,sans-Serif" font-size="10.00">format</text>
</a>
</g>
</g>
<!-- Node1&#45;&gt;Node2 -->
<g id="edge1" class="edge">
<title>Node1&#45;&gt;Node2</title>
<path fill="none" stroke="midnightblue" d="M99.06,-56.4C82.87,-46.86 61.59,-34.32 45.5,-24.84"/>
<polygon fill="midnightblue" stroke="midnightblue" points="47.09,-21.72 36.7,-19.66 43.54,-27.75 47.09,-21.72"/>
</g>
<!-- Node3 -->
<g id="node3" class="node">
<title>Node3</title>
<g id="a_node3"><a xlink:title=" ">
<polygon fill="none" stroke="#bfbfbf" points="62.5,-0.5 62.5,-19.5 103.5,-19.5 103.5,-0.5 62.5,-0.5"/>
<text text-anchor="middle" x="83" y="-7.5" font-family="Helvetica,sans-Serif" font-size="10.00">string</text>
</a>
</g>
</g>
<!-- Node1&#45;&gt;Node3 -->
<g id="edge2" class="edge">
<title>Node1&#45;&gt;Node3</title>
<path fill="none" stroke="midnightblue" d="M113.52,-56.4C107.83,-47.93 100.55,-37.1 94.52,-28.14"/>
<polygon fill="midnightblue" stroke="midnightblue" points="97.3,-26 88.82,-19.66 91.49,-29.91 97.3,-26"/>
</g>
<!-- Node4 -->
<g id="node4" class="node">
<title>Node4</title>
<g id="a_node4"><a xlink:title=" ">
<polygon fill="none" stroke="#bfbfbf" points="121.5,-0.5 121.5,-19.5 204.5,-19.5 204.5,-0.5 121.5,-0.5"/>
<text text-anchor="middle" x="163" y="-7.5" font-family="Helvetica,sans-Serif" font-size="10.00">tl/expected.hpp</text>
</a>
</g>
</g>
<!-- Node1&#45;&gt;Node4 -->
<g id="edge3" class="edge">
<title>Node1&#45;&gt;Node4</title>
<path fill="none" stroke="midnightblue" d="M132.48,-56.4C138.17,-47.93 145.45,-37.1 151.48,-28.14"/>
<polygon fill="midnightblue" stroke="midnightblue" points="154.51,-29.91 157.18,-19.66 148.7,-26 154.51,-29.91"/>
</g>
<!-- Node5 -->
<g id="node5" class="node">
<title>Node5</title>
<g id="a_node5"><a xlink:title=" ">
<polygon fill="none" stroke="#bfbfbf" points="223,-0.5 223,-19.5 269,-19.5 269,-0.5 223,-0.5"/>
<text text-anchor="middle" x="246" y="-7.5" font-family="Helvetica,sans-Serif" font-size="10.00">variant</text>
</a>
</g>
</g>
<!-- Node1&#45;&gt;Node5 -->
<g id="edge4" class="edge">
<title>Node1&#45;&gt;Node5</title>
<path fill="none" stroke="midnightblue" d="M152.15,-56.4C172.42,-46.59 199.24,-33.62 219.02,-24.05"/>
<polygon fill="midnightblue" stroke="midnightblue" points="220.62,-27.16 228.1,-19.66 217.58,-20.86 220.62,-27.16"/>
</g>
</g>
</svg>
