<?xml version="1.0" encoding="UTF-8" standalone="no"?>
<!DOCTYPE svg PUBLIC "-//W3C//DTD SVG 1.1//EN"
 "http://www.w3.org/Graphics/SVG/1.1/DTD/svg11.dtd">
<!-- Generated by graphviz version 2.43.0 (0)
 -->
<!-- Title: include/EyeAICore/Operators.hpp Pages: 1 -->
<svg width="789pt" height="274pt"
 viewBox="0.00 0.00 788.50 274.00" xmlns="http://www.w3.org/2000/svg" xmlns:xlink="http://www.w3.org/1999/xlink">
<g id="graph0" class="graph" transform="scale(1 1) rotate(0) translate(4 270)">
<title>include/EyeAICore/Operators.hpp</title>
<!-- Node1 -->
<g id="node1" class="node">
<title>Node1</title>
<g id="a_node1"><a xlink:title=" ">
<polygon fill="#bfbfbf" stroke="black" points="424.5,-246.5 424.5,-265.5 587.5,-265.5 587.5,-246.5 424.5,-246.5"/>
<text text-anchor="middle" x="506" y="-253.5" font-family="Helvetica,sans-Serif" font-size="10.00">include/EyeAICore/Operators.hpp</text>
</a>
</g>
</g>
<!-- Node2 -->
<g id="node2" class="node">
<title>Node2</title>
<g id="a_node2"><a xlink:href="TfLiteRuntime_8hpp.html" target="_top" xlink:title=" ">
<polygon fill="none" stroke="black" points="226,-112.5 226,-142.5 346,-142.5 346,-112.5 226,-112.5"/>
<text text-anchor="start" x="234" y="-130.5" font-family="Helvetica,sans-Serif" font-size="10.00">include/EyeAICore/tflite</text>
<text text-anchor="middle" x="286" y="-119.5" font-family="Helvetica,sans-Serif" font-size="10.00">/TfLiteRuntime.hpp</text>
</a>
</g>
</g>
<!-- Node1&#45;&gt;Node2 -->
<g id="edge1" class="edge">
<title>Node1&#45;&gt;Node2</title>
<path fill="none" stroke="midnightblue" d="M433.79,-244.3C405.6,-237.66 374.09,-227.01 349,-210 323.1,-192.43 303.17,-160.8 293.15,-142.54"/>
<polygon fill="midnightblue" stroke="midnightblue" points="433.09,-247.73 443.61,-246.48 434.61,-240.9 433.09,-247.73"/>
</g>
<!-- Node4 -->
<g id="node4" class="node">
<title>Node4</title>
<g id="a_node4"><a xlink:href="DepthModel_8cpp.html" target="_top" xlink:title=" ">
<polygon fill="none" stroke="black" points="0,-0.5 0,-19.5 104,-19.5 104,-0.5 0,-0.5"/>
<text text-anchor="middle" x="52" y="-7.5" font-family="Helvetica,sans-Serif" font-size="10.00">src/DepthModel.cpp</text>
</a>
</g>
</g>
<!-- Node1&#45;&gt;Node4 -->
<g id="edge14" class="edge">
<title>Node1&#45;&gt;Node4</title>
<path fill="none" stroke="midnightblue" d="M444.83,-244.55C406.79,-237.08 357.25,-225.6 315,-210 193.04,-164.98 125.21,-185.41 55,-76 43.9,-58.7 47.06,-33.14 49.82,-19.82"/>
<polygon fill="midnightblue" stroke="midnightblue" points="444.26,-248 454.74,-246.45 445.58,-241.13 444.26,-248"/>
</g>
<!-- Node5 -->
<g id="node5" class="node">
<title>Node5</title>
<g id="a_node5"><a xlink:href="YoloModel_8hpp.html" target="_top" xlink:title=" ">
<polygon fill="none" stroke="black" points="463.5,-56.5 463.5,-75.5 628.5,-75.5 628.5,-56.5 463.5,-56.5"/>
<text text-anchor="middle" x="546" y="-63.5" font-family="Helvetica,sans-Serif" font-size="10.00">include/EyeAICore/YoloModel.hpp</text>
</a>
</g>
</g>
<!-- Node1&#45;&gt;Node5 -->
<g id="edge13" class="edge">
<title>Node1&#45;&gt;Node5</title>
<path fill="none" stroke="midnightblue" d="M510.26,-236.55C515.36,-214.38 524.06,-176.02 531,-143 536.09,-118.78 541.61,-90.12 544.32,-75.91"/>
<polygon fill="midnightblue" stroke="midnightblue" points="506.85,-235.77 508.02,-246.3 513.67,-237.34 506.85,-235.77"/>
</g>
<!-- Node6 -->
<g id="node6" class="node">
<title>Node6</title>
<g id="a_node6"><a xlink:href="YoloModel_8cpp.html" target="_top" xlink:title=" ">
<polygon fill="none" stroke="black" points="497.5,-0.5 497.5,-19.5 594.5,-19.5 594.5,-0.5 497.5,-0.5"/>
<text text-anchor="middle" x="546" y="-7.5" font-family="Helvetica,sans-Serif" font-size="10.00">src/YoloModel.cpp</text>
</a>
</g>
</g>
<!-- Node1&#45;&gt;Node6 -->
<g id="edge16" class="edge">
<title>Node1&#45;&gt;Node6</title>
<path fill="none" stroke="midnightblue" d="M523.22,-239.35C553.46,-210.55 615.08,-145.7 638,-76 640.78,-67.56 642.71,-63.54 638,-56 626.33,-37.3 604.38,-26.15 584.85,-19.64"/>
<polygon fill="midnightblue" stroke="midnightblue" points="520.82,-236.79 515.91,-246.18 525.61,-241.91 520.82,-236.79"/>
</g>
<!-- Node8 -->
<g id="node8" class="node">
<title>Node8</title>
<g id="a_node8"><a xlink:href="TfLiteUtils_8hpp.html" target="_top" xlink:title=" ">
<polygon fill="none" stroke="black" points="358,-179.5 358,-209.5 478,-209.5 478,-179.5 358,-179.5"/>
<text text-anchor="start" x="366" y="-197.5" font-family="Helvetica,sans-Serif" font-size="10.00">include/EyeAICore/tflite</text>
<text text-anchor="middle" x="418" y="-186.5" font-family="Helvetica,sans-Serif" font-size="10.00">/TfLiteUtils.hpp</text>
</a>
</g>
</g>
<!-- Node1&#45;&gt;Node8 -->
<g id="edge9" class="edge">
<title>Node1&#45;&gt;Node8</title>
<path fill="none" stroke="midnightblue" d="M484.91,-240.74C470.92,-231.28 452.65,-218.93 438.74,-209.52"/>
<polygon fill="midnightblue" stroke="midnightblue" points="483.15,-243.77 493.39,-246.48 487.07,-237.97 483.15,-243.77"/>
</g>
<!-- Node10 -->
<g id="node10" class="node">
<title>Node10</title>
<g id="a_node10"><a xlink:href="Operators_8cpp.html" target="_top" xlink:title=" ">
<polygon fill="none" stroke="black" points="685.5,-185 685.5,-204 780.5,-204 780.5,-185 685.5,-185"/>
<text text-anchor="middle" x="733" y="-192" font-family="Helvetica,sans-Serif" font-size="10.00">src/Operators.cpp</text>
</a>
</g>
</g>
<!-- Node1&#45;&gt;Node10 -->
<g id="edge15" class="edge">
<title>Node1&#45;&gt;Node10</title>
<path fill="none" stroke="midnightblue" d="M548.36,-243.9C592.45,-232.34 660.53,-214.5 700.54,-204.01"/>
<polygon fill="midnightblue" stroke="midnightblue" points="547.31,-240.55 538.52,-246.48 549.08,-247.33 547.31,-240.55"/>
</g>
<!-- Node3 -->
<g id="node3" class="node">
<title>Node3</title>
<g id="a_node3"><a xlink:href="DepthModel_8hpp.html" target="_top" xlink:title=" ">
<polygon fill="none" stroke="black" points="80.5,-56.5 80.5,-75.5 253.5,-75.5 253.5,-56.5 80.5,-56.5"/>
<text text-anchor="middle" x="167" y="-63.5" font-family="Helvetica,sans-Serif" font-size="10.00">include/EyeAICore/DepthModel.hpp</text>
</a>
</g>
</g>
<!-- Node2&#45;&gt;Node3 -->
<g id="edge2" class="edge">
<title>Node2&#45;&gt;Node3</title>
<path fill="none" stroke="midnightblue" d="M248.59,-107.8C227.09,-97.04 201.09,-84.05 184.32,-75.66"/>
<polygon fill="midnightblue" stroke="midnightblue" points="247.29,-111.06 257.8,-112.4 250.42,-104.8 247.29,-111.06"/>
</g>
<!-- Node2&#45;&gt;Node4 -->
<g id="edge6" class="edge">
<title>Node2&#45;&gt;Node4</title>
<path fill="none" stroke="midnightblue" d="M215.82,-117.74C161.36,-109.57 91.76,-95.68 71,-76 55.13,-60.96 52.29,-33.46 51.92,-19.55"/>
<polygon fill="midnightblue" stroke="midnightblue" points="215.39,-121.22 225.79,-119.2 216.4,-114.29 215.39,-121.22"/>
</g>
<!-- Node2&#45;&gt;Node5 -->
<g id="edge4" class="edge">
<title>Node2&#45;&gt;Node5</title>
<path fill="none" stroke="midnightblue" d="M356.22,-110.43C405.28,-99.2 468.86,-84.65 508.54,-75.57"/>
<polygon fill="midnightblue" stroke="midnightblue" points="355.27,-107.06 346.3,-112.7 356.83,-113.88 355.27,-107.06"/>
</g>
<!-- Node2&#45;&gt;Node6 -->
<g id="edge8" class="edge">
<title>Node2&#45;&gt;Node6</title>
<path fill="none" stroke="midnightblue" d="M284.77,-102.1C285.37,-86.79 288.87,-67.79 301,-56 328.32,-29.43 434.15,-18.12 497.44,-13.65"/>
<polygon fill="midnightblue" stroke="midnightblue" points="281.27,-102.43 284.76,-112.43 288.27,-102.43 281.27,-102.43"/>
</g>
<!-- Node7 -->
<g id="node7" class="node">
<title>Node7</title>
<g id="a_node7"><a xlink:href="TfLiteRuntime_8cpp.html" target="_top" xlink:title=" ">
<polygon fill="none" stroke="black" points="310.5,-56.5 310.5,-75.5 445.5,-75.5 445.5,-56.5 310.5,-56.5"/>
<text text-anchor="middle" x="378" y="-63.5" font-family="Helvetica,sans-Serif" font-size="10.00">src/tflite/TfLiteRuntime.cpp</text>
</a>
</g>
</g>
<!-- Node2&#45;&gt;Node7 -->
<g id="edge7" class="edge">
<title>Node2&#45;&gt;Node7</title>
<path fill="none" stroke="midnightblue" d="M316.5,-106.78C332.8,-96.23 352.05,-83.78 364.61,-75.66"/>
<polygon fill="midnightblue" stroke="midnightblue" points="314.3,-104.03 307.8,-112.4 318.1,-109.91 314.3,-104.03"/>
</g>
<!-- Node3&#45;&gt;Node4 -->
<g id="edge3" class="edge">
<title>Node3&#45;&gt;Node4</title>
<path fill="none" stroke="midnightblue" d="M139.52,-52.1C118.03,-42.01 88.78,-28.27 70.14,-19.52"/>
<polygon fill="midnightblue" stroke="midnightblue" points="138.24,-55.36 148.78,-56.44 141.21,-49.02 138.24,-55.36"/>
</g>
<!-- Node5&#45;&gt;Node6 -->
<g id="edge5" class="edge">
<title>Node5&#45;&gt;Node6</title>
<path fill="none" stroke="midnightblue" d="M546,-45.8C546,-36.91 546,-26.78 546,-19.75"/>
<polygon fill="midnightblue" stroke="midnightblue" points="542.5,-46.08 546,-56.08 549.5,-46.08 542.5,-46.08"/>
</g>
<!-- Node8&#45;&gt;Node2 -->
<g id="edge10" class="edge">
<title>Node8&#45;&gt;Node2</title>
<path fill="none" stroke="midnightblue" d="M380.13,-174.85C359.26,-164.58 333.77,-152.03 314.59,-142.58"/>
<polygon fill="midnightblue" stroke="midnightblue" points="378.84,-178.12 389.36,-179.4 381.93,-171.84 378.84,-178.12"/>
</g>
<!-- Node8&#45;&gt;Node7 -->
<g id="edge11" class="edge">
<title>Node8&#45;&gt;Node7</title>
<path fill="none" stroke="midnightblue" d="M405,-170.48C400.67,-162.05 396.15,-152.29 393,-143 384.96,-119.31 380.68,-89.93 378.95,-75.63"/>
<polygon fill="midnightblue" stroke="midnightblue" points="401.94,-172.17 409.73,-179.35 408.11,-168.88 401.94,-172.17"/>
</g>
<!-- Node9 -->
<g id="node9" class="node">
<title>Node9</title>
<g id="a_node9"><a xlink:href="TfLiteUtils_8cpp.html" target="_top" xlink:title=" ">
<polygon fill="none" stroke="black" points="402.5,-118 402.5,-137 521.5,-137 521.5,-118 402.5,-118"/>
<text text-anchor="middle" x="462" y="-125" font-family="Helvetica,sans-Serif" font-size="10.00">src/tflite/TfLiteUtils.cpp</text>
</a>
</g>
</g>
<!-- Node8&#45;&gt;Node9 -->
<g id="edge12" class="edge">
<title>Node8&#45;&gt;Node9</title>
<path fill="none" stroke="midnightblue" d="M433.25,-170.97C441.13,-159.33 450.29,-145.8 456.11,-137.19"/>
<polygon fill="midnightblue" stroke="midnightblue" points="430.25,-169.15 427.55,-179.4 436.05,-173.08 430.25,-169.15"/>
</g>
</g>
</svg>
