<?xml version="1.0" encoding="UTF-8" standalone="no"?>
<!DOCTYPE svg PUBLIC "-//W3C//DTD SVG 1.1//EN"
 "http://www.w3.org/Graphics/SVG/1.1/DTD/svg11.dtd">
<!-- Generated by graphviz version 2.43.0 (0)
 -->
<!-- Title: src/Operators.cpp Pages: 1 -->
<svg width="556pt" height="140pt"
 viewBox="0.00 0.00 556.00 140.00" xmlns="http://www.w3.org/2000/svg" xmlns:xlink="http://www.w3.org/1999/xlink">
<g id="graph0" class="graph" transform="scale(1 1) rotate(0) translate(4 136)">
<title>src/Operators.cpp</title>
<!-- Node1 -->
<g id="node1" class="node">
<title>Node1</title>
<g id="a_node1"><a xlink:title=" ">
<polygon fill="#bfbfbf" stroke="black" points="301.5,-112.5 301.5,-131.5 396.5,-131.5 396.5,-112.5 301.5,-112.5"/>
<text text-anchor="middle" x="349" y="-119.5" font-family="Helvetica,sans-Serif" font-size="10.00">src/Operators.cpp</text>
</a>
</g>
</g>
<!-- Node2 -->
<g id="node2" class="node">
<title>Node2</title>
<g id="a_node2"><a xlink:href="Operators_8hpp.html" target="_top" xlink:title=" ">
<polygon fill="none" stroke="black" points="116.5,-56.5 116.5,-75.5 245.5,-75.5 245.5,-56.5 116.5,-56.5"/>
<text text-anchor="middle" x="181" y="-63.5" font-family="Helvetica,sans-Serif" font-size="10.00">EyeAICore/Operators.hpp</text>
</a>
</g>
</g>
<!-- Node1&#45;&gt;Node2 -->
<g id="edge1" class="edge">
<title>Node1&#45;&gt;Node2</title>
<path fill="none" stroke="midnightblue" d="M322.38,-112.44C293.99,-103.32 248.86,-88.81 217.25,-78.65"/>
<polygon fill="midnightblue" stroke="midnightblue" points="218.09,-75.24 207.5,-75.52 215.94,-81.91 218.09,-75.24"/>
</g>
<!-- Node8 -->
<g id="node8" class="node">
<title>Node8</title>
<g id="a_node8"><a xlink:href="Profiling_8hpp.html" target="_top" xlink:title=" ">
<polygon fill="none" stroke="black" points="277.5,-56.5 277.5,-75.5 420.5,-75.5 420.5,-56.5 277.5,-56.5"/>
<text text-anchor="middle" x="349" y="-63.5" font-family="Helvetica,sans-Serif" font-size="10.00">EyeAICore/utils/Profiling.hpp</text>
</a>
</g>
</g>
<!-- Node1&#45;&gt;Node8 -->
<g id="edge7" class="edge">
<title>Node1&#45;&gt;Node8</title>
<path fill="none" stroke="midnightblue" d="M349,-112.08C349,-105.01 349,-94.86 349,-85.99"/>
<polygon fill="midnightblue" stroke="midnightblue" points="352.5,-85.75 349,-75.75 345.5,-85.75 352.5,-85.75"/>
</g>
<!-- Node12 -->
<g id="node12" class="node">
<title>Node12</title>
<g id="a_node12"><a xlink:title=" ">
<polygon fill="none" stroke="#bfbfbf" points="439,-56.5 439,-75.5 495,-75.5 495,-56.5 439,-56.5"/>
<text text-anchor="middle" x="467" y="-63.5" font-family="Helvetica,sans-Serif" font-size="10.00">algorithm</text>
</a>
</g>
</g>
<!-- Node1&#45;&gt;Node12 -->
<g id="edge11" class="edge">
<title>Node1&#45;&gt;Node12</title>
<path fill="none" stroke="midnightblue" d="M367.7,-112.44C386.94,-103.64 417.15,-89.81 439.2,-79.72"/>
<polygon fill="midnightblue" stroke="midnightblue" points="440.75,-82.86 448.39,-75.52 437.84,-76.5 440.75,-82.86"/>
</g>
<!-- Node3 -->
<g id="node3" class="node">
<title>Node3</title>
<g id="a_node3"><a xlink:title=" ">
<polygon fill="none" stroke="#bfbfbf" points="0,-0.5 0,-19.5 38,-19.5 38,-0.5 0,-0.5"/>
<text text-anchor="middle" x="19" y="-7.5" font-family="Helvetica,sans-Serif" font-size="10.00">array</text>
</a>
</g>
</g>
<!-- Node2&#45;&gt;Node3 -->
<g id="edge2" class="edge">
<title>Node2&#45;&gt;Node3</title>
<path fill="none" stroke="midnightblue" d="M155.33,-56.44C126.15,-46.72 78.63,-30.88 48.1,-20.7"/>
<polygon fill="midnightblue" stroke="midnightblue" points="49.04,-17.32 38.45,-17.48 46.83,-23.97 49.04,-17.32"/>
</g>
<!-- Node4 -->
<g id="node4" class="node">
<title>Node4</title>
<g id="a_node4"><a xlink:title=" ">
<polygon fill="none" stroke="#bfbfbf" points="56,-0.5 56,-19.5 100,-19.5 100,-0.5 56,-0.5"/>
<text text-anchor="middle" x="78" y="-7.5" font-family="Helvetica,sans-Serif" font-size="10.00">format</text>
</a>
</g>
</g>
<!-- Node2&#45;&gt;Node4 -->
<g id="edge3" class="edge">
<title>Node2&#45;&gt;Node4</title>
<path fill="none" stroke="midnightblue" d="M164.45,-56.32C148.01,-47.7 122.57,-34.36 103.53,-24.39"/>
<polygon fill="midnightblue" stroke="midnightblue" points="104.99,-21.2 94.51,-19.65 101.74,-27.4 104.99,-21.2"/>
</g>
<!-- Node5 -->
<g id="node5" class="node">
<title>Node5</title>
<g id="a_node5"><a xlink:title=" ">
<polygon fill="none" stroke="#bfbfbf" points="118,-0.5 118,-19.5 168,-19.5 168,-0.5 118,-0.5"/>
<text text-anchor="middle" x="143" y="-7.5" font-family="Helvetica,sans-Serif" font-size="10.00">optional</text>
</a>
</g>
</g>
<!-- Node2&#45;&gt;Node5 -->
<g id="edge4" class="edge">
<title>Node2&#45;&gt;Node5</title>
<path fill="none" stroke="midnightblue" d="M174.73,-56.08C169.36,-48.46 161.48,-37.26 154.92,-27.94"/>
<polygon fill="midnightblue" stroke="midnightblue" points="157.78,-25.91 149.16,-19.75 152.05,-29.94 157.78,-25.91"/>
</g>
<!-- Node6 -->
<g id="node6" class="node">
<title>Node6</title>
<g id="a_node6"><a xlink:title=" ">
<polygon fill="none" stroke="#bfbfbf" points="186,-0.5 186,-19.5 224,-19.5 224,-0.5 186,-0.5"/>
<text text-anchor="middle" x="205" y="-7.5" font-family="Helvetica,sans-Serif" font-size="10.00">span</text>
</a>
</g>
</g>
<!-- Node2&#45;&gt;Node6 -->
<g id="edge5" class="edge">
<title>Node2&#45;&gt;Node6</title>
<path fill="none" stroke="midnightblue" d="M184.96,-56.08C188.21,-48.77 192.92,-38.18 196.95,-29.1"/>
<polygon fill="midnightblue" stroke="midnightblue" points="200.25,-30.31 201.11,-19.75 193.85,-27.47 200.25,-30.31"/>
</g>
<!-- Node7 -->
<g id="node7" class="node">
<title>Node7</title>
<g id="a_node7"><a xlink:title=" ">
<polygon fill="none" stroke="#bfbfbf" points="242.5,-0.5 242.5,-19.5 283.5,-19.5 283.5,-0.5 242.5,-0.5"/>
<text text-anchor="middle" x="263" y="-7.5" font-family="Helvetica,sans-Serif" font-size="10.00">string</text>
</a>
</g>
</g>
<!-- Node2&#45;&gt;Node7 -->
<g id="edge6" class="edge">
<title>Node2&#45;&gt;Node7</title>
<path fill="none" stroke="midnightblue" d="M194.17,-56.32C206.85,-47.98 226.23,-35.21 241.21,-25.35"/>
<polygon fill="midnightblue" stroke="midnightblue" points="243.43,-28.08 249.86,-19.65 239.58,-22.23 243.43,-28.08"/>
</g>
<!-- Node9 -->
<g id="node9" class="node">
<title>Node9</title>
<g id="a_node9"><a xlink:title=" ">
<polygon fill="none" stroke="#bfbfbf" points="302,-0.5 302,-19.5 348,-19.5 348,-0.5 302,-0.5"/>
<text text-anchor="middle" x="325" y="-7.5" font-family="Helvetica,sans-Serif" font-size="10.00">chrono</text>
</a>
</g>
</g>
<!-- Node8&#45;&gt;Node9 -->
<g id="edge8" class="edge">
<title>Node8&#45;&gt;Node9</title>
<path fill="none" stroke="midnightblue" d="M345.04,-56.08C341.79,-48.77 337.08,-38.18 333.05,-29.1"/>
<polygon fill="midnightblue" stroke="midnightblue" points="336.15,-27.47 328.89,-19.75 329.75,-30.31 336.15,-27.47"/>
</g>
<!-- Node10 -->
<g id="node10" class="node">
<title>Node10</title>
<g id="a_node10"><a xlink:title=" ">
<polygon fill="none" stroke="#bfbfbf" points="366.5,-0.5 366.5,-19.5 463.5,-19.5 463.5,-0.5 366.5,-0.5"/>
<text text-anchor="middle" x="415" y="-7.5" font-family="Helvetica,sans-Serif" font-size="10.00">concurrentqueue.h</text>
</a>
</g>
</g>
<!-- Node8&#45;&gt;Node10 -->
<g id="edge9" class="edge">
<title>Node8&#45;&gt;Node10</title>
<path fill="none" stroke="midnightblue" d="M359.6,-56.32C369.46,-48.26 384.35,-36.08 396.22,-26.37"/>
<polygon fill="midnightblue" stroke="midnightblue" points="398.68,-28.88 404.2,-19.83 394.25,-23.46 398.68,-28.88"/>
</g>
<!-- Node11 -->
<g id="node11" class="node">
<title>Node11</title>
<g id="a_node11"><a xlink:title=" ">
<polygon fill="none" stroke="#bfbfbf" points="482,-0.5 482,-19.5 548,-19.5 548,-0.5 482,-0.5"/>
<text text-anchor="middle" x="515" y="-7.5" font-family="Helvetica,sans-Serif" font-size="10.00">string_view</text>
</a>
</g>
</g>
<!-- Node8&#45;&gt;Node11 -->
<g id="edge10" class="edge">
<title>Node8&#45;&gt;Node11</title>
<path fill="none" stroke="midnightblue" d="M375.3,-56.44C403.35,-47.32 447.94,-32.81 479.18,-22.65"/>
<polygon fill="midnightblue" stroke="midnightblue" points="480.39,-25.94 488.82,-19.52 478.23,-19.28 480.39,-25.94"/>
</g>
</g>
</svg>
