<?xml version="1.0" encoding="UTF-8" standalone="no"?>
<!DOCTYPE svg PUBLIC "-//W3C//DTD SVG 1.1//EN"
 "http://www.w3.org/Graphics/SVG/1.1/DTD/svg11.dtd">
<!-- Generated by graphviz version 2.43.0 (0)
 -->
<!-- Title: include/EyeAICore/Operators.hpp Pages: 1 -->
<svg width="292pt" height="84pt"
 viewBox="0.00 0.00 291.50 84.00" xmlns="http://www.w3.org/2000/svg" xmlns:xlink="http://www.w3.org/1999/xlink">
<g id="graph0" class="graph" transform="scale(1 1) rotate(0) translate(4 80)">
<title>include/EyeAICore/Operators.hpp</title>
<!-- Node1 -->
<g id="node1" class="node">
<title>Node1</title>
<g id="a_node1"><a xlink:title=" ">
<polygon fill="#bfbfbf" stroke="black" points="61.5,-56.5 61.5,-75.5 224.5,-75.5 224.5,-56.5 61.5,-56.5"/>
<text text-anchor="middle" x="143" y="-63.5" font-family="Helvetica,sans-Serif" font-size="10.00">include/EyeAICore/Operators.hpp</text>
</a>
</g>
</g>
<!-- Node2 -->
<g id="node2" class="node">
<title>Node2</title>
<g id="a_node2"><a xlink:title=" ">
<polygon fill="none" stroke="#bfbfbf" points="0,-0.5 0,-19.5 38,-19.5 38,-0.5 0,-0.5"/>
<text text-anchor="middle" x="19" y="-7.5" font-family="Helvetica,sans-Serif" font-size="10.00">array</text>
</a>
</g>
</g>
<!-- Node1&#45;&gt;Node2 -->
<g id="edge1" class="edge">
<title>Node1&#45;&gt;Node2</title>
<path fill="none" stroke="midnightblue" d="M123.35,-56.44C102.92,-47.54 70.72,-33.52 47.49,-23.41"/>
<polygon fill="midnightblue" stroke="midnightblue" points="48.71,-20.12 38.15,-19.34 45.92,-26.54 48.71,-20.12"/>
</g>
<!-- Node3 -->
<g id="node3" class="node">
<title>Node3</title>
<g id="a_node3"><a xlink:title=" ">
<polygon fill="none" stroke="#bfbfbf" points="56,-0.5 56,-19.5 100,-19.5 100,-0.5 56,-0.5"/>
<text text-anchor="middle" x="78" y="-7.5" font-family="Helvetica,sans-Serif" font-size="10.00">format</text>
</a>
</g>
</g>
<!-- Node1&#45;&gt;Node3 -->
<g id="edge2" class="edge">
<title>Node1&#45;&gt;Node3</title>
<path fill="none" stroke="midnightblue" d="M132.56,-56.32C122.85,-48.26 108.18,-36.08 96.5,-26.37"/>
<polygon fill="midnightblue" stroke="midnightblue" points="98.56,-23.53 88.63,-19.83 94.09,-28.92 98.56,-23.53"/>
</g>
<!-- Node4 -->
<g id="node4" class="node">
<title>Node4</title>
<g id="a_node4"><a xlink:title=" ">
<polygon fill="none" stroke="#bfbfbf" points="118,-0.5 118,-19.5 168,-19.5 168,-0.5 118,-0.5"/>
<text text-anchor="middle" x="143" y="-7.5" font-family="Helvetica,sans-Serif" font-size="10.00">optional</text>
</a>
</g>
</g>
<!-- Node1&#45;&gt;Node4 -->
<g id="edge3" class="edge">
<title>Node1&#45;&gt;Node4</title>
<path fill="none" stroke="midnightblue" d="M143,-56.08C143,-49.01 143,-38.86 143,-29.99"/>
<polygon fill="midnightblue" stroke="midnightblue" points="146.5,-29.75 143,-19.75 139.5,-29.75 146.5,-29.75"/>
</g>
<!-- Node5 -->
<g id="node5" class="node">
<title>Node5</title>
<g id="a_node5"><a xlink:title=" ">
<polygon fill="none" stroke="#bfbfbf" points="186,-0.5 186,-19.5 224,-19.5 224,-0.5 186,-0.5"/>
<text text-anchor="middle" x="205" y="-7.5" font-family="Helvetica,sans-Serif" font-size="10.00">span</text>
</a>
</g>
</g>
<!-- Node1&#45;&gt;Node5 -->
<g id="edge4" class="edge">
<title>Node1&#45;&gt;Node5</title>
<path fill="none" stroke="midnightblue" d="M152.96,-56.32C162.13,-48.34 175.94,-36.31 187.03,-26.65"/>
<polygon fill="midnightblue" stroke="midnightblue" points="189.62,-29.04 194.86,-19.83 185.02,-23.76 189.62,-29.04"/>
</g>
<!-- Node6 -->
<g id="node6" class="node">
<title>Node6</title>
<g id="a_node6"><a xlink:title=" ">
<polygon fill="none" stroke="#bfbfbf" points="242.5,-0.5 242.5,-19.5 283.5,-19.5 283.5,-0.5 242.5,-0.5"/>
<text text-anchor="middle" x="263" y="-7.5" font-family="Helvetica,sans-Serif" font-size="10.00">string</text>
</a>
</g>
</g>
<!-- Node1&#45;&gt;Node6 -->
<g id="edge5" class="edge">
<title>Node1&#45;&gt;Node6</title>
<path fill="none" stroke="midnightblue" d="M162.01,-56.44C181.59,-47.64 212.31,-33.81 234.73,-23.72"/>
<polygon fill="midnightblue" stroke="midnightblue" points="236.39,-26.81 244.07,-19.52 233.52,-20.43 236.39,-26.81"/>
</g>
</g>
</svg>
