<?xml version="1.0" encoding="UTF-8" standalone="no"?>
<!DOCTYPE svg PUBLIC "-//W3C//DTD SVG 1.1//EN"
 "http://www.w3.org/Graphics/SVG/1.1/DTD/svg11.dtd">
<!-- Generated by graphviz version 2.43.0 (0)
 -->
<!-- Title: include/EyeAICore/Operators.hpp Pages: 1 -->
<svg width="437pt" height="274pt"
 viewBox="0.00 0.00 436.50 274.00" xmlns="http://www.w3.org/2000/svg" xmlns:xlink="http://www.w3.org/1999/xlink">
<g id="graph0" class="graph" transform="scale(1 1) rotate(0) translate(4 270)">
<title>include/EyeAICore/Operators.hpp</title>
<!-- Node1 -->
<g id="node1" class="node">
<title>Node1</title>
<g id="a_node1"><a xlink:title=" ">
<polygon fill="#bfbfbf" stroke="black" points="129.5,-246.5 129.5,-265.5 292.5,-265.5 292.5,-246.5 129.5,-246.5"/>
<text text-anchor="middle" x="211" y="-253.5" font-family="Helvetica,sans-Serif" font-size="10.00">include/EyeAICore/Operators.hpp</text>
</a>
</g>
</g>
<!-- Node2 -->
<g id="node2" class="node">
<title>Node2</title>
<g id="a_node2"><a xlink:href="TfLiteRuntime_8hpp.html" target="_top" xlink:title=" ">
<polygon fill="none" stroke="black" points="107,-112.5 107,-142.5 227,-142.5 227,-112.5 107,-112.5"/>
<text text-anchor="start" x="115" y="-130.5" font-family="Helvetica,sans-Serif" font-size="10.00">include/EyeAICore/tflite</text>
<text text-anchor="middle" x="167" y="-119.5" font-family="Helvetica,sans-Serif" font-size="10.00">/TfLiteRuntime.hpp</text>
</a>
</g>
</g>
<!-- Node1&#45;&gt;Node2 -->
<g id="edge1" class="edge">
<title>Node1&#45;&gt;Node2</title>
<path fill="none" stroke="midnightblue" d="M199.97,-237.81C195.12,-229.64 189.7,-219.59 186,-210 177.22,-187.23 171.78,-159.24 169.08,-142.7"/>
<polygon fill="midnightblue" stroke="midnightblue" points="197.03,-239.72 205.26,-246.39 202.99,-236.04 197.03,-239.72"/>
</g>
<!-- Node4 -->
<g id="node4" class="node">
<title>Node4</title>
<g id="a_node4"><a xlink:href="DepthModel_8cpp.html" target="_top" xlink:title=" ">
<polygon fill="none" stroke="black" points="0,-0.5 0,-19.5 104,-19.5 104,-0.5 0,-0.5"/>
<text text-anchor="middle" x="52" y="-7.5" font-family="Helvetica,sans-Serif" font-size="10.00">src/DepthModel.cpp</text>
</a>
</g>
</g>
<!-- Node1&#45;&gt;Node4 -->
<g id="edge10" class="edge">
<title>Node1&#45;&gt;Node4</title>
<path fill="none" stroke="midnightblue" d="M190.3,-240.18C154.12,-212.75 80.97,-150.07 57,-76 50.73,-56.62 50.8,-32.36 51.4,-19.66"/>
<polygon fill="midnightblue" stroke="midnightblue" points="188.53,-243.23 198.65,-246.38 192.7,-237.61 188.53,-243.23"/>
</g>
<!-- Node6 -->
<g id="node6" class="node">
<title>Node6</title>
<g id="a_node6"><a xlink:href="TfLiteUtils_8hpp.html" target="_top" xlink:title=" ">
<polygon fill="none" stroke="black" points="195,-179.5 195,-209.5 315,-209.5 315,-179.5 195,-179.5"/>
<text text-anchor="start" x="203" y="-197.5" font-family="Helvetica,sans-Serif" font-size="10.00">include/EyeAICore/tflite</text>
<text text-anchor="middle" x="255" y="-186.5" font-family="Helvetica,sans-Serif" font-size="10.00">/TfLiteUtils.hpp</text>
</a>
</g>
</g>
<!-- Node1&#45;&gt;Node6 -->
<g id="edge6" class="edge">
<title>Node1&#45;&gt;Node6</title>
<path fill="none" stroke="midnightblue" d="M223.39,-238.25C230.09,-229.19 238.27,-218.12 244.63,-209.52"/>
<polygon fill="midnightblue" stroke="midnightblue" points="220.44,-236.35 217.3,-246.48 226.06,-240.52 220.44,-236.35"/>
</g>
<!-- Node8 -->
<g id="node8" class="node">
<title>Node8</title>
<g id="a_node8"><a xlink:href="Operators_8cpp.html" target="_top" xlink:title=" ">
<polygon fill="none" stroke="black" points="333.5,-185 333.5,-204 428.5,-204 428.5,-185 333.5,-185"/>
<text text-anchor="middle" x="381" y="-192" font-family="Helvetica,sans-Serif" font-size="10.00">src/Operators.cpp</text>
</a>
</g>
</g>
<!-- Node1&#45;&gt;Node8 -->
<g id="edge11" class="edge">
<title>Node1&#45;&gt;Node8</title>
<path fill="none" stroke="midnightblue" d="M245.05,-243.08C278.09,-231.52 327.42,-214.25 356.69,-204.01"/>
<polygon fill="midnightblue" stroke="midnightblue" points="243.64,-239.87 235.36,-246.48 245.95,-246.48 243.64,-239.87"/>
</g>
<!-- Node3 -->
<g id="node3" class="node">
<title>Node3</title>
<g id="a_node3"><a xlink:href="DepthModel_8hpp.html" target="_top" xlink:title=" ">
<polygon fill="none" stroke="black" points="80.5,-56.5 80.5,-75.5 253.5,-75.5 253.5,-56.5 80.5,-56.5"/>
<text text-anchor="middle" x="167" y="-63.5" font-family="Helvetica,sans-Serif" font-size="10.00">include/EyeAICore/DepthModel.hpp</text>
</a>
</g>
</g>
<!-- Node2&#45;&gt;Node3 -->
<g id="edge2" class="edge">
<title>Node2&#45;&gt;Node3</title>
<path fill="none" stroke="midnightblue" d="M167,-102.29C167,-92.86 167,-82.65 167,-75.66"/>
<polygon fill="midnightblue" stroke="midnightblue" points="163.5,-102.4 167,-112.4 170.5,-102.4 163.5,-102.4"/>
</g>
<!-- Node2&#45;&gt;Node4 -->
<g id="edge4" class="edge">
<title>Node2&#45;&gt;Node4</title>
<path fill="none" stroke="midnightblue" d="M114.44,-108.21C98.57,-100.44 82.36,-89.89 71,-76 57.31,-59.25 53.48,-33 52.41,-19.56"/>
<polygon fill="midnightblue" stroke="midnightblue" points="113.15,-111.47 123.7,-112.46 116.07,-105.11 113.15,-111.47"/>
</g>
<!-- Node5 -->
<g id="node5" class="node">
<title>Node5</title>
<g id="a_node5"><a xlink:href="TfLiteRuntime_8cpp.html" target="_top" xlink:title=" ">
<polygon fill="none" stroke="black" points="271.5,-56.5 271.5,-75.5 406.5,-75.5 406.5,-56.5 271.5,-56.5"/>
<text text-anchor="middle" x="339" y="-63.5" font-family="Helvetica,sans-Serif" font-size="10.00">src/tflite/TfLiteRuntime.cpp</text>
</a>
</g>
</g>
<!-- Node2&#45;&gt;Node5 -->
<g id="edge5" class="edge">
<title>Node2&#45;&gt;Node5</title>
<path fill="none" stroke="midnightblue" d="M217.37,-109.08C249.23,-98.05 289.01,-84.29 314.22,-75.57"/>
<polygon fill="midnightblue" stroke="midnightblue" points="216.07,-105.82 207.76,-112.4 218.36,-112.44 216.07,-105.82"/>
</g>
<!-- Node3&#45;&gt;Node4 -->
<g id="edge3" class="edge">
<title>Node3&#45;&gt;Node4</title>
<path fill="none" stroke="midnightblue" d="M139.52,-52.1C118.03,-42.01 88.78,-28.27 70.14,-19.52"/>
<polygon fill="midnightblue" stroke="midnightblue" points="138.24,-55.36 148.78,-56.44 141.21,-49.02 138.24,-55.36"/>
</g>
<!-- Node6&#45;&gt;Node2 -->
<g id="edge7" class="edge">
<title>Node6&#45;&gt;Node2</title>
<path fill="none" stroke="midnightblue" d="M227.86,-173.45C214.32,-163.45 198.27,-151.6 186.06,-142.58"/>
<polygon fill="midnightblue" stroke="midnightblue" points="225.78,-176.27 235.91,-179.4 229.94,-170.64 225.78,-176.27"/>
</g>
<!-- Node6&#45;&gt;Node5 -->
<g id="edge8" class="edge">
<title>Node6&#45;&gt;Node5</title>
<path fill="none" stroke="midnightblue" d="M256.5,-168.94C258.57,-151.73 263.47,-128.88 275,-112 286.26,-95.51 305.69,-83.12 320.2,-75.56"/>
<polygon fill="midnightblue" stroke="midnightblue" points="252.97,-169.03 255.5,-179.32 259.94,-169.7 252.97,-169.03"/>
</g>
<!-- Node7 -->
<g id="node7" class="node">
<title>Node7</title>
<g id="a_node7"><a xlink:href="TfLiteUtils_8cpp.html" target="_top" xlink:title=" ">
<polygon fill="none" stroke="black" points="283.5,-118 283.5,-137 402.5,-137 402.5,-118 283.5,-118"/>
<text text-anchor="middle" x="343" y="-125" font-family="Helvetica,sans-Serif" font-size="10.00">src/tflite/TfLiteUtils.cpp</text>
</a>
</g>
</g>
<!-- Node6&#45;&gt;Node7 -->
<g id="edge9" class="edge">
<title>Node6&#45;&gt;Node7</title>
<path fill="none" stroke="midnightblue" d="M282.34,-173.31C298.86,-161.1 319.07,-146.18 331.48,-137.01"/>
<polygon fill="midnightblue" stroke="midnightblue" points="280.06,-170.64 274.09,-179.4 284.22,-176.27 280.06,-170.64"/>
</g>
</g>
</svg>
