<?xml version="1.0" encoding="UTF-8" standalone="no"?>
<!DOCTYPE svg PUBLIC "-//W3C//DTD SVG 1.1//EN"
 "http://www.w3.org/Graphics/SVG/1.1/DTD/svg11.dtd">
<!-- Generated by graphviz version 2.43.0 (0)
 -->
<!-- Title: include/EyeAICore/tflite/TfLiteUtils.hpp Pages: 1 -->
<svg width="451pt" height="218pt"
 viewBox="0.00 0.00 451.00 218.00" xmlns="http://www.w3.org/2000/svg" xmlns:xlink="http://www.w3.org/1999/xlink">
<g id="graph0" class="graph" transform="scale(1 1) rotate(0) translate(4 214)">
<title>include/EyeAICore/tflite/TfLiteUtils.hpp</title>
<!-- Node1 -->
<g id="node1" class="node">
<title>Node1</title>
<g id="a_node1"><a xlink:title=" ">
<polygon fill="#bfbfbf" stroke="black" points="235.5,-179.5 235.5,-209.5 355.5,-209.5 355.5,-179.5 235.5,-179.5"/>
<text text-anchor="start" x="243.5" y="-197.5" font-family="Helvetica,sans-Serif" font-size="10.00">include/EyeAICore/tflite</text>
<text text-anchor="middle" x="295.5" y="-186.5" font-family="Helvetica,sans-Serif" font-size="10.00">/TfLiteUtils.hpp</text>
</a>
</g>
</g>
<!-- Node2 -->
<g id="node2" class="node">
<title>Node2</title>
<g id="a_node2"><a xlink:href="TfLiteRuntime_8hpp.html" target="_top" xlink:title=" ">
<polygon fill="none" stroke="black" points="145.5,-112.5 145.5,-142.5 265.5,-142.5 265.5,-112.5 145.5,-112.5"/>
<text text-anchor="start" x="153.5" y="-130.5" font-family="Helvetica,sans-Serif" font-size="10.00">include/EyeAICore/tflite</text>
<text text-anchor="middle" x="205.5" y="-119.5" font-family="Helvetica,sans-Serif" font-size="10.00">/TfLiteRuntime.hpp</text>
</a>
</g>
</g>
<!-- Node1&#45;&gt;Node2 -->
<g id="edge1" class="edge">
<title>Node1&#45;&gt;Node2</title>
<path fill="none" stroke="midnightblue" d="M267.74,-173.45C253.89,-163.45 237.48,-151.6 224.99,-142.58"/>
<polygon fill="midnightblue" stroke="midnightblue" points="265.82,-176.38 275.97,-179.4 269.91,-170.7 265.82,-176.38"/>
</g>
<!-- Node5 -->
<g id="node5" class="node">
<title>Node5</title>
<g id="a_node5"><a xlink:href="TfLiteRuntime_8cpp.html" target="_top" xlink:title=" ">
<polygon fill="none" stroke="black" points="230,-56.5 230,-75.5 365,-75.5 365,-56.5 230,-56.5"/>
<text text-anchor="middle" x="297.5" y="-63.5" font-family="Helvetica,sans-Serif" font-size="10.00">src/tflite/TfLiteRuntime.cpp</text>
</a>
</g>
</g>
<!-- Node1&#45;&gt;Node5 -->
<g id="edge6" class="edge">
<title>Node1&#45;&gt;Node5</title>
<path fill="none" stroke="midnightblue" d="M295.89,-169.14C296.34,-140.62 297.06,-94.86 297.36,-75.79"/>
<polygon fill="midnightblue" stroke="midnightblue" points="292.38,-169.42 295.72,-179.48 299.38,-169.54 292.38,-169.42"/>
</g>
<!-- Node6 -->
<g id="node6" class="node">
<title>Node6</title>
<g id="a_node6"><a xlink:href="TfLiteUtils_8cpp.html" target="_top" xlink:title=" ">
<polygon fill="none" stroke="black" points="324,-118 324,-137 443,-137 443,-118 324,-118"/>
<text text-anchor="middle" x="383.5" y="-125" font-family="Helvetica,sans-Serif" font-size="10.00">src/tflite/TfLiteUtils.cpp</text>
</a>
</g>
</g>
<!-- Node1&#45;&gt;Node6 -->
<g id="edge7" class="edge">
<title>Node1&#45;&gt;Node6</title>
<path fill="none" stroke="midnightblue" d="M322.84,-173.31C339.36,-161.1 359.57,-146.18 371.98,-137.01"/>
<polygon fill="midnightblue" stroke="midnightblue" points="320.56,-170.64 314.59,-179.4 324.72,-176.27 320.56,-170.64"/>
</g>
<!-- Node3 -->
<g id="node3" class="node">
<title>Node3</title>
<g id="a_node3"><a xlink:href="DepthModel_8hpp.html" target="_top" xlink:title=" ">
<polygon fill="none" stroke="black" points="0,-56.5 0,-75.5 173,-75.5 173,-56.5 0,-56.5"/>
<text text-anchor="middle" x="86.5" y="-63.5" font-family="Helvetica,sans-Serif" font-size="10.00">include/EyeAICore/DepthModel.hpp</text>
</a>
</g>
</g>
<!-- Node2&#45;&gt;Node3 -->
<g id="edge2" class="edge">
<title>Node2&#45;&gt;Node3</title>
<path fill="none" stroke="midnightblue" d="M168.09,-107.8C146.59,-97.04 120.59,-84.05 103.82,-75.66"/>
<polygon fill="midnightblue" stroke="midnightblue" points="166.79,-111.06 177.3,-112.4 169.92,-104.8 166.79,-111.06"/>
</g>
<!-- Node4 -->
<g id="node4" class="node">
<title>Node4</title>
<g id="a_node4"><a xlink:href="DepthModel_8cpp.html" target="_top" xlink:title=" ">
<polygon fill="none" stroke="black" points="91.5,-0.5 91.5,-19.5 195.5,-19.5 195.5,-0.5 91.5,-0.5"/>
<text text-anchor="middle" x="143.5" y="-7.5" font-family="Helvetica,sans-Serif" font-size="10.00">src/DepthModel.cpp</text>
</a>
</g>
</g>
<!-- Node2&#45;&gt;Node4 -->
<g id="edge4" class="edge">
<title>Node2&#45;&gt;Node4</title>
<path fill="none" stroke="midnightblue" d="M199.71,-102.41C195.75,-88.33 189.72,-70.53 181.5,-56 173.55,-41.94 160.94,-28.09 152.45,-19.55"/>
<polygon fill="midnightblue" stroke="midnightblue" points="196.4,-103.57 202.34,-112.34 203.16,-101.78 196.4,-103.57"/>
</g>
<!-- Node2&#45;&gt;Node5 -->
<g id="edge5" class="edge">
<title>Node2&#45;&gt;Node5</title>
<path fill="none" stroke="midnightblue" d="M236,-106.78C252.3,-96.23 271.55,-83.78 284.11,-75.66"/>
<polygon fill="midnightblue" stroke="midnightblue" points="233.8,-104.03 227.3,-112.4 237.6,-109.91 233.8,-104.03"/>
</g>
<!-- Node3&#45;&gt;Node4 -->
<g id="edge3" class="edge">
<title>Node3&#45;&gt;Node4</title>
<path fill="none" stroke="midnightblue" d="M103.12,-49.25C113.23,-39.67 125.78,-27.79 134.18,-19.83"/>
<polygon fill="midnightblue" stroke="midnightblue" points="100.51,-46.91 95.66,-56.32 105.32,-51.99 100.51,-46.91"/>
</g>
</g>
</svg>
