<?xml version="1.0" encoding="UTF-8" standalone="no"?>
<!DOCTYPE svg PUBLIC "-//W3C//DTD SVG 1.1//EN"
 "http://www.w3.org/Graphics/SVG/1.1/DTD/svg11.dtd">
<!-- Generated by graphviz version 2.43.0 (0)
 -->
<!-- Title: src/tflite/TfLiteUtils.cpp Pages: 1 -->
<svg width="930pt" height="207pt"
 viewBox="0.00 0.00 930.11 207.00" xmlns="http://www.w3.org/2000/svg" xmlns:xlink="http://www.w3.org/1999/xlink">
<g id="graph0" class="graph" transform="scale(1 1) rotate(0) translate(4 203)">
<title>src/tflite/TfLiteUtils.cpp</title>
<!-- Node1 -->
<g id="node1" class="node">
<title>Node1</title>
<g id="a_node1"><a xlink:title=" ">
<polygon fill="#bfbfbf" stroke="black" points="469.11,-179.5 469.11,-198.5 588.11,-198.5 588.11,-179.5 469.11,-179.5"/>
<text text-anchor="middle" x="528.61" y="-186.5" font-family="Helvetica,sans-Serif" font-size="10.00">src/tflite/TfLiteUtils.cpp</text>
</a>
</g>
</g>
<!-- Node2 -->
<g id="node2" class="node">
<title>Node2</title>
<g id="a_node2"><a xlink:href="TfLiteUtils_8hpp.html" target="_top" xlink:title=" ">
<polygon fill="none" stroke="black" points="272.11,-123.5 272.11,-142.5 425.11,-142.5 425.11,-123.5 272.11,-123.5"/>
<text text-anchor="middle" x="348.61" y="-130.5" font-family="Helvetica,sans-Serif" font-size="10.00">EyeAICore/tflite/TfLiteUtils.hpp</text>
</a>
</g>
</g>
<!-- Node1&#45;&gt;Node2 -->
<g id="edge1" class="edge">
<title>Node1&#45;&gt;Node2</title>
<path fill="none" stroke="midnightblue" d="M500.09,-179.44C469.55,-170.28 420.9,-155.69 387.01,-145.52"/>
<polygon fill="midnightblue" stroke="midnightblue" points="387.58,-142.04 377,-142.52 385.57,-148.74 387.58,-142.04"/>
</g>
<!-- Node16 -->
<g id="node16" class="node">
<title>Node16</title>
<g id="a_node16"><a xlink:href="Profiling_8hpp.html" target="_top" xlink:title=" ">
<polygon fill="none" stroke="black" points="675.11,-123.5 675.11,-142.5 818.11,-142.5 818.11,-123.5 675.11,-123.5"/>
<text text-anchor="middle" x="746.61" y="-130.5" font-family="Helvetica,sans-Serif" font-size="10.00">EyeAICore/utils/Profiling.hpp</text>
</a>
</g>
</g>
<!-- Node1&#45;&gt;Node16 -->
<g id="edge19" class="edge">
<title>Node1&#45;&gt;Node16</title>
<path fill="none" stroke="midnightblue" d="M563.15,-179.44C600.87,-170.1 661.35,-155.12 702.48,-144.93"/>
<polygon fill="midnightblue" stroke="midnightblue" points="703.37,-148.32 712.23,-142.52 701.68,-141.52 703.37,-148.32"/>
</g>
<!-- Node3 -->
<g id="node3" class="node">
<title>Node3</title>
<g id="a_node3"><a xlink:href="Operators_8hpp.html" target="_top" xlink:title=" ">
<polygon fill="none" stroke="black" points="377.11,-62 377.11,-81 506.11,-81 506.11,-62 377.11,-62"/>
<text text-anchor="middle" x="441.61" y="-69" font-family="Helvetica,sans-Serif" font-size="10.00">EyeAICore/Operators.hpp</text>
</a>
</g>
</g>
<!-- Node2&#45;&gt;Node3 -->
<g id="edge2" class="edge">
<title>Node2&#45;&gt;Node3</title>
<path fill="none" stroke="midnightblue" d="M361.94,-123.48C376.99,-113.84 401.73,-98.02 419.65,-86.55"/>
<polygon fill="midnightblue" stroke="midnightblue" points="421.77,-89.35 428.31,-81.01 418,-83.45 421.77,-89.35"/>
</g>
<!-- Node6 -->
<g id="node6" class="node">
<title>Node6</title>
<g id="a_node6"><a xlink:title=" ">
<polygon fill="none" stroke="#bfbfbf" points="323.61,-0.5 323.61,-19.5 373.61,-19.5 373.61,-0.5 323.61,-0.5"/>
<text text-anchor="middle" x="348.61" y="-7.5" font-family="Helvetica,sans-Serif" font-size="10.00">optional</text>
</a>
</g>
</g>
<!-- Node2&#45;&gt;Node6 -->
<g id="edge14" class="edge">
<title>Node2&#45;&gt;Node6</title>
<path fill="none" stroke="midnightblue" d="M348.61,-123.3C348.61,-103.85 348.61,-56.49 348.61,-29.9"/>
<polygon fill="midnightblue" stroke="midnightblue" points="352.11,-29.62 348.61,-19.62 345.11,-29.62 352.11,-29.62"/>
</g>
<!-- Node7 -->
<g id="node7" class="node">
<title>Node7</title>
<g id="a_node7"><a xlink:title=" ">
<polygon fill="none" stroke="#bfbfbf" points="118.61,-0.5 118.61,-19.5 156.61,-19.5 156.61,-0.5 118.61,-0.5"/>
<text text-anchor="middle" x="137.61" y="-7.5" font-family="Helvetica,sans-Serif" font-size="10.00">span</text>
</a>
</g>
</g>
<!-- Node2&#45;&gt;Node7 -->
<g id="edge15" class="edge">
<title>Node2&#45;&gt;Node7</title>
<path fill="none" stroke="midnightblue" d="M271.75,-127.15C176.55,-120.34 24.76,-106.56 7.61,-87 -24.83,-49.99 60.75,-26.31 108.31,-16.37"/>
<polygon fill="midnightblue" stroke="midnightblue" points="109.26,-19.75 118.38,-14.35 107.89,-12.89 109.26,-19.75"/>
</g>
<!-- Node9 -->
<g id="node9" class="node">
<title>Node9</title>
<g id="a_node9"><a xlink:href="Errors_8hpp.html" target="_top" xlink:title=" ">
<polygon fill="none" stroke="black" points="524.61,-62 524.61,-81 658.61,-81 658.61,-62 524.61,-62"/>
<text text-anchor="middle" x="591.61" y="-69" font-family="Helvetica,sans-Serif" font-size="10.00">EyeAICore/utils/Errors.hpp</text>
</a>
</g>
</g>
<!-- Node2&#45;&gt;Node9 -->
<g id="edge8" class="edge">
<title>Node2&#45;&gt;Node9</title>
<path fill="none" stroke="midnightblue" d="M383.43,-123.48C426.46,-112.94 499.78,-94.99 546.93,-83.44"/>
<polygon fill="midnightblue" stroke="midnightblue" points="547.98,-86.79 556.86,-81.01 546.31,-79.99 547.98,-86.79"/>
</g>
<!-- Node12 -->
<g id="node12" class="node">
<title>Node12</title>
<g id="a_node12"><a xlink:title=" ">
<polygon fill="none" stroke="#bfbfbf" points="16.61,-62 16.61,-81 68.61,-81 68.61,-62 16.61,-62"/>
<text text-anchor="middle" x="42.61" y="-69" font-family="Helvetica,sans-Serif" font-size="10.00">memory</text>
</a>
</g>
</g>
<!-- Node2&#45;&gt;Node12 -->
<g id="edge13" class="edge">
<title>Node2&#45;&gt;Node12</title>
<path fill="none" stroke="midnightblue" d="M271.95,-124C217.1,-117.14 141.92,-105.4 77.61,-87 75.32,-86.34 72.97,-85.58 70.63,-84.76"/>
<polygon fill="midnightblue" stroke="midnightblue" points="71.81,-81.46 61.22,-81.13 69.29,-87.99 71.81,-81.46"/>
</g>
<!-- Node13 -->
<g id="node13" class="node">
<title>Node13</title>
<g id="a_node13"><a xlink:title=" ">
<polygon fill="none" stroke="#bfbfbf" points="676.61,-62 676.61,-81 742.61,-81 742.61,-62 676.61,-62"/>
<text text-anchor="middle" x="709.61" y="-69" font-family="Helvetica,sans-Serif" font-size="10.00">string_view</text>
</a>
</g>
</g>
<!-- Node2&#45;&gt;Node13 -->
<g id="edge16" class="edge">
<title>Node2&#45;&gt;Node13</title>
<path fill="none" stroke="midnightblue" d="M425.12,-125.38C490.23,-118.75 585.91,-106.67 667.61,-87 670.84,-86.22 674.16,-85.3 677.47,-84.3"/>
<polygon fill="midnightblue" stroke="midnightblue" points="678.75,-87.56 687.18,-81.14 676.59,-80.9 678.75,-87.56"/>
</g>
<!-- Node14 -->
<g id="node14" class="node">
<title>Node14</title>
<g id="a_node14"><a xlink:title=" ">
<polygon fill="none" stroke="#bfbfbf" points="86.61,-56.5 86.61,-86.5 180.61,-86.5 180.61,-56.5 86.61,-56.5"/>
<text text-anchor="start" x="94.61" y="-74.5" font-family="Helvetica,sans-Serif" font-size="10.00">tensorflow/lite/c/c</text>
<text text-anchor="middle" x="133.61" y="-63.5" font-family="Helvetica,sans-Serif" font-size="10.00">_api.h</text>
</a>
</g>
</g>
<!-- Node2&#45;&gt;Node14 -->
<g id="edge17" class="edge">
<title>Node2&#45;&gt;Node14</title>
<path fill="none" stroke="midnightblue" d="M317.81,-123.48C284.77,-114.33 231.56,-99.61 190.81,-88.33"/>
<polygon fill="midnightblue" stroke="midnightblue" points="191.57,-84.91 181,-85.62 189.71,-91.66 191.57,-84.91"/>
</g>
<!-- Node15 -->
<g id="node15" class="node">
<title>Node15</title>
<g id="a_node15"><a xlink:title=" ">
<polygon fill="none" stroke="#bfbfbf" points="198.61,-56.5 198.61,-86.5 320.61,-86.5 320.61,-56.5 198.61,-56.5"/>
<text text-anchor="start" x="206.61" y="-74.5" font-family="Helvetica,sans-Serif" font-size="10.00">tensorflow/lite/delegates</text>
<text text-anchor="middle" x="259.61" y="-63.5" font-family="Helvetica,sans-Serif" font-size="10.00">/gpu/delegate.h</text>
</a>
</g>
</g>
<!-- Node2&#45;&gt;Node15 -->
<g id="edge18" class="edge">
<title>Node2&#45;&gt;Node15</title>
<path fill="none" stroke="midnightblue" d="M335.86,-123.48C323.69,-115.34 304.92,-102.79 289.05,-92.18"/>
<polygon fill="midnightblue" stroke="midnightblue" points="290.85,-89.17 280.59,-86.52 286.96,-94.99 290.85,-89.17"/>
</g>
<!-- Node4 -->
<g id="node4" class="node">
<title>Node4</title>
<g id="a_node4"><a xlink:title=" ">
<polygon fill="none" stroke="#bfbfbf" points="391.61,-0.5 391.61,-19.5 429.61,-19.5 429.61,-0.5 391.61,-0.5"/>
<text text-anchor="middle" x="410.61" y="-7.5" font-family="Helvetica,sans-Serif" font-size="10.00">array</text>
</a>
</g>
</g>
<!-- Node3&#45;&gt;Node4 -->
<g id="edge3" class="edge">
<title>Node3&#45;&gt;Node4</title>
<path fill="none" stroke="midnightblue" d="M437.17,-61.98C432.66,-53.32 425.54,-39.65 419.81,-28.65"/>
<polygon fill="midnightblue" stroke="midnightblue" points="422.77,-26.76 415.04,-19.51 416.56,-29.99 422.77,-26.76"/>
</g>
<!-- Node5 -->
<g id="node5" class="node">
<title>Node5</title>
<g id="a_node5"><a xlink:title=" ">
<polygon fill="none" stroke="#bfbfbf" points="447.61,-0.5 447.61,-19.5 491.61,-19.5 491.61,-0.5 447.61,-0.5"/>
<text text-anchor="middle" x="469.61" y="-7.5" font-family="Helvetica,sans-Serif" font-size="10.00">format</text>
</a>
</g>
</g>
<!-- Node3&#45;&gt;Node5 -->
<g id="edge4" class="edge">
<title>Node3&#45;&gt;Node5</title>
<path fill="none" stroke="midnightblue" d="M445.62,-61.98C449.7,-53.32 456.13,-39.65 461.31,-28.65"/>
<polygon fill="midnightblue" stroke="midnightblue" points="464.52,-30.05 465.61,-19.51 458.18,-27.07 464.52,-30.05"/>
</g>
<!-- Node3&#45;&gt;Node6 -->
<g id="edge5" class="edge">
<title>Node3&#45;&gt;Node6</title>
<path fill="none" stroke="midnightblue" d="M428.29,-61.98C413.23,-52.34 388.5,-36.52 370.57,-25.05"/>
<polygon fill="midnightblue" stroke="midnightblue" points="372.22,-21.95 361.91,-19.51 368.45,-27.85 372.22,-21.95"/>
</g>
<!-- Node3&#45;&gt;Node7 -->
<g id="edge6" class="edge">
<title>Node3&#45;&gt;Node7</title>
<path fill="none" stroke="midnightblue" d="M398.06,-61.98C335.1,-49.65 220.37,-27.2 166.72,-16.7"/>
<polygon fill="midnightblue" stroke="midnightblue" points="167.33,-13.25 156.84,-14.76 165.98,-20.12 167.33,-13.25"/>
</g>
<!-- Node8 -->
<g id="node8" class="node">
<title>Node8</title>
<g id="a_node8"><a xlink:title=" ">
<polygon fill="none" stroke="#bfbfbf" points="510.11,-0.5 510.11,-19.5 551.11,-19.5 551.11,-0.5 510.11,-0.5"/>
<text text-anchor="middle" x="530.61" y="-7.5" font-family="Helvetica,sans-Serif" font-size="10.00">string</text>
</a>
</g>
</g>
<!-- Node3&#45;&gt;Node8 -->
<g id="edge7" class="edge">
<title>Node3&#45;&gt;Node8</title>
<path fill="none" stroke="midnightblue" d="M454.36,-61.98C468.64,-52.43 492.01,-36.81 509.12,-25.37"/>
<polygon fill="midnightblue" stroke="midnightblue" points="511.52,-27.98 517.88,-19.51 507.63,-22.16 511.52,-27.98"/>
</g>
<!-- Node9&#45;&gt;Node5 -->
<g id="edge9" class="edge">
<title>Node9&#45;&gt;Node5</title>
<path fill="none" stroke="midnightblue" d="M574.13,-61.98C553.75,-52.03 519.84,-35.49 496.19,-23.96"/>
<polygon fill="midnightblue" stroke="midnightblue" points="497.58,-20.75 487.06,-19.51 494.51,-27.04 497.58,-20.75"/>
</g>
<!-- Node9&#45;&gt;Node8 -->
<g id="edge10" class="edge">
<title>Node9&#45;&gt;Node8</title>
<path fill="none" stroke="midnightblue" d="M582.87,-61.98C573.45,-52.78 558.25,-37.96 546.66,-26.66"/>
<polygon fill="midnightblue" stroke="midnightblue" points="548.94,-23.99 539.34,-19.51 544.05,-29 548.94,-23.99"/>
</g>
<!-- Node10 -->
<g id="node10" class="node">
<title>Node10</title>
<g id="a_node10"><a xlink:title=" ">
<polygon fill="none" stroke="#bfbfbf" points="634.11,-0.5 634.11,-19.5 717.11,-19.5 717.11,-0.5 634.11,-0.5"/>
<text text-anchor="middle" x="675.61" y="-7.5" font-family="Helvetica,sans-Serif" font-size="10.00">tl/expected.hpp</text>
</a>
</g>
</g>
<!-- Node9&#45;&gt;Node10 -->
<g id="edge11" class="edge">
<title>Node9&#45;&gt;Node10</title>
<path fill="none" stroke="midnightblue" d="M603.65,-61.98C617.12,-52.43 639.18,-36.81 655.33,-25.37"/>
<polygon fill="midnightblue" stroke="midnightblue" points="657.46,-28.15 663.6,-19.51 653.42,-22.43 657.46,-28.15"/>
</g>
<!-- Node11 -->
<g id="node11" class="node">
<title>Node11</title>
<g id="a_node11"><a xlink:title=" ">
<polygon fill="none" stroke="#bfbfbf" points="569.61,-0.5 569.61,-19.5 615.61,-19.5 615.61,-0.5 569.61,-0.5"/>
<text text-anchor="middle" x="592.61" y="-7.5" font-family="Helvetica,sans-Serif" font-size="10.00">variant</text>
</a>
</g>
</g>
<!-- Node9&#45;&gt;Node11 -->
<g id="edge12" class="edge">
<title>Node9&#45;&gt;Node11</title>
<path fill="none" stroke="midnightblue" d="M591.75,-61.98C591.9,-53.58 592.12,-40.48 592.3,-29.66"/>
<polygon fill="midnightblue" stroke="midnightblue" points="595.8,-29.57 592.47,-19.51 588.8,-29.45 595.8,-29.57"/>
</g>
<!-- Node16&#45;&gt;Node13 -->
<g id="edge22" class="edge">
<title>Node16&#45;&gt;Node13</title>
<path fill="none" stroke="midnightblue" d="M741.31,-123.48C735.87,-114.73 727.25,-100.87 720.38,-89.81"/>
<polygon fill="midnightblue" stroke="midnightblue" points="723.16,-87.65 714.9,-81.01 717.21,-91.35 723.16,-87.65"/>
</g>
<!-- Node17 -->
<g id="node17" class="node">
<title>Node17</title>
<g id="a_node17"><a xlink:title=" ">
<polygon fill="none" stroke="#bfbfbf" points="760.61,-62 760.61,-81 806.61,-81 806.61,-62 760.61,-62"/>
<text text-anchor="middle" x="783.61" y="-69" font-family="Helvetica,sans-Serif" font-size="10.00">chrono</text>
</a>
</g>
</g>
<!-- Node16&#45;&gt;Node17 -->
<g id="edge20" class="edge">
<title>Node16&#45;&gt;Node17</title>
<path fill="none" stroke="midnightblue" d="M751.91,-123.48C757.35,-114.73 765.97,-100.87 772.85,-89.81"/>
<polygon fill="midnightblue" stroke="midnightblue" points="776.01,-91.35 778.32,-81.01 770.07,-87.65 776.01,-91.35"/>
</g>
<!-- Node18 -->
<g id="node18" class="node">
<title>Node18</title>
<g id="a_node18"><a xlink:title=" ">
<polygon fill="none" stroke="#bfbfbf" points="825.11,-62 825.11,-81 922.11,-81 922.11,-62 825.11,-62"/>
<text text-anchor="middle" x="873.61" y="-69" font-family="Helvetica,sans-Serif" font-size="10.00">concurrentqueue.h</text>
</a>
</g>
</g>
<!-- Node16&#45;&gt;Node18 -->
<g id="edge21" class="edge">
<title>Node16&#45;&gt;Node18</title>
<path fill="none" stroke="midnightblue" d="M764.81,-123.48C786.12,-113.49 821.64,-96.85 846.27,-85.31"/>
<polygon fill="midnightblue" stroke="midnightblue" points="847.88,-88.42 855.45,-81.01 844.91,-82.08 847.88,-88.42"/>
</g>
</g>
</svg>
