<?xml version="1.0" encoding="UTF-8" standalone="no"?>
<!DOCTYPE svg PUBLIC "-//W3C//DTD SVG 1.1//EN"
 "http://www.w3.org/Graphics/SVG/1.1/DTD/svg11.dtd">
<!-- Generated by graphviz version 2.43.0 (0)
 -->
<!-- Title: include/EyeAICore/tflite/TfLiteRuntime.hpp Pages: 1 -->
<svg width="595pt" height="151pt"
 viewBox="0.00 0.00 595.00 151.00" xmlns="http://www.w3.org/2000/svg" xmlns:xlink="http://www.w3.org/1999/xlink">
<g id="graph0" class="graph" transform="scale(1 1) rotate(0) translate(4 147)">
<title>include/EyeAICore/tflite/TfLiteRuntime.hpp</title>
<!-- Node1 -->
<g id="node1" class="node">
<title>Node1</title>
<g id="a_node1"><a xlink:title=" ">
<polygon fill="#bfbfbf" stroke="black" points="252.5,-112.5 252.5,-142.5 372.5,-142.5 372.5,-112.5 252.5,-112.5"/>
<text text-anchor="start" x="260.5" y="-130.5" font-family="Helvetica,sans-Serif" font-size="10.00">include/EyeAICore/tflite</text>
<text text-anchor="middle" x="312.5" y="-119.5" font-family="Helvetica,sans-Serif" font-size="10.00">/TfLiteRuntime.hpp</text>
</a>
</g>
</g>
<!-- Node2 -->
<g id="node2" class="node">
<title>Node2</title>
<g id="a_node2"><a xlink:href="DepthModel_8hpp.html" target="_top" xlink:title=" ">
<polygon fill="none" stroke="black" points="0,-56.5 0,-75.5 173,-75.5 173,-56.5 0,-56.5"/>
<text text-anchor="middle" x="86.5" y="-63.5" font-family="Helvetica,sans-Serif" font-size="10.00">include/EyeAICore/DepthModel.hpp</text>
</a>
</g>
</g>
<!-- Node1&#45;&gt;Node2 -->
<g id="edge1" class="edge">
<title>Node1&#45;&gt;Node2</title>
<path fill="none" stroke="midnightblue" d="M249.53,-109.92C207.06,-98.74 152.77,-84.45 118.81,-75.51"/>
<polygon fill="midnightblue" stroke="midnightblue" points="248.67,-113.31 259.23,-112.47 250.45,-106.54 248.67,-113.31"/>
</g>
<!-- Node3 -->
<g id="node3" class="node">
<title>Node3</title>
<g id="a_node3"><a xlink:href="DepthModel_8cpp.html" target="_top" xlink:title=" ">
<polygon fill="none" stroke="black" points="118.5,-0.5 118.5,-19.5 222.5,-19.5 222.5,-0.5 118.5,-0.5"/>
<text text-anchor="middle" x="170.5" y="-7.5" font-family="Helvetica,sans-Serif" font-size="10.00">src/DepthModel.cpp</text>
</a>
</g>
</g>
<!-- Node1&#45;&gt;Node3 -->
<g id="edge5" class="edge">
<title>Node1&#45;&gt;Node3</title>
<path fill="none" stroke="midnightblue" d="M269.94,-107.79C253.52,-99.42 235.19,-88.59 220.5,-76 200.83,-59.14 183.85,-33.4 175.69,-19.93"/>
<polygon fill="midnightblue" stroke="midnightblue" points="268.83,-111.14 279.35,-112.42 271.92,-104.86 268.83,-111.14"/>
</g>
<!-- Node4 -->
<g id="node4" class="node">
<title>Node4</title>
<g id="a_node4"><a xlink:href="YoloModel_8hpp.html" target="_top" xlink:title=" ">
<polygon fill="none" stroke="black" points="230,-56.5 230,-75.5 395,-75.5 395,-56.5 230,-56.5"/>
<text text-anchor="middle" x="312.5" y="-63.5" font-family="Helvetica,sans-Serif" font-size="10.00">include/EyeAICore/YoloModel.hpp</text>
</a>
</g>
</g>
<!-- Node1&#45;&gt;Node4 -->
<g id="edge3" class="edge">
<title>Node1&#45;&gt;Node4</title>
<path fill="none" stroke="midnightblue" d="M312.5,-102.29C312.5,-92.86 312.5,-82.65 312.5,-75.66"/>
<polygon fill="midnightblue" stroke="midnightblue" points="309,-102.4 312.5,-112.4 316,-102.4 309,-102.4"/>
</g>
<!-- Node5 -->
<g id="node5" class="node">
<title>Node5</title>
<g id="a_node5"><a xlink:href="YoloModel_8cpp.html" target="_top" xlink:title=" ">
<polygon fill="none" stroke="black" points="294,-0.5 294,-19.5 391,-19.5 391,-0.5 294,-0.5"/>
<text text-anchor="middle" x="342.5" y="-7.5" font-family="Helvetica,sans-Serif" font-size="10.00">src/YoloModel.cpp</text>
</a>
</g>
</g>
<!-- Node1&#45;&gt;Node5 -->
<g id="edge7" class="edge">
<title>Node1&#45;&gt;Node5</title>
<path fill="none" stroke="midnightblue" d="M368.52,-107.78C382.73,-100.22 396.28,-89.89 404.5,-76 418.32,-52.65 384.71,-31.01 361.76,-19.55"/>
<polygon fill="midnightblue" stroke="midnightblue" points="366.59,-104.83 359.14,-112.36 369.67,-111.12 366.59,-104.83"/>
</g>
<!-- Node6 -->
<g id="node6" class="node">
<title>Node6</title>
<g id="a_node6"><a xlink:href="TfLiteRuntime_8cpp.html" target="_top" xlink:title=" ">
<polygon fill="none" stroke="black" points="452,-56.5 452,-75.5 587,-75.5 587,-56.5 452,-56.5"/>
<text text-anchor="middle" x="519.5" y="-63.5" font-family="Helvetica,sans-Serif" font-size="10.00">src/tflite/TfLiteRuntime.cpp</text>
</a>
</g>
</g>
<!-- Node1&#45;&gt;Node6 -->
<g id="edge6" class="edge">
<title>Node1&#45;&gt;Node6</title>
<path fill="none" stroke="midnightblue" d="M370.91,-109.71C409.7,-98.56 459,-84.39 489.91,-75.51"/>
<polygon fill="midnightblue" stroke="midnightblue" points="369.94,-106.35 361.29,-112.47 371.87,-113.08 369.94,-106.35"/>
</g>
<!-- Node2&#45;&gt;Node3 -->
<g id="edge2" class="edge">
<title>Node2&#45;&gt;Node3</title>
<path fill="none" stroke="midnightblue" d="M108.43,-50.9C123.84,-41 143.95,-28.07 157.04,-19.65"/>
<polygon fill="midnightblue" stroke="midnightblue" points="106.52,-47.97 100,-56.32 110.3,-53.86 106.52,-47.97"/>
</g>
<!-- Node4&#45;&gt;Node5 -->
<g id="edge4" class="edge">
<title>Node4&#45;&gt;Node5</title>
<path fill="none" stroke="midnightblue" d="M322.35,-47.27C327.47,-38.05 333.52,-27.17 337.64,-19.75"/>
<polygon fill="midnightblue" stroke="midnightblue" points="319.25,-45.64 317.45,-56.08 325.37,-49.04 319.25,-45.64"/>
</g>
</g>
</svg>
