<?xml version="1.0" encoding="UTF-8" standalone="no"?>
<!DOCTYPE svg PUBLIC "-//W3C//DTD SVG 1.1//EN"
 "http://www.w3.org/Graphics/SVG/1.1/DTD/svg11.dtd">
<!-- Generated by graphviz version 2.43.0 (0)
 -->
<!-- Title: src/tflite/TfLiteRuntime.cpp Pages: 1 -->
<svg width="1066pt" height="274pt"
 viewBox="0.00 0.00 1066.00 274.00" xmlns="http://www.w3.org/2000/svg" xmlns:xlink="http://www.w3.org/1999/xlink">
<g id="graph0" class="graph" transform="scale(1 1) rotate(0) translate(4 270)">
<title>src/tflite/TfLiteRuntime.cpp</title>
<!-- Node1 -->
<g id="node1" class="node">
<title>Node1</title>
<g id="a_node1"><a xlink:title=" ">
<polygon fill="#bfbfbf" stroke="black" points="565.5,-246.5 565.5,-265.5 700.5,-265.5 700.5,-246.5 565.5,-246.5"/>
<text text-anchor="middle" x="633" y="-253.5" font-family="Helvetica,sans-Serif" font-size="10.00">src/tflite/TfLiteRuntime.cpp</text>
</a>
</g>
</g>
<!-- Node2 -->
<g id="node2" class="node">
<title>Node2</title>
<g id="a_node2"><a xlink:href="TfLiteRuntime_8hpp.html" target="_top" xlink:title=" ">
<polygon fill="none" stroke="black" points="548,-185 548,-204 718,-204 718,-185 548,-185"/>
<text text-anchor="middle" x="633" y="-192" font-family="Helvetica,sans-Serif" font-size="10.00">EyeAICore/tflite/TfLiteRuntime.hpp</text>
</a>
</g>
</g>
<!-- Node1&#45;&gt;Node2 -->
<g id="edge1" class="edge">
<title>Node1&#45;&gt;Node2</title>
<path fill="none" stroke="midnightblue" d="M633,-246.48C633,-238.08 633,-224.98 633,-214.16"/>
<polygon fill="midnightblue" stroke="midnightblue" points="636.5,-214.01 633,-204.01 629.5,-214.01 636.5,-214.01"/>
</g>
<!-- Node5 -->
<g id="node5" class="node">
<title>Node5</title>
<g id="a_node5"><a xlink:title=" ">
<polygon fill="none" stroke="#bfbfbf" points="0,-0.5 0,-19.5 44,-19.5 44,-0.5 0,-0.5"/>
<text text-anchor="middle" x="22" y="-7.5" font-family="Helvetica,sans-Serif" font-size="10.00">format</text>
</a>
</g>
</g>
<!-- Node1&#45;&gt;Node5 -->
<g id="edge32" class="edge">
<title>Node1&#45;&gt;Node5</title>
<path fill="none" stroke="midnightblue" d="M577.58,-246.47C445.3,-225.03 116.55,-164.97 41,-87 26.31,-71.84 22.45,-47.13 21.69,-30.02"/>
<polygon fill="midnightblue" stroke="midnightblue" points="25.18,-29.56 21.56,-19.6 18.18,-29.65 25.18,-29.56"/>
</g>
<!-- Node9 -->
<g id="node9" class="node">
<title>Node9</title>
<g id="a_node9"><a xlink:href="TfLiteUtils_8hpp.html" target="_top" xlink:title=" ">
<polygon fill="none" stroke="black" points="472,-123.5 472,-142.5 552,-142.5 552,-123.5 472,-123.5"/>
<text text-anchor="middle" x="512" y="-130.5" font-family="Helvetica,sans-Serif" font-size="10.00">TfLiteUtils.hpp</text>
</a>
</g>
</g>
<!-- Node1&#45;&gt;Node9 -->
<g id="edge27" class="edge">
<title>Node1&#45;&gt;Node9</title>
<path fill="none" stroke="midnightblue" d="M600.35,-246.36C580.21,-239.51 555.22,-228.02 539,-210 524.54,-193.93 517.7,-169.61 514.55,-152.83"/>
<polygon fill="midnightblue" stroke="midnightblue" points="517.95,-151.93 512.91,-142.61 511.04,-153.04 517.95,-151.93"/>
</g>
<!-- Node17 -->
<g id="node17" class="node">
<title>Node17</title>
<g id="a_node17"><a xlink:href="Profiling_8hpp.html" target="_top" xlink:title=" ">
<polygon fill="none" stroke="black" points="792.5,-185 792.5,-204 935.5,-204 935.5,-185 792.5,-185"/>
<text text-anchor="middle" x="864" y="-192" font-family="Helvetica,sans-Serif" font-size="10.00">EyeAICore/utils/Profiling.hpp</text>
</a>
</g>
</g>
<!-- Node1&#45;&gt;Node17 -->
<g id="edge28" class="edge">
<title>Node1&#45;&gt;Node17</title>
<path fill="none" stroke="midnightblue" d="M666.1,-246.48C706.92,-235.96 776.41,-218.06 821.24,-206.51"/>
<polygon fill="midnightblue" stroke="midnightblue" points="822.15,-209.89 830.96,-204.01 820.41,-203.11 822.15,-209.89"/>
</g>
<!-- Node20 -->
<g id="node20" class="node">
<title>Node20</title>
<g id="a_node20"><a xlink:title=" ">
<polygon fill="none" stroke="#bfbfbf" points="954,-179.5 954,-209.5 1058,-209.5 1058,-179.5 954,-179.5"/>
<text text-anchor="start" x="962" y="-197.5" font-family="Helvetica,sans-Serif" font-size="10.00">tensorflow/lite/c/c</text>
<text text-anchor="middle" x="1006" y="-186.5" font-family="Helvetica,sans-Serif" font-size="10.00">_api_experimental.h</text>
</a>
</g>
</g>
<!-- Node1&#45;&gt;Node20 -->
<g id="edge33" class="edge">
<title>Node1&#45;&gt;Node20</title>
<path fill="none" stroke="midnightblue" d="M700.54,-247.04C761.64,-239.44 854.28,-226.9 943.77,-210.13"/>
<polygon fill="midnightblue" stroke="midnightblue" points="944.65,-213.53 953.82,-208.23 943.35,-206.65 944.65,-213.53"/>
</g>
<!-- Node3 -->
<g id="node3" class="node">
<title>Node3</title>
<g id="a_node3"><a xlink:href="Operators_8hpp.html" target="_top" xlink:title=" ">
<polygon fill="none" stroke="black" points="240.5,-62 240.5,-81 369.5,-81 369.5,-62 240.5,-62"/>
<text text-anchor="middle" x="305" y="-69" font-family="Helvetica,sans-Serif" font-size="10.00">EyeAICore/Operators.hpp</text>
</a>
</g>
</g>
<!-- Node2&#45;&gt;Node3 -->
<g id="edge2" class="edge">
<title>Node2&#45;&gt;Node3</title>
<path fill="none" stroke="midnightblue" d="M599.67,-184.99C565.09,-175.83 509.64,-160.25 463,-143 415.72,-125.51 362.52,-100.65 331.49,-85.6"/>
<polygon fill="midnightblue" stroke="midnightblue" points="332.75,-82.32 322.23,-81.08 329.68,-88.62 332.75,-82.32"/>
</g>
<!-- Node7 -->
<g id="node7" class="node">
<title>Node7</title>
<g id="a_node7"><a xlink:title=" ">
<polygon fill="none" stroke="#bfbfbf" points="417,-0.5 417,-19.5 455,-19.5 455,-0.5 417,-0.5"/>
<text text-anchor="middle" x="436" y="-7.5" font-family="Helvetica,sans-Serif" font-size="10.00">span</text>
</a>
</g>
</g>
<!-- Node2&#45;&gt;Node7 -->
<g id="edge24" class="edge">
<title>Node2&#45;&gt;Node7</title>
<path fill="none" stroke="midnightblue" d="M655.28,-184.89C706.19,-164.03 823.14,-108.63 777,-56 756.56,-32.68 544.76,-17.58 465.62,-12.71"/>
<polygon fill="midnightblue" stroke="midnightblue" points="465.56,-9.2 455.37,-12.09 465.14,-16.19 465.56,-9.2"/>
</g>
<!-- Node8 -->
<g id="node8" class="node">
<title>Node8</title>
<g id="a_node8"><a xlink:title=" ">
<polygon fill="none" stroke="#bfbfbf" points="228.5,-0.5 228.5,-19.5 269.5,-19.5 269.5,-0.5 228.5,-0.5"/>
<text text-anchor="middle" x="249" y="-7.5" font-family="Helvetica,sans-Serif" font-size="10.00">string</text>
</a>
</g>
</g>
<!-- Node2&#45;&gt;Node8 -->
<g id="edge25" class="edge">
<title>Node2&#45;&gt;Node8</title>
<path fill="none" stroke="midnightblue" d="M559.68,-184.98C454.65,-171.07 269.74,-139.62 231,-87 218.37,-69.84 228.03,-45.11 237.37,-28.57"/>
<polygon fill="midnightblue" stroke="midnightblue" points="240.44,-30.25 242.67,-19.89 234.47,-26.6 240.44,-30.25"/>
</g>
<!-- Node2&#45;&gt;Node9 -->
<g id="edge8" class="edge">
<title>Node2&#45;&gt;Node9</title>
<path fill="none" stroke="midnightblue" d="M615.66,-184.98C595.45,-175.03 561.81,-158.49 538.36,-146.96"/>
<polygon fill="midnightblue" stroke="midnightblue" points="539.82,-143.78 529.3,-142.51 536.73,-150.06 539.82,-143.78"/>
</g>
<!-- Node13 -->
<g id="node13" class="node">
<title>Node13</title>
<g id="a_node13"><a xlink:title=" ">
<polygon fill="none" stroke="#bfbfbf" points="716,-62 716,-81 768,-81 768,-62 716,-62"/>
<text text-anchor="middle" x="742" y="-69" font-family="Helvetica,sans-Serif" font-size="10.00">memory</text>
</a>
</g>
</g>
<!-- Node2&#45;&gt;Node13 -->
<g id="edge23" class="edge">
<title>Node2&#45;&gt;Node13</title>
<path fill="none" stroke="midnightblue" d="M640.84,-184.8C658.99,-164.65 704.11,-114.56 727.47,-88.62"/>
<polygon fill="midnightblue" stroke="midnightblue" points="730.14,-90.9 734.23,-81.12 724.94,-86.21 730.14,-90.9"/>
</g>
<!-- Node14 -->
<g id="node14" class="node">
<title>Node14</title>
<g id="a_node14"><a xlink:title=" ">
<polygon fill="none" stroke="#bfbfbf" points="824,-62 824,-81 890,-81 890,-62 824,-62"/>
<text text-anchor="middle" x="857" y="-69" font-family="Helvetica,sans-Serif" font-size="10.00">string_view</text>
</a>
</g>
</g>
<!-- Node2&#45;&gt;Node14 -->
<g id="edge26" class="edge">
<title>Node2&#45;&gt;Node14</title>
<path fill="none" stroke="midnightblue" d="M692.43,-185C726.72,-177.93 769.38,-165.28 802,-143 821.96,-129.37 837.98,-106.24 847.48,-90.21"/>
<polygon fill="midnightblue" stroke="midnightblue" points="850.64,-91.72 852.52,-81.3 844.55,-88.28 850.64,-91.72"/>
</g>
<!-- Node15 -->
<g id="node15" class="node">
<title>Node15</title>
<g id="a_node15"><a xlink:title=" ">
<polygon fill="none" stroke="#bfbfbf" points="464,-56.5 464,-86.5 558,-86.5 558,-56.5 464,-56.5"/>
<text text-anchor="start" x="472" y="-74.5" font-family="Helvetica,sans-Serif" font-size="10.00">tensorflow/lite/c/c</text>
<text text-anchor="middle" x="511" y="-63.5" font-family="Helvetica,sans-Serif" font-size="10.00">_api.h</text>
</a>
</g>
</g>
<!-- Node2&#45;&gt;Node15 -->
<g id="edge21" class="edge">
<title>Node2&#45;&gt;Node15</title>
<path fill="none" stroke="midnightblue" d="M624.23,-184.8C605.15,-165.88 559.43,-120.53 532.28,-93.61"/>
<polygon fill="midnightblue" stroke="midnightblue" points="534.72,-91.1 525.16,-86.54 529.79,-96.07 534.72,-91.1"/>
</g>
<!-- Node16 -->
<g id="node16" class="node">
<title>Node16</title>
<g id="a_node16"><a xlink:title=" ">
<polygon fill="none" stroke="#bfbfbf" points="576,-56.5 576,-86.5 698,-86.5 698,-56.5 576,-56.5"/>
<text text-anchor="start" x="584" y="-74.5" font-family="Helvetica,sans-Serif" font-size="10.00">tensorflow/lite/delegates</text>
<text text-anchor="middle" x="637" y="-63.5" font-family="Helvetica,sans-Serif" font-size="10.00">/gpu/delegate.h</text>
</a>
</g>
</g>
<!-- Node2&#45;&gt;Node16 -->
<g id="edge22" class="edge">
<title>Node2&#45;&gt;Node16</title>
<path fill="none" stroke="midnightblue" d="M633.29,-184.8C633.89,-166.6 635.3,-123.98 636.2,-96.79"/>
<polygon fill="midnightblue" stroke="midnightblue" points="639.7,-96.65 636.54,-86.54 632.71,-96.42 639.7,-96.65"/>
</g>
<!-- Node4 -->
<g id="node4" class="node">
<title>Node4</title>
<g id="a_node4"><a xlink:title=" ">
<polygon fill="none" stroke="#bfbfbf" points="288,-0.5 288,-19.5 326,-19.5 326,-0.5 288,-0.5"/>
<text text-anchor="middle" x="307" y="-7.5" font-family="Helvetica,sans-Serif" font-size="10.00">array</text>
</a>
</g>
</g>
<!-- Node3&#45;&gt;Node4 -->
<g id="edge3" class="edge">
<title>Node3&#45;&gt;Node4</title>
<path fill="none" stroke="midnightblue" d="M305.29,-61.98C305.57,-53.58 306.01,-40.48 306.37,-29.66"/>
<polygon fill="midnightblue" stroke="midnightblue" points="309.88,-29.62 306.71,-19.51 302.88,-29.39 309.88,-29.62"/>
</g>
<!-- Node3&#45;&gt;Node5 -->
<g id="edge4" class="edge">
<title>Node3&#45;&gt;Node5</title>
<path fill="none" stroke="midnightblue" d="M255.95,-61.94C207.16,-53.15 129.98,-38.47 54.45,-20.2"/>
<polygon fill="midnightblue" stroke="midnightblue" points="54.84,-16.69 44.29,-17.72 53.17,-23.49 54.84,-16.69"/>
</g>
<!-- Node6 -->
<g id="node6" class="node">
<title>Node6</title>
<g id="a_node6"><a xlink:title=" ">
<polygon fill="none" stroke="#bfbfbf" points="347,-0.5 347,-19.5 397,-19.5 397,-0.5 347,-0.5"/>
<text text-anchor="middle" x="372" y="-7.5" font-family="Helvetica,sans-Serif" font-size="10.00">optional</text>
</a>
</g>
</g>
<!-- Node3&#45;&gt;Node6 -->
<g id="edge5" class="edge">
<title>Node3&#45;&gt;Node6</title>
<path fill="none" stroke="midnightblue" d="M314.6,-61.98C325.05,-52.7 341.97,-37.67 354.74,-26.33"/>
<polygon fill="midnightblue" stroke="midnightblue" points="357.27,-28.77 362.42,-19.51 352.62,-23.53 357.27,-28.77"/>
</g>
<!-- Node3&#45;&gt;Node7 -->
<g id="edge6" class="edge">
<title>Node3&#45;&gt;Node7</title>
<path fill="none" stroke="midnightblue" d="M323.77,-61.98C345.85,-51.95 382.72,-35.2 408.14,-23.65"/>
<polygon fill="midnightblue" stroke="midnightblue" points="409.61,-26.83 417.27,-19.51 406.71,-20.46 409.61,-26.83"/>
</g>
<!-- Node3&#45;&gt;Node8 -->
<g id="edge7" class="edge">
<title>Node3&#45;&gt;Node8</title>
<path fill="none" stroke="midnightblue" d="M296.98,-61.98C288.41,-52.87 274.64,-38.24 264.04,-26.98"/>
<polygon fill="midnightblue" stroke="midnightblue" points="266.41,-24.39 257.01,-19.51 261.31,-29.19 266.41,-24.39"/>
</g>
<!-- Node9&#45;&gt;Node3 -->
<g id="edge9" class="edge">
<title>Node9&#45;&gt;Node3</title>
<path fill="none" stroke="midnightblue" d="M482.34,-123.48C446.07,-113.05 384.54,-95.36 344.34,-83.81"/>
<polygon fill="midnightblue" stroke="midnightblue" points="345.18,-80.41 334.6,-81.01 343.25,-87.14 345.18,-80.41"/>
</g>
<!-- Node9&#45;&gt;Node6 -->
<g id="edge16" class="edge">
<title>Node9&#45;&gt;Node6</title>
<path fill="none" stroke="midnightblue" d="M495.12,-123.46C479.68,-115.23 456.64,-101.87 439,-87 417.67,-69.02 397.05,-44.14 384.45,-27.82"/>
<polygon fill="midnightblue" stroke="midnightblue" points="387.15,-25.59 378.32,-19.73 381.57,-29.81 387.15,-25.59"/>
</g>
<!-- Node9&#45;&gt;Node7 -->
<g id="edge17" class="edge">
<title>Node9&#45;&gt;Node7</title>
<path fill="none" stroke="midnightblue" d="M496.06,-123.41C483.07,-115.6 465.27,-102.88 455,-87 443.83,-69.72 439.23,-46.32 437.33,-30.07"/>
<polygon fill="midnightblue" stroke="midnightblue" points="440.78,-29.33 436.37,-19.69 433.81,-29.97 440.78,-29.33"/>
</g>
<!-- Node10 -->
<g id="node10" class="node">
<title>Node10</title>
<g id="a_node10"><a xlink:href="Errors_8hpp.html" target="_top" xlink:title=" ">
<polygon fill="none" stroke="black" points="50,-62 50,-81 184,-81 184,-62 50,-62"/>
<text text-anchor="middle" x="117" y="-69" font-family="Helvetica,sans-Serif" font-size="10.00">EyeAICore/utils/Errors.hpp</text>
</a>
</g>
</g>
<!-- Node9&#45;&gt;Node10 -->
<g id="edge10" class="edge">
<title>Node9&#45;&gt;Node10</title>
<path fill="none" stroke="midnightblue" d="M471.95,-125.97C404.17,-115.76 266.18,-94.97 183.64,-82.54"/>
<polygon fill="midnightblue" stroke="midnightblue" points="184.02,-79.06 173.61,-81.03 182.97,-85.98 184.02,-79.06"/>
</g>
<!-- Node9&#45;&gt;Node13 -->
<g id="edge15" class="edge">
<title>Node9&#45;&gt;Node13</title>
<path fill="none" stroke="midnightblue" d="M552.11,-124.77C591.91,-117.12 654.39,-103.84 707,-87 709.14,-86.32 711.33,-85.56 713.52,-84.75"/>
<polygon fill="midnightblue" stroke="midnightblue" points="714.92,-87.96 722.96,-81.06 712.37,-81.44 714.92,-87.96"/>
</g>
<!-- Node9&#45;&gt;Node14 -->
<g id="edge18" class="edge">
<title>Node9&#45;&gt;Node14</title>
<path fill="none" stroke="midnightblue" d="M552.43,-125.28C604.42,-116.6 697.48,-100.96 777,-87 788.94,-84.9 801.86,-82.58 813.77,-80.43"/>
<polygon fill="midnightblue" stroke="midnightblue" points="814.72,-83.81 823.93,-78.58 813.47,-76.92 814.72,-83.81"/>
</g>
<!-- Node9&#45;&gt;Node15 -->
<g id="edge19" class="edge">
<title>Node9&#45;&gt;Node15</title>
<path fill="none" stroke="midnightblue" d="M511.86,-123.48C511.74,-116.47 511.57,-106.19 511.41,-96.7"/>
<polygon fill="midnightblue" stroke="midnightblue" points="514.9,-96.46 511.24,-86.52 507.9,-96.58 514.9,-96.46"/>
</g>
<!-- Node9&#45;&gt;Node16 -->
<g id="edge20" class="edge">
<title>Node9&#45;&gt;Node16</title>
<path fill="none" stroke="midnightblue" d="M529.91,-123.48C547.71,-115 575.58,-101.74 598.42,-90.86"/>
<polygon fill="midnightblue" stroke="midnightblue" points="600.01,-93.98 607.54,-86.52 597.01,-87.66 600.01,-93.98"/>
</g>
<!-- Node10&#45;&gt;Node5 -->
<g id="edge11" class="edge">
<title>Node10&#45;&gt;Node5</title>
<path fill="none" stroke="midnightblue" d="M103.39,-61.98C87.94,-52.3 62.51,-36.37 44.18,-24.89"/>
<polygon fill="midnightblue" stroke="midnightblue" points="45.92,-21.85 35.59,-19.51 42.2,-27.78 45.92,-21.85"/>
</g>
<!-- Node10&#45;&gt;Node8 -->
<g id="edge12" class="edge">
<title>Node10&#45;&gt;Node8</title>
<path fill="none" stroke="midnightblue" d="M135.91,-61.98C158.16,-51.95 195.31,-35.2 220.93,-23.65"/>
<polygon fill="midnightblue" stroke="midnightblue" points="222.44,-26.81 230.12,-19.51 219.57,-20.43 222.44,-26.81"/>
</g>
<!-- Node11 -->
<g id="node11" class="node">
<title>Node11</title>
<g id="a_node11"><a xlink:title=" ">
<polygon fill="none" stroke="#bfbfbf" points="62.5,-0.5 62.5,-19.5 145.5,-19.5 145.5,-0.5 62.5,-0.5"/>
<text text-anchor="middle" x="104" y="-7.5" font-family="Helvetica,sans-Serif" font-size="10.00">tl/expected.hpp</text>
</a>
</g>
</g>
<!-- Node10&#45;&gt;Node11 -->
<g id="edge13" class="edge">
<title>Node10&#45;&gt;Node11</title>
<path fill="none" stroke="midnightblue" d="M115.14,-61.98C113.28,-53.49 110.38,-40.2 108,-29.32"/>
<polygon fill="midnightblue" stroke="midnightblue" points="111.41,-28.53 105.86,-19.51 104.57,-30.03 111.41,-28.53"/>
</g>
<!-- Node12 -->
<g id="node12" class="node">
<title>Node12</title>
<g id="a_node12"><a xlink:title=" ">
<polygon fill="none" stroke="#bfbfbf" points="164,-0.5 164,-19.5 210,-19.5 210,-0.5 164,-0.5"/>
<text text-anchor="middle" x="187" y="-7.5" font-family="Helvetica,sans-Serif" font-size="10.00">variant</text>
</a>
</g>
</g>
<!-- Node10&#45;&gt;Node12 -->
<g id="edge14" class="edge">
<title>Node10&#45;&gt;Node12</title>
<path fill="none" stroke="midnightblue" d="M127.03,-61.98C138.05,-52.61 155.96,-37.38 169.34,-26.01"/>
<polygon fill="midnightblue" stroke="midnightblue" points="171.64,-28.65 176.99,-19.51 167.1,-23.32 171.64,-28.65"/>
</g>
<!-- Node17&#45;&gt;Node14 -->
<g id="edge31" class="edge">
<title>Node17&#45;&gt;Node14</title>
<path fill="none" stroke="midnightblue" d="M863.5,-184.8C862.37,-165.35 859.63,-117.99 858.09,-91.4"/>
<polygon fill="midnightblue" stroke="midnightblue" points="861.57,-90.9 857.5,-81.12 854.58,-91.31 861.57,-90.9"/>
</g>
<!-- Node18 -->
<g id="node18" class="node">
<title>Node18</title>
<g id="a_node18"><a xlink:title=" ">
<polygon fill="none" stroke="#bfbfbf" points="892,-123.5 892,-142.5 938,-142.5 938,-123.5 892,-123.5"/>
<text text-anchor="middle" x="915" y="-130.5" font-family="Helvetica,sans-Serif" font-size="10.00">chrono</text>
</a>
</g>
</g>
<!-- Node17&#45;&gt;Node18 -->
<g id="edge29" class="edge">
<title>Node17&#45;&gt;Node18</title>
<path fill="none" stroke="midnightblue" d="M871.31,-184.98C879.03,-175.96 891.41,-161.52 901.02,-150.31"/>
<polygon fill="midnightblue" stroke="midnightblue" points="903.86,-152.38 907.71,-142.51 898.54,-147.82 903.86,-152.38"/>
</g>
<!-- Node19 -->
<g id="node19" class="node">
<title>Node19</title>
<g id="a_node19"><a xlink:title=" ">
<polygon fill="none" stroke="#bfbfbf" points="956.5,-123.5 956.5,-142.5 1053.5,-142.5 1053.5,-123.5 956.5,-123.5"/>
<text text-anchor="middle" x="1005" y="-130.5" font-family="Helvetica,sans-Serif" font-size="10.00">concurrentqueue.h</text>
</a>
</g>
</g>
<!-- Node17&#45;&gt;Node19 -->
<g id="edge30" class="edge">
<title>Node17&#45;&gt;Node19</title>
<path fill="none" stroke="midnightblue" d="M884.2,-184.98C908.07,-174.9 948,-158.05 975.37,-146.5"/>
<polygon fill="midnightblue" stroke="midnightblue" points="976.98,-149.62 984.84,-142.51 974.26,-143.17 976.98,-149.62"/>
</g>
</g>
</svg>
