<?xml version="1.0" encoding="UTF-8" standalone="no"?>
<!DOCTYPE svg PUBLIC "-//W3C//DTD SVG 1.1//EN"
 "http://www.w3.org/Graphics/SVG/1.1/DTD/svg11.dtd">
<!-- Generated by graphviz version 2.43.0 (0)
 -->
<!-- Title: include/EyeAICore/tflite/TfLiteUtils.hpp Pages: 1 -->
<svg width="787pt" height="162pt"
 viewBox="0.00 0.00 787.00 162.00" xmlns="http://www.w3.org/2000/svg" xmlns:xlink="http://www.w3.org/1999/xlink">
<g id="graph0" class="graph" transform="scale(1 1) rotate(0) translate(4 158)">
<title>include/EyeAICore/tflite/TfLiteUtils.hpp</title>
<!-- Node1 -->
<g id="node1" class="node">
<title>Node1</title>
<g id="a_node1"><a xlink:title=" ">
<polygon fill="#bfbfbf" stroke="black" points="301,-123.5 301,-153.5 421,-153.5 421,-123.5 301,-123.5"/>
<text text-anchor="start" x="309" y="-141.5" font-family="Helvetica,sans-Serif" font-size="10.00">include/EyeAICore/tflite</text>
<text text-anchor="middle" x="361" y="-130.5" font-family="Helvetica,sans-Serif" font-size="10.00">/TfLiteUtils.hpp</text>
</a>
</g>
</g>
<!-- Node2 -->
<g id="node2" class="node">
<title>Node2</title>
<g id="a_node2"><a xlink:href="Operators_8hpp.html" target="_top" xlink:title=" ">
<polygon fill="none" stroke="black" points="91.5,-62 91.5,-81 220.5,-81 220.5,-62 91.5,-62"/>
<text text-anchor="middle" x="156" y="-69" font-family="Helvetica,sans-Serif" font-size="10.00">EyeAICore/Operators.hpp</text>
</a>
</g>
</g>
<!-- Node1&#45;&gt;Node2 -->
<g id="edge1" class="edge">
<title>Node1&#45;&gt;Node2</title>
<path fill="none" stroke="midnightblue" d="M316.77,-123.48C279.7,-111.72 227.41,-95.14 192.65,-84.12"/>
<polygon fill="midnightblue" stroke="midnightblue" points="193.49,-80.71 182.9,-81.03 191.37,-87.39 193.49,-80.71"/>
</g>
<!-- Node5 -->
<g id="node5" class="node">
<title>Node5</title>
<g id="a_node5"><a xlink:title=" ">
<polygon fill="none" stroke="#bfbfbf" points="0,-0.5 0,-19.5 50,-19.5 50,-0.5 0,-0.5"/>
<text text-anchor="middle" x="25" y="-7.5" font-family="Helvetica,sans-Serif" font-size="10.00">optional</text>
</a>
</g>
</g>
<!-- Node1&#45;&gt;Node5 -->
<g id="edge13" class="edge">
<title>Node1&#45;&gt;Node5</title>
<path fill="none" stroke="midnightblue" d="M300.9,-132.99C226.91,-126.44 106.56,-112.23 70,-87 49.93,-73.15 37.43,-47.19 30.84,-29.5"/>
<polygon fill="midnightblue" stroke="midnightblue" points="34.05,-28.06 27.49,-19.74 27.43,-30.33 34.05,-28.06"/>
</g>
<!-- Node6 -->
<g id="node6" class="node">
<title>Node6</title>
<g id="a_node6"><a xlink:title=" ">
<polygon fill="none" stroke="#bfbfbf" points="68,-0.5 68,-19.5 106,-19.5 106,-0.5 68,-0.5"/>
<text text-anchor="middle" x="87" y="-7.5" font-family="Helvetica,sans-Serif" font-size="10.00">span</text>
</a>
</g>
</g>
<!-- Node1&#45;&gt;Node6 -->
<g id="edge14" class="edge">
<title>Node1&#45;&gt;Node6</title>
<path fill="none" stroke="midnightblue" d="M300.86,-135.29C227.59,-131.19 110.19,-119.57 83,-87 69.8,-71.19 74.16,-46.46 79.58,-29.53"/>
<polygon fill="midnightblue" stroke="midnightblue" points="83.03,-30.3 83.13,-19.71 76.44,-27.92 83.03,-30.3"/>
</g>
<!-- Node8 -->
<g id="node8" class="node">
<title>Node8</title>
<g id="a_node8"><a xlink:href="Errors_8hpp.html" target="_top" xlink:title=" ">
<polygon fill="none" stroke="black" points="239,-62 239,-81 373,-81 373,-62 239,-62"/>
<text text-anchor="middle" x="306" y="-69" font-family="Helvetica,sans-Serif" font-size="10.00">EyeAICore/utils/Errors.hpp</text>
</a>
</g>
</g>
<!-- Node1&#45;&gt;Node8 -->
<g id="edge7" class="edge">
<title>Node1&#45;&gt;Node8</title>
<path fill="none" stroke="midnightblue" d="M349.07,-123.4C340.49,-113.26 328.9,-99.57 319.91,-88.94"/>
<polygon fill="midnightblue" stroke="midnightblue" points="322.49,-86.57 313.36,-81.19 317.14,-91.09 322.49,-86.57"/>
</g>
<!-- Node11 -->
<g id="node11" class="node">
<title>Node11</title>
<g id="a_node11"><a xlink:title=" ">
<polygon fill="none" stroke="#bfbfbf" points="391,-62 391,-81 443,-81 443,-62 391,-62"/>
<text text-anchor="middle" x="417" y="-69" font-family="Helvetica,sans-Serif" font-size="10.00">memory</text>
</a>
</g>
</g>
<!-- Node1&#45;&gt;Node11 -->
<g id="edge12" class="edge">
<title>Node1&#45;&gt;Node11</title>
<path fill="none" stroke="midnightblue" d="M373.15,-123.4C381.88,-113.26 393.68,-99.57 402.84,-88.94"/>
<polygon fill="midnightblue" stroke="midnightblue" points="405.63,-91.06 409.51,-81.19 400.33,-86.49 405.63,-91.06"/>
</g>
<!-- Node12 -->
<g id="node12" class="node">
<title>Node12</title>
<g id="a_node12"><a xlink:title=" ">
<polygon fill="none" stroke="#bfbfbf" points="461,-62 461,-81 527,-81 527,-62 461,-62"/>
<text text-anchor="middle" x="494" y="-69" font-family="Helvetica,sans-Serif" font-size="10.00">string_view</text>
</a>
</g>
</g>
<!-- Node1&#45;&gt;Node12 -->
<g id="edge15" class="edge">
<title>Node1&#45;&gt;Node12</title>
<path fill="none" stroke="midnightblue" d="M389.86,-123.4C412.89,-112.14 444.89,-96.5 467.32,-85.54"/>
<polygon fill="midnightblue" stroke="midnightblue" points="469.15,-88.54 476.59,-81.01 466.07,-82.25 469.15,-88.54"/>
</g>
<!-- Node13 -->
<g id="node13" class="node">
<title>Node13</title>
<g id="a_node13"><a xlink:title=" ">
<polygon fill="none" stroke="#bfbfbf" points="545,-56.5 545,-86.5 639,-86.5 639,-56.5 545,-56.5"/>
<text text-anchor="start" x="553" y="-74.5" font-family="Helvetica,sans-Serif" font-size="10.00">tensorflow/lite/c/c</text>
<text text-anchor="middle" x="592" y="-63.5" font-family="Helvetica,sans-Serif" font-size="10.00">_api.h</text>
</a>
</g>
</g>
<!-- Node1&#45;&gt;Node13 -->
<g id="edge16" class="edge">
<title>Node1&#45;&gt;Node13</title>
<path fill="none" stroke="midnightblue" d="M410.84,-123.48C447.24,-113.23 496.68,-99.32 534.71,-88.62"/>
<polygon fill="midnightblue" stroke="midnightblue" points="535.94,-91.91 544.62,-85.83 534.04,-85.17 535.94,-91.91"/>
</g>
<!-- Node14 -->
<g id="node14" class="node">
<title>Node14</title>
<g id="a_node14"><a xlink:title=" ">
<polygon fill="none" stroke="#bfbfbf" points="657,-56.5 657,-86.5 779,-86.5 779,-56.5 657,-56.5"/>
<text text-anchor="start" x="665" y="-74.5" font-family="Helvetica,sans-Serif" font-size="10.00">tensorflow/lite/delegates</text>
<text text-anchor="middle" x="718" y="-63.5" font-family="Helvetica,sans-Serif" font-size="10.00">/gpu/delegate.h</text>
</a>
</g>
</g>
<!-- Node1&#45;&gt;Node14 -->
<g id="edge17" class="edge">
<title>Node1&#45;&gt;Node14</title>
<path fill="none" stroke="midnightblue" d="M421.01,-127.48C476.93,-118.02 562.89,-103.17 646.96,-87.17"/>
<polygon fill="midnightblue" stroke="midnightblue" points="647.77,-90.58 656.94,-85.26 646.46,-83.7 647.77,-90.58"/>
</g>
<!-- Node3 -->
<g id="node3" class="node">
<title>Node3</title>
<g id="a_node3"><a xlink:title=" ">
<polygon fill="none" stroke="#bfbfbf" points="124,-0.5 124,-19.5 162,-19.5 162,-0.5 124,-0.5"/>
<text text-anchor="middle" x="143" y="-7.5" font-family="Helvetica,sans-Serif" font-size="10.00">array</text>
</a>
</g>
</g>
<!-- Node2&#45;&gt;Node3 -->
<g id="edge2" class="edge">
<title>Node2&#45;&gt;Node3</title>
<path fill="none" stroke="midnightblue" d="M154.14,-61.98C152.28,-53.49 149.38,-40.2 147,-29.32"/>
<polygon fill="midnightblue" stroke="midnightblue" points="150.41,-28.53 144.86,-19.51 143.57,-30.03 150.41,-28.53"/>
</g>
<!-- Node4 -->
<g id="node4" class="node">
<title>Node4</title>
<g id="a_node4"><a xlink:title=" ">
<polygon fill="none" stroke="#bfbfbf" points="240,-0.5 240,-19.5 284,-19.5 284,-0.5 240,-0.5"/>
<text text-anchor="middle" x="262" y="-7.5" font-family="Helvetica,sans-Serif" font-size="10.00">format</text>
</a>
</g>
</g>
<!-- Node2&#45;&gt;Node4 -->
<g id="edge3" class="edge">
<title>Node2&#45;&gt;Node4</title>
<path fill="none" stroke="midnightblue" d="M171.19,-61.98C188.66,-52.17 217.58,-35.93 238.08,-24.42"/>
<polygon fill="midnightblue" stroke="midnightblue" points="239.83,-27.46 246.84,-19.51 236.41,-21.35 239.83,-27.46"/>
</g>
<!-- Node2&#45;&gt;Node5 -->
<g id="edge4" class="edge">
<title>Node2&#45;&gt;Node5</title>
<path fill="none" stroke="midnightblue" d="M137.23,-61.98C115.15,-51.95 78.28,-35.2 52.86,-23.65"/>
<polygon fill="midnightblue" stroke="midnightblue" points="54.29,-20.46 43.73,-19.51 51.39,-26.83 54.29,-20.46"/>
</g>
<!-- Node2&#45;&gt;Node6 -->
<g id="edge5" class="edge">
<title>Node2&#45;&gt;Node6</title>
<path fill="none" stroke="midnightblue" d="M146.11,-61.98C135.35,-52.7 117.93,-37.67 104.78,-26.33"/>
<polygon fill="midnightblue" stroke="midnightblue" points="106.73,-23.39 96.87,-19.51 102.16,-28.69 106.73,-23.39"/>
</g>
<!-- Node7 -->
<g id="node7" class="node">
<title>Node7</title>
<g id="a_node7"><a xlink:title=" ">
<polygon fill="none" stroke="#bfbfbf" points="180.5,-0.5 180.5,-19.5 221.5,-19.5 221.5,-0.5 180.5,-0.5"/>
<text text-anchor="middle" x="201" y="-7.5" font-family="Helvetica,sans-Serif" font-size="10.00">string</text>
</a>
</g>
</g>
<!-- Node2&#45;&gt;Node7 -->
<g id="edge6" class="edge">
<title>Node2&#45;&gt;Node7</title>
<path fill="none" stroke="midnightblue" d="M162.45,-61.98C169.2,-53.05 179.97,-38.81 188.41,-27.64"/>
<polygon fill="midnightblue" stroke="midnightblue" points="191.32,-29.6 194.56,-19.51 185.74,-25.37 191.32,-29.6"/>
</g>
<!-- Node8&#45;&gt;Node4 -->
<g id="edge8" class="edge">
<title>Node8&#45;&gt;Node4</title>
<path fill="none" stroke="midnightblue" d="M299.7,-61.98C293.1,-53.05 282.56,-38.81 274.31,-27.64"/>
<polygon fill="midnightblue" stroke="midnightblue" points="277.05,-25.47 268.29,-19.51 271.42,-29.63 277.05,-25.47"/>
</g>
<!-- Node8&#45;&gt;Node7 -->
<g id="edge9" class="edge">
<title>Node8&#45;&gt;Node7</title>
<path fill="none" stroke="midnightblue" d="M290.96,-61.98C273.72,-52.21 245.26,-36.08 224.97,-24.58"/>
<polygon fill="midnightblue" stroke="midnightblue" points="226.44,-21.39 216.02,-19.51 222.99,-27.48 226.44,-21.39"/>
</g>
<!-- Node9 -->
<g id="node9" class="node">
<title>Node9</title>
<g id="a_node9"><a xlink:title=" ">
<polygon fill="none" stroke="#bfbfbf" points="366.5,-0.5 366.5,-19.5 449.5,-19.5 449.5,-0.5 366.5,-0.5"/>
<text text-anchor="middle" x="408" y="-7.5" font-family="Helvetica,sans-Serif" font-size="10.00">tl/expected.hpp</text>
</a>
</g>
</g>
<!-- Node8&#45;&gt;Node9 -->
<g id="edge10" class="edge">
<title>Node8&#45;&gt;Node9</title>
<path fill="none" stroke="midnightblue" d="M320.61,-61.98C337.35,-52.21 365,-36.08 384.72,-24.58"/>
<polygon fill="midnightblue" stroke="midnightblue" points="386.54,-27.57 393.41,-19.51 383.01,-21.52 386.54,-27.57"/>
</g>
<!-- Node10 -->
<g id="node10" class="node">
<title>Node10</title>
<g id="a_node10"><a xlink:title=" ">
<polygon fill="none" stroke="#bfbfbf" points="302,-0.5 302,-19.5 348,-19.5 348,-0.5 302,-0.5"/>
<text text-anchor="middle" x="325" y="-7.5" font-family="Helvetica,sans-Serif" font-size="10.00">variant</text>
</a>
</g>
</g>
<!-- Node8&#45;&gt;Node10 -->
<g id="edge11" class="edge">
<title>Node8&#45;&gt;Node10</title>
<path fill="none" stroke="midnightblue" d="M308.72,-61.98C311.43,-53.49 315.67,-40.2 319.15,-29.32"/>
<polygon fill="midnightblue" stroke="midnightblue" points="322.57,-30.1 322.28,-19.51 315.91,-27.97 322.57,-30.1"/>
</g>
</g>
</svg>
