<?xml version="1.0" encoding="UTF-8" standalone="no"?>
<!DOCTYPE svg PUBLIC "-//W3C//DTD SVG 1.1//EN"
 "http://www.w3.org/Graphics/SVG/1.1/DTD/svg11.dtd">
<!-- Generated by graphviz version 2.43.0 (0)
 -->
<!-- Title: include/EyeAICore/tflite/TfLiteUtils.hpp Pages: 1 -->
<svg width="643pt" height="218pt"
 viewBox="0.00 0.00 643.00 218.00" xmlns="http://www.w3.org/2000/svg" xmlns:xlink="http://www.w3.org/1999/xlink">
<g id="graph0" class="graph" transform="scale(1 1) rotate(0) translate(4 214)">
<title>include/EyeAICore/tflite/TfLiteUtils.hpp</title>
<!-- Node1 -->
<g id="node1" class="node">
<title>Node1</title>
<g id="a_node1"><a xlink:title=" ">
<polygon fill="#bfbfbf" stroke="black" points="427.5,-179.5 427.5,-209.5 547.5,-209.5 547.5,-179.5 427.5,-179.5"/>
<text text-anchor="start" x="435.5" y="-197.5" font-family="Helvetica,sans-Serif" font-size="10.00">include/EyeAICore/tflite</text>
<text text-anchor="middle" x="487.5" y="-186.5" font-family="Helvetica,sans-Serif" font-size="10.00">/TfLiteUtils.hpp</text>
</a>
</g>
</g>
<!-- Node2 -->
<g id="node2" class="node">
<title>Node2</title>
<g id="a_node2"><a xlink:href="TfLiteRuntime_8hpp.html" target="_top" xlink:title=" ">
<polygon fill="none" stroke="black" points="307.5,-112.5 307.5,-142.5 427.5,-142.5 427.5,-112.5 307.5,-112.5"/>
<text text-anchor="start" x="315.5" y="-130.5" font-family="Helvetica,sans-Serif" font-size="10.00">include/EyeAICore/tflite</text>
<text text-anchor="middle" x="367.5" y="-119.5" font-family="Helvetica,sans-Serif" font-size="10.00">/TfLiteRuntime.hpp</text>
</a>
</g>
</g>
<!-- Node1&#45;&gt;Node2 -->
<g id="edge1" class="edge">
<title>Node1&#45;&gt;Node2</title>
<path fill="none" stroke="midnightblue" d="M452.56,-174.57C433.68,-164.35 410.77,-151.94 393.49,-142.58"/>
<polygon fill="midnightblue" stroke="midnightblue" points="451,-177.71 461.46,-179.4 454.34,-171.56 451,-177.71"/>
</g>
<!-- Node7 -->
<g id="node7" class="node">
<title>Node7</title>
<g id="a_node7"><a xlink:href="TfLiteRuntime_8cpp.html" target="_top" xlink:title=" ">
<polygon fill="none" stroke="black" points="452,-56.5 452,-75.5 587,-75.5 587,-56.5 452,-56.5"/>
<text text-anchor="middle" x="519.5" y="-63.5" font-family="Helvetica,sans-Serif" font-size="10.00">src/tflite/TfLiteRuntime.cpp</text>
</a>
</g>
</g>
<!-- Node1&#45;&gt;Node7 -->
<g id="edge9" class="edge">
<title>Node1&#45;&gt;Node7</title>
<path fill="none" stroke="midnightblue" d="M492.74,-169.52C496.39,-153.24 501.48,-131.26 506.5,-112 509.82,-99.25 514.15,-84.62 516.87,-75.59"/>
<polygon fill="midnightblue" stroke="midnightblue" points="489.32,-168.79 490.57,-179.31 496.16,-170.31 489.32,-168.79"/>
</g>
<!-- Node8 -->
<g id="node8" class="node">
<title>Node8</title>
<g id="a_node8"><a xlink:href="TfLiteUtils_8cpp.html" target="_top" xlink:title=" ">
<polygon fill="none" stroke="black" points="516,-118 516,-137 635,-137 635,-118 516,-118"/>
<text text-anchor="middle" x="575.5" y="-125" font-family="Helvetica,sans-Serif" font-size="10.00">src/tflite/TfLiteUtils.cpp</text>
</a>
</g>
</g>
<!-- Node1&#45;&gt;Node8 -->
<g id="edge10" class="edge">
<title>Node1&#45;&gt;Node8</title>
<path fill="none" stroke="midnightblue" d="M514.84,-173.31C531.36,-161.1 551.57,-146.18 563.98,-137.01"/>
<polygon fill="midnightblue" stroke="midnightblue" points="512.56,-170.64 506.59,-179.4 516.72,-176.27 512.56,-170.64"/>
</g>
<!-- Node3 -->
<g id="node3" class="node">
<title>Node3</title>
<g id="a_node3"><a xlink:href="DepthModel_8hpp.html" target="_top" xlink:title=" ">
<polygon fill="none" stroke="black" points="0,-56.5 0,-75.5 173,-75.5 173,-56.5 0,-56.5"/>
<text text-anchor="middle" x="86.5" y="-63.5" font-family="Helvetica,sans-Serif" font-size="10.00">include/EyeAICore/DepthModel.hpp</text>
</a>
</g>
</g>
<!-- Node2&#45;&gt;Node3 -->
<g id="edge2" class="edge">
<title>Node2&#45;&gt;Node3</title>
<path fill="none" stroke="midnightblue" d="M297.4,-111.66C243.59,-100.26 171.21,-84.94 126.76,-75.53"/>
<polygon fill="midnightblue" stroke="midnightblue" points="296.71,-115.09 307.22,-113.74 298.16,-108.24 296.71,-115.09"/>
</g>
<!-- Node4 -->
<g id="node4" class="node">
<title>Node4</title>
<g id="a_node4"><a xlink:href="DepthModel_8cpp.html" target="_top" xlink:title=" ">
<polygon fill="none" stroke="black" points="118.5,-0.5 118.5,-19.5 222.5,-19.5 222.5,-0.5 118.5,-0.5"/>
<text text-anchor="middle" x="170.5" y="-7.5" font-family="Helvetica,sans-Serif" font-size="10.00">src/DepthModel.cpp</text>
</a>
</g>
</g>
<!-- Node2&#45;&gt;Node4 -->
<g id="edge6" class="edge">
<title>Node2&#45;&gt;Node4</title>
<path fill="none" stroke="midnightblue" d="M297.49,-111.49C271.69,-103.72 243.24,-92.33 220.5,-76 199.23,-60.72 182.7,-33.82 175.09,-19.91"/>
<polygon fill="midnightblue" stroke="midnightblue" points="296.65,-114.89 307.23,-114.3 298.58,-108.17 296.65,-114.89"/>
</g>
<!-- Node5 -->
<g id="node5" class="node">
<title>Node5</title>
<g id="a_node5"><a xlink:href="YoloModel_8hpp.html" target="_top" xlink:title=" ">
<polygon fill="none" stroke="black" points="230,-56.5 230,-75.5 395,-75.5 395,-56.5 230,-56.5"/>
<text text-anchor="middle" x="312.5" y="-63.5" font-family="Helvetica,sans-Serif" font-size="10.00">include/EyeAICore/YoloModel.hpp</text>
</a>
</g>
</g>
<!-- Node2&#45;&gt;Node5 -->
<g id="edge4" class="edge">
<title>Node2&#45;&gt;Node5</title>
<path fill="none" stroke="midnightblue" d="M347.63,-105C338.25,-94.86 327.6,-83.33 320.5,-75.66"/>
<polygon fill="midnightblue" stroke="midnightblue" points="345.11,-107.43 354.47,-112.4 350.25,-102.68 345.11,-107.43"/>
</g>
<!-- Node6 -->
<g id="node6" class="node">
<title>Node6</title>
<g id="a_node6"><a xlink:href="YoloModel_8cpp.html" target="_top" xlink:title=" ">
<polygon fill="none" stroke="black" points="294,-0.5 294,-19.5 391,-19.5 391,-0.5 294,-0.5"/>
<text text-anchor="middle" x="342.5" y="-7.5" font-family="Helvetica,sans-Serif" font-size="10.00">src/YoloModel.cpp</text>
</a>
</g>
</g>
<!-- Node2&#45;&gt;Node6 -->
<g id="edge8" class="edge">
<title>Node2&#45;&gt;Node6</title>
<path fill="none" stroke="midnightblue" d="M389.96,-104.85C401.59,-90.92 411.79,-72.41 403.5,-56 394.96,-39.08 376.72,-26.96 362.41,-19.59"/>
<polygon fill="midnightblue" stroke="midnightblue" points="387.18,-102.71 383.07,-112.47 392.37,-107.4 387.18,-102.71"/>
</g>
<!-- Node2&#45;&gt;Node7 -->
<g id="edge7" class="edge">
<title>Node2&#45;&gt;Node7</title>
<path fill="none" stroke="midnightblue" d="M413.08,-108.66C440.96,-97.75 475.38,-84.27 497.38,-75.66"/>
<polygon fill="midnightblue" stroke="midnightblue" points="411.56,-105.49 403.52,-112.4 414.11,-112.01 411.56,-105.49"/>
</g>
<!-- Node3&#45;&gt;Node4 -->
<g id="edge3" class="edge">
<title>Node3&#45;&gt;Node4</title>
<path fill="none" stroke="midnightblue" d="M108.43,-50.9C123.84,-41 143.95,-28.07 157.04,-19.65"/>
<polygon fill="midnightblue" stroke="midnightblue" points="106.52,-47.97 100,-56.32 110.3,-53.86 106.52,-47.97"/>
</g>
<!-- Node5&#45;&gt;Node6 -->
<g id="edge5" class="edge">
<title>Node5&#45;&gt;Node6</title>
<path fill="none" stroke="midnightblue" d="M322.35,-47.27C327.47,-38.05 333.52,-27.17 337.64,-19.75"/>
<polygon fill="midnightblue" stroke="midnightblue" points="319.25,-45.64 317.45,-56.08 325.37,-49.04 319.25,-45.64"/>
</g>
</g>
</svg>
