<?xml version="1.0" encoding="UTF-8" standalone="no"?>
<!DOCTYPE svg PUBLIC "-//W3C//DTD SVG 1.1//EN"
 "http://www.w3.org/Graphics/SVG/1.1/DTD/svg11.dtd">
<!-- Generated by graphviz version 2.43.0 (0)
 -->
<!-- Title: include/EyeAICore/YoloModel.hpp Pages: 1 -->
<svg width="816pt" height="263pt"
 viewBox="0.00 0.00 816.47 263.00" xmlns="http://www.w3.org/2000/svg" xmlns:xlink="http://www.w3.org/1999/xlink">
<g id="graph0" class="graph" transform="scale(1 1) rotate(0) translate(4 259)">
<title>include/EyeAICore/YoloModel.hpp</title>
<!-- Node1 -->
<g id="node1" class="node">
<title>Node1</title>
<g id="a_node1"><a xlink:title=" ">
<polygon fill="#bfbfbf" stroke="black" points="199.38,-235.5 199.38,-254.5 364.38,-254.5 364.38,-235.5 199.38,-235.5"/>
<text text-anchor="middle" x="281.88" y="-242.5" font-family="Helvetica,sans-Serif" font-size="10.00">include/EyeAICore/YoloModel.hpp</text>
</a>
</g>
</g>
<!-- Node2 -->
<g id="node2" class="node">
<title>Node2</title>
<g id="a_node2"><a xlink:href="Operators_8hpp.html" target="_top" xlink:title=" ">
<polygon fill="none" stroke="black" points="123.38,-62 123.38,-81 252.38,-81 252.38,-62 123.38,-62"/>
<text text-anchor="middle" x="187.88" y="-69" font-family="Helvetica,sans-Serif" font-size="10.00">EyeAICore/Operators.hpp</text>
</a>
</g>
</g>
<!-- Node1&#45;&gt;Node2 -->
<g id="edge1" class="edge">
<title>Node1&#45;&gt;Node2</title>
<path fill="none" stroke="midnightblue" d="M277.09,-235.26C262.32,-208.31 217.27,-126.12 197.43,-89.92"/>
<polygon fill="midnightblue" stroke="midnightblue" points="200.42,-88.11 192.55,-81.02 194.29,-91.47 200.42,-88.11"/>
</g>
<!-- Node8 -->
<g id="node8" class="node">
<title>Node8</title>
<g id="a_node8"><a xlink:href="TfLiteRuntime_8hpp.html" target="_top" xlink:title=" ">
<polygon fill="none" stroke="black" points="287.88,-179.5 287.88,-198.5 457.88,-198.5 457.88,-179.5 287.88,-179.5"/>
<text text-anchor="middle" x="372.88" y="-186.5" font-family="Helvetica,sans-Serif" font-size="10.00">EyeAICore/tflite/TfLiteRuntime.hpp</text>
</a>
</g>
</g>
<!-- Node1&#45;&gt;Node8 -->
<g id="edge7" class="edge">
<title>Node1&#45;&gt;Node8</title>
<path fill="none" stroke="midnightblue" d="M296.5,-235.32C310.83,-226.82 332.89,-213.73 349.63,-203.8"/>
<polygon fill="midnightblue" stroke="midnightblue" points="351.48,-206.77 358.3,-198.65 347.91,-200.75 351.48,-206.77"/>
</g>
<!-- Node3 -->
<g id="node3" class="node">
<title>Node3</title>
<g id="a_node3"><a xlink:title=" ">
<polygon fill="none" stroke="#bfbfbf" points="149.88,-0.5 149.88,-19.5 187.88,-19.5 187.88,-0.5 149.88,-0.5"/>
<text text-anchor="middle" x="168.88" y="-7.5" font-family="Helvetica,sans-Serif" font-size="10.00">array</text>
</a>
</g>
</g>
<!-- Node2&#45;&gt;Node3 -->
<g id="edge2" class="edge">
<title>Node2&#45;&gt;Node3</title>
<path fill="none" stroke="midnightblue" d="M185.16,-61.98C182.45,-53.49 178.21,-40.2 174.73,-29.32"/>
<polygon fill="midnightblue" stroke="midnightblue" points="177.97,-27.97 171.6,-19.51 171.3,-30.1 177.97,-27.97"/>
</g>
<!-- Node4 -->
<g id="node4" class="node">
<title>Node4</title>
<g id="a_node4"><a xlink:title=" ">
<polygon fill="none" stroke="#bfbfbf" points="273.88,-0.5 273.88,-19.5 317.88,-19.5 317.88,-0.5 273.88,-0.5"/>
<text text-anchor="middle" x="295.88" y="-7.5" font-family="Helvetica,sans-Serif" font-size="10.00">format</text>
</a>
</g>
</g>
<!-- Node2&#45;&gt;Node4 -->
<g id="edge3" class="edge">
<title>Node2&#45;&gt;Node4</title>
<path fill="none" stroke="midnightblue" d="M203.35,-61.98C221.16,-52.17 250.62,-35.93 271.51,-24.42"/>
<polygon fill="midnightblue" stroke="midnightblue" points="273.36,-27.4 280.43,-19.51 269.99,-21.27 273.36,-27.4"/>
</g>
<!-- Node5 -->
<g id="node5" class="node">
<title>Node5</title>
<g id="a_node5"><a xlink:title=" ">
<polygon fill="none" stroke="#bfbfbf" points="205.88,-0.5 205.88,-19.5 255.88,-19.5 255.88,-0.5 205.88,-0.5"/>
<text text-anchor="middle" x="230.88" y="-7.5" font-family="Helvetica,sans-Serif" font-size="10.00">optional</text>
</a>
</g>
</g>
<!-- Node2&#45;&gt;Node5 -->
<g id="edge4" class="edge">
<title>Node2&#45;&gt;Node5</title>
<path fill="none" stroke="midnightblue" d="M194.04,-61.98C200.49,-53.05 210.78,-38.81 218.85,-27.64"/>
<polygon fill="midnightblue" stroke="midnightblue" points="221.71,-29.66 224.73,-19.51 216.04,-25.56 221.71,-29.66"/>
</g>
<!-- Node6 -->
<g id="node6" class="node">
<title>Node6</title>
<g id="a_node6"><a xlink:title=" ">
<polygon fill="none" stroke="#bfbfbf" points="75.88,-0.5 75.88,-19.5 113.88,-19.5 113.88,-0.5 75.88,-0.5"/>
<text text-anchor="middle" x="94.88" y="-7.5" font-family="Helvetica,sans-Serif" font-size="10.00">span</text>
</a>
</g>
</g>
<!-- Node2&#45;&gt;Node6 -->
<g id="edge5" class="edge">
<title>Node2&#45;&gt;Node6</title>
<path fill="none" stroke="midnightblue" d="M174.55,-61.98C159.5,-52.34 134.76,-36.52 116.84,-25.05"/>
<polygon fill="midnightblue" stroke="midnightblue" points="118.49,-21.95 108.18,-19.51 114.72,-27.85 118.49,-21.95"/>
</g>
<!-- Node7 -->
<g id="node7" class="node">
<title>Node7</title>
<g id="a_node7"><a xlink:title=" ">
<polygon fill="none" stroke="#bfbfbf" points="336.38,-0.5 336.38,-19.5 377.38,-19.5 377.38,-0.5 336.38,-0.5"/>
<text text-anchor="middle" x="356.88" y="-7.5" font-family="Helvetica,sans-Serif" font-size="10.00">string</text>
</a>
</g>
</g>
<!-- Node2&#45;&gt;Node7 -->
<g id="edge6" class="edge">
<title>Node2&#45;&gt;Node7</title>
<path fill="none" stroke="midnightblue" d="M212.09,-61.98C242.28,-51.35 293.9,-33.17 326.65,-21.64"/>
<polygon fill="midnightblue" stroke="midnightblue" points="327.9,-24.91 336.17,-18.29 325.57,-18.31 327.9,-24.91"/>
</g>
<!-- Node8&#45;&gt;Node2 -->
<g id="edge8" class="edge">
<title>Node8&#45;&gt;Node2</title>
<path fill="none" stroke="midnightblue" d="M358.97,-179.32C327.23,-159.5 249.21,-110.79 210.46,-86.6"/>
<polygon fill="midnightblue" stroke="midnightblue" points="212.28,-83.61 201.95,-81.28 208.57,-89.55 212.28,-83.61"/>
</g>
<!-- Node8&#45;&gt;Node6 -->
<g id="edge25" class="edge">
<title>Node8&#45;&gt;Node6</title>
<path fill="none" stroke="midnightblue" d="M305.95,-179.49C210.07,-165.74 41.26,-135.22 5.88,-87 -2.27,-75.89 -1.34,-67.74 5.88,-56 18.84,-34.93 45.05,-23.36 65.69,-17.25"/>
<polygon fill="midnightblue" stroke="midnightblue" points="66.83,-20.57 75.58,-14.6 65.01,-13.81 66.83,-20.57"/>
</g>
<!-- Node8&#45;&gt;Node7 -->
<g id="edge26" class="edge">
<title>Node8&#45;&gt;Node7</title>
<path fill="none" stroke="midnightblue" d="M458.11,-187.41C605.99,-183.62 885.39,-162.64 787.88,-56 759.15,-24.59 462.39,-28.21 387.66,-19.53"/>
<polygon fill="midnightblue" stroke="midnightblue" points="388.06,-16.05 377.65,-18.02 387.02,-22.97 388.06,-16.05"/>
</g>
<!-- Node9 -->
<g id="node9" class="node">
<title>Node9</title>
<g id="a_node9"><a xlink:href="TfLiteUtils_8hpp.html" target="_top" xlink:title=" ">
<polygon fill="none" stroke="black" points="332.88,-123.5 332.88,-142.5 412.88,-142.5 412.88,-123.5 332.88,-123.5"/>
<text text-anchor="middle" x="372.88" y="-130.5" font-family="Helvetica,sans-Serif" font-size="10.00">TfLiteUtils.hpp</text>
</a>
</g>
</g>
<!-- Node8&#45;&gt;Node9 -->
<g id="edge9" class="edge">
<title>Node8&#45;&gt;Node9</title>
<path fill="none" stroke="midnightblue" d="M372.88,-179.08C372.88,-172.01 372.88,-161.86 372.88,-152.99"/>
<polygon fill="midnightblue" stroke="midnightblue" points="376.38,-152.75 372.88,-142.75 369.38,-152.75 376.38,-152.75"/>
</g>
<!-- Node13 -->
<g id="node13" class="node">
<title>Node13</title>
<g id="a_node13"><a xlink:title=" ">
<polygon fill="none" stroke="#bfbfbf" points="14.88,-62 14.88,-81 66.88,-81 66.88,-62 14.88,-62"/>
<text text-anchor="middle" x="40.88" y="-69" font-family="Helvetica,sans-Serif" font-size="10.00">memory</text>
</a>
</g>
</g>
<!-- Node8&#45;&gt;Node13 -->
<g id="edge24" class="edge">
<title>Node8&#45;&gt;Node13</title>
<path fill="none" stroke="midnightblue" d="M348.2,-179.41C289.73,-159.07 142.69,-107.92 75.43,-84.52"/>
<polygon fill="midnightblue" stroke="midnightblue" points="76.32,-81.12 65.72,-81.14 74.02,-87.73 76.32,-81.12"/>
</g>
<!-- Node14 -->
<g id="node14" class="node">
<title>Node14</title>
<g id="a_node14"><a xlink:title=" ">
<polygon fill="none" stroke="#bfbfbf" points="460.88,-62 460.88,-81 526.88,-81 526.88,-62 460.88,-62"/>
<text text-anchor="middle" x="493.88" y="-69" font-family="Helvetica,sans-Serif" font-size="10.00">string_view</text>
</a>
</g>
</g>
<!-- Node8&#45;&gt;Node14 -->
<g id="edge27" class="edge">
<title>Node8&#45;&gt;Node14</title>
<path fill="none" stroke="midnightblue" d="M382.36,-179.46C392.29,-170.48 408.3,-155.88 421.88,-143 441.37,-124.51 463.39,-102.84 477.88,-88.45"/>
<polygon fill="midnightblue" stroke="midnightblue" points="480.48,-90.81 485.1,-81.27 475.54,-85.84 480.48,-90.81"/>
</g>
<!-- Node15 -->
<g id="node15" class="node">
<title>Node15</title>
<g id="a_node15"><a xlink:title=" ">
<polygon fill="none" stroke="#bfbfbf" points="544.88,-56.5 544.88,-86.5 638.88,-86.5 638.88,-56.5 544.88,-56.5"/>
<text text-anchor="start" x="552.88" y="-74.5" font-family="Helvetica,sans-Serif" font-size="10.00">tensorflow/lite/c/c</text>
<text text-anchor="middle" x="591.88" y="-63.5" font-family="Helvetica,sans-Serif" font-size="10.00">_api.h</text>
</a>
</g>
</g>
<!-- Node8&#45;&gt;Node15 -->
<g id="edge22" class="edge">
<title>Node8&#45;&gt;Node15</title>
<path fill="none" stroke="midnightblue" d="M389.34,-179.32C424.59,-160.73 508.07,-116.7 556.13,-91.35"/>
<polygon fill="midnightblue" stroke="midnightblue" points="558.04,-94.31 565.25,-86.55 554.77,-88.11 558.04,-94.31"/>
</g>
<!-- Node16 -->
<g id="node16" class="node">
<title>Node16</title>
<g id="a_node16"><a xlink:title=" ">
<polygon fill="none" stroke="#bfbfbf" points="656.88,-56.5 656.88,-86.5 778.88,-86.5 778.88,-56.5 656.88,-56.5"/>
<text text-anchor="start" x="664.88" y="-74.5" font-family="Helvetica,sans-Serif" font-size="10.00">tensorflow/lite/delegates</text>
<text text-anchor="middle" x="717.88" y="-63.5" font-family="Helvetica,sans-Serif" font-size="10.00">/gpu/delegate.h</text>
</a>
</g>
</g>
<!-- Node8&#45;&gt;Node16 -->
<g id="edge23" class="edge">
<title>Node8&#45;&gt;Node16</title>
<path fill="none" stroke="midnightblue" d="M398.53,-179.41C455.02,-160.5 591.11,-114.94 666.12,-89.83"/>
<polygon fill="midnightblue" stroke="midnightblue" points="667.46,-93.07 675.84,-86.58 665.24,-86.43 667.46,-93.07"/>
</g>
<!-- Node9&#45;&gt;Node2 -->
<g id="edge10" class="edge">
<title>Node9&#45;&gt;Node2</title>
<path fill="none" stroke="midnightblue" d="M346.37,-123.48C314.23,-113.14 259.89,-95.66 223.95,-84.1"/>
<polygon fill="midnightblue" stroke="midnightblue" points="224.93,-80.74 214.34,-81.01 222.78,-87.4 224.93,-80.74"/>
</g>
<!-- Node9&#45;&gt;Node5 -->
<g id="edge17" class="edge">
<title>Node9&#45;&gt;Node5</title>
<path fill="none" stroke="midnightblue" d="M356.05,-123.4C340.65,-115.13 317.63,-101.74 299.88,-87 278.13,-68.94 256.84,-44.08 243.79,-27.78"/>
<polygon fill="midnightblue" stroke="midnightblue" points="246.38,-25.4 237.44,-19.71 240.87,-29.73 246.38,-25.4"/>
</g>
<!-- Node9&#45;&gt;Node6 -->
<g id="edge18" class="edge">
<title>Node9&#45;&gt;Node6</title>
<path fill="none" stroke="midnightblue" d="M332.73,-127.45C264.03,-119.31 129.72,-101.72 113.88,-87 98.19,-72.42 94.61,-47.01 94.19,-29.62"/>
<polygon fill="midnightblue" stroke="midnightblue" points="97.69,-29.57 94.26,-19.54 90.69,-29.51 97.69,-29.57"/>
</g>
<!-- Node10 -->
<g id="node10" class="node">
<title>Node10</title>
<g id="a_node10"><a xlink:href="Errors_8hpp.html" target="_top" xlink:title=" ">
<polygon fill="none" stroke="black" points="308.88,-62 308.88,-81 442.88,-81 442.88,-62 308.88,-62"/>
<text text-anchor="middle" x="375.88" y="-69" font-family="Helvetica,sans-Serif" font-size="10.00">EyeAICore/utils/Errors.hpp</text>
</a>
</g>
</g>
<!-- Node9&#45;&gt;Node10 -->
<g id="edge11" class="edge">
<title>Node9&#45;&gt;Node10</title>
<path fill="none" stroke="midnightblue" d="M373.31,-123.48C373.73,-115.08 374.39,-101.98 374.94,-91.16"/>
<polygon fill="midnightblue" stroke="midnightblue" points="378.44,-91.17 375.45,-81.01 371.45,-90.82 378.44,-91.17"/>
</g>
<!-- Node9&#45;&gt;Node13 -->
<g id="edge16" class="edge">
<title>Node9&#45;&gt;Node13</title>
<path fill="none" stroke="midnightblue" d="M332.71,-128.31C275.95,-122.54 169.33,-109.62 80.88,-87 77.9,-86.24 74.83,-85.34 71.78,-84.37"/>
<polygon fill="midnightblue" stroke="midnightblue" points="72.82,-81.03 62.23,-81.11 70.56,-87.65 72.82,-81.03"/>
</g>
<!-- Node9&#45;&gt;Node14 -->
<g id="edge19" class="edge">
<title>Node9&#45;&gt;Node14</title>
<path fill="none" stroke="midnightblue" d="M390.22,-123.48C410.43,-113.53 444.07,-96.99 467.52,-85.46"/>
<polygon fill="midnightblue" stroke="midnightblue" points="469.15,-88.56 476.58,-81.01 466.06,-82.28 469.15,-88.56"/>
</g>
<!-- Node9&#45;&gt;Node15 -->
<g id="edge20" class="edge">
<title>Node9&#45;&gt;Node15</title>
<path fill="none" stroke="midnightblue" d="M404.26,-123.48C438.31,-114.22 493.4,-99.26 535.09,-87.93"/>
<polygon fill="midnightblue" stroke="midnightblue" points="536.11,-91.28 544.84,-85.28 534.27,-84.52 536.11,-91.28"/>
</g>
<!-- Node9&#45;&gt;Node16 -->
<g id="edge21" class="edge">
<title>Node9&#45;&gt;Node16</title>
<path fill="none" stroke="midnightblue" d="M413.05,-125.97C464.76,-118.09 557.62,-103.53 646.81,-87.15"/>
<polygon fill="midnightblue" stroke="midnightblue" points="647.63,-90.56 656.83,-85.3 646.36,-83.68 647.63,-90.56"/>
</g>
<!-- Node10&#45;&gt;Node4 -->
<g id="edge12" class="edge">
<title>Node10&#45;&gt;Node4</title>
<path fill="none" stroke="midnightblue" d="M364.42,-61.98C351.7,-52.52 330.97,-37.1 315.63,-25.69"/>
<polygon fill="midnightblue" stroke="midnightblue" points="317.43,-22.67 307.32,-19.51 313.26,-28.29 317.43,-22.67"/>
</g>
<!-- Node10&#45;&gt;Node7 -->
<g id="edge13" class="edge">
<title>Node10&#45;&gt;Node7</title>
<path fill="none" stroke="midnightblue" d="M373.16,-61.98C370.45,-53.49 366.21,-40.2 362.73,-29.32"/>
<polygon fill="midnightblue" stroke="midnightblue" points="365.97,-27.97 359.6,-19.51 359.3,-30.1 365.97,-27.97"/>
</g>
<!-- Node11 -->
<g id="node11" class="node">
<title>Node11</title>
<g id="a_node11"><a xlink:title=" ">
<polygon fill="none" stroke="#bfbfbf" points="395.38,-0.5 395.38,-19.5 478.38,-19.5 478.38,-0.5 395.38,-0.5"/>
<text text-anchor="middle" x="436.88" y="-7.5" font-family="Helvetica,sans-Serif" font-size="10.00">tl/expected.hpp</text>
</a>
</g>
</g>
<!-- Node10&#45;&gt;Node11 -->
<g id="edge14" class="edge">
<title>Node10&#45;&gt;Node11</title>
<path fill="none" stroke="midnightblue" d="M384.62,-61.98C394.04,-52.78 409.24,-37.96 420.83,-26.66"/>
<polygon fill="midnightblue" stroke="midnightblue" points="423.44,-29 428.16,-19.51 418.55,-23.99 423.44,-29"/>
</g>
<!-- Node12 -->
<g id="node12" class="node">
<title>Node12</title>
<g id="a_node12"><a xlink:title=" ">
<polygon fill="none" stroke="#bfbfbf" points="496.88,-0.5 496.88,-19.5 542.88,-19.5 542.88,-0.5 496.88,-0.5"/>
<text text-anchor="middle" x="519.88" y="-7.5" font-family="Helvetica,sans-Serif" font-size="10.00">variant</text>
</a>
</g>
</g>
<!-- Node10&#45;&gt;Node12 -->
<g id="edge15" class="edge">
<title>Node10&#45;&gt;Node12</title>
<path fill="none" stroke="midnightblue" d="M396.51,-61.98C421,-51.86 462.03,-34.9 489.99,-23.35"/>
<polygon fill="midnightblue" stroke="midnightblue" points="491.38,-26.56 499.29,-19.51 488.71,-20.09 491.38,-26.56"/>
</g>
</g>
</svg>
