<?xml version="1.0" encoding="UTF-8" standalone="no"?>
<!DOCTYPE svg PUBLIC "-//W3C//DTD SVG 1.1//EN"
 "http://www.w3.org/Graphics/SVG/1.1/DTD/svg11.dtd">
<!-- Generated by graphviz version 2.43.0 (0)
 -->
<!-- Title: src/YoloModel.cpp Pages: 1 -->
<svg width="972pt" height="319pt"
 viewBox="0.00 0.00 972.00 319.00" xmlns="http://www.w3.org/2000/svg" xmlns:xlink="http://www.w3.org/1999/xlink">
<g id="graph0" class="graph" transform="scale(1 1) rotate(0) translate(4 315)">
<title>src/YoloModel.cpp</title>
<!-- Node1 -->
<g id="node1" class="node">
<title>Node1</title>
<g id="a_node1"><a xlink:title=" ">
<polygon fill="#bfbfbf" stroke="black" points="762.5,-291.5 762.5,-310.5 859.5,-310.5 859.5,-291.5 762.5,-291.5"/>
<text text-anchor="middle" x="811" y="-298.5" font-family="Helvetica,sans-Serif" font-size="10.00">src/YoloModel.cpp</text>
</a>
</g>
</g>
<!-- Node2 -->
<g id="node2" class="node">
<title>Node2</title>
<g id="a_node2"><a xlink:href="YoloModel_8hpp.html" target="_top" xlink:title=" ">
<polygon fill="none" stroke="black" points="698.5,-235.5 698.5,-254.5 829.5,-254.5 829.5,-235.5 698.5,-235.5"/>
<text text-anchor="middle" x="764" y="-242.5" font-family="Helvetica,sans-Serif" font-size="10.00">EyeAICore/YoloModel.hpp</text>
</a>
</g>
</g>
<!-- Node1&#45;&gt;Node2 -->
<g id="edge1" class="edge">
<title>Node1&#45;&gt;Node2</title>
<path fill="none" stroke="midnightblue" d="M803.24,-291.08C796.46,-283.3 786.46,-271.8 778.24,-262.37"/>
<polygon fill="midnightblue" stroke="midnightblue" points="780.82,-260 771.62,-254.75 775.54,-264.59 780.82,-260"/>
</g>
<!-- Node3 -->
<g id="node3" class="node">
<title>Node3</title>
<g id="a_node3"><a xlink:href="Operators_8hpp.html" target="_top" xlink:title=" ">
<polygon fill="none" stroke="black" points="700.5,-62 700.5,-81 829.5,-81 829.5,-62 700.5,-62"/>
<text text-anchor="middle" x="765" y="-69" font-family="Helvetica,sans-Serif" font-size="10.00">EyeAICore/Operators.hpp</text>
</a>
</g>
</g>
<!-- Node1&#45;&gt;Node3 -->
<g id="edge29" class="edge">
<title>Node1&#45;&gt;Node3</title>
<path fill="none" stroke="midnightblue" d="M818.15,-291.36C824.77,-282.76 834.16,-268.87 838,-255 840.37,-246.43 839.86,-243.69 838,-235 826,-179 793.17,-119 775.92,-90.08"/>
<polygon fill="midnightblue" stroke="midnightblue" points="778.71,-87.93 770.53,-81.2 772.73,-91.56 778.71,-87.93"/>
</g>
<!-- Node8 -->
<g id="node8" class="node">
<title>Node8</title>
<g id="a_node8"><a xlink:title=" ">
<polygon fill="none" stroke="#bfbfbf" points="819.5,-0.5 819.5,-19.5 860.5,-19.5 860.5,-0.5 819.5,-0.5"/>
<text text-anchor="middle" x="840" y="-7.5" font-family="Helvetica,sans-Serif" font-size="10.00">string</text>
</a>
</g>
</g>
<!-- Node1&#45;&gt;Node8 -->
<g id="edge32" class="edge">
<title>Node1&#45;&gt;Node8</title>
<path fill="none" stroke="midnightblue" d="M824.66,-291.24C848.68,-274.64 896,-236.1 896,-190 896,-190 896,-190 896,-132 896,-91.72 870.12,-50.29 853.55,-27.88"/>
<polygon fill="midnightblue" stroke="midnightblue" points="856.18,-25.57 847.32,-19.76 850.63,-29.83 856.18,-25.57"/>
</g>
<!-- Node9 -->
<g id="node9" class="node">
<title>Node9</title>
<g id="a_node9"><a xlink:href="TfLiteRuntime_8hpp.html" target="_top" xlink:title=" ">
<polygon fill="none" stroke="black" points="530,-179.5 530,-198.5 700,-198.5 700,-179.5 530,-179.5"/>
<text text-anchor="middle" x="615" y="-186.5" font-family="Helvetica,sans-Serif" font-size="10.00">EyeAICore/tflite/TfLiteRuntime.hpp</text>
</a>
</g>
</g>
<!-- Node1&#45;&gt;Node9 -->
<g id="edge30" class="edge">
<title>Node1&#45;&gt;Node9</title>
<path fill="none" stroke="midnightblue" d="M778.21,-291.48C752.77,-284.04 717.22,-271.8 689,-255 666.19,-241.42 643.83,-220.4 629.76,-205.97"/>
<polygon fill="midnightblue" stroke="midnightblue" points="632.28,-203.54 622.85,-198.71 627.22,-208.37 632.28,-203.54"/>
</g>
<!-- Node12 -->
<g id="node12" class="node">
<title>Node12</title>
<g id="a_node12"><a xlink:title=" ">
<polygon fill="none" stroke="#bfbfbf" points="83.5,-0.5 83.5,-19.5 166.5,-19.5 166.5,-0.5 83.5,-0.5"/>
<text text-anchor="middle" x="125" y="-7.5" font-family="Helvetica,sans-Serif" font-size="10.00">tl/expected.hpp</text>
</a>
</g>
</g>
<!-- Node1&#45;&gt;Node12 -->
<g id="edge31" class="edge">
<title>Node1&#45;&gt;Node12</title>
<path fill="none" stroke="midnightblue" d="M762.4,-298.56C587.43,-292.73 0,-267.39 0,-190 0,-190 0,-190 0,-132 0,-79.32 58.02,-42.26 95,-23.98"/>
<polygon fill="midnightblue" stroke="midnightblue" points="96.83,-26.99 104.36,-19.54 93.82,-20.67 96.83,-26.99"/>
</g>
<!-- Node18 -->
<g id="node18" class="node">
<title>Node18</title>
<g id="a_node18"><a xlink:title=" ">
<polygon fill="none" stroke="#bfbfbf" points="924,-235.5 924,-254.5 964,-254.5 964,-235.5 924,-235.5"/>
<text text-anchor="middle" x="944" y="-242.5" font-family="Helvetica,sans-Serif" font-size="10.00">utility</text>
</a>
</g>
</g>
<!-- Node1&#45;&gt;Node18 -->
<g id="edge33" class="edge">
<title>Node1&#45;&gt;Node18</title>
<path fill="none" stroke="midnightblue" d="M832.07,-291.44C854.32,-282.41 889.55,-268.11 914.54,-257.96"/>
<polygon fill="midnightblue" stroke="midnightblue" points="915.95,-261.17 923.89,-254.16 913.31,-254.68 915.95,-261.17"/>
</g>
<!-- Node2&#45;&gt;Node3 -->
<g id="edge2" class="edge">
<title>Node2&#45;&gt;Node3</title>
<path fill="none" stroke="midnightblue" d="M764.05,-235.26C764.21,-208.65 764.68,-128.21 764.89,-91.34"/>
<polygon fill="midnightblue" stroke="midnightblue" points="768.39,-91.04 764.95,-81.02 761.39,-91 768.39,-91.04"/>
</g>
<!-- Node2&#45;&gt;Node9 -->
<g id="edge8" class="edge">
<title>Node2&#45;&gt;Node9</title>
<path fill="none" stroke="midnightblue" d="M740.39,-235.44C715.54,-226.44 676.23,-212.19 648.25,-202.05"/>
<polygon fill="midnightblue" stroke="midnightblue" points="649.09,-198.63 638.5,-198.52 646.71,-205.21 649.09,-198.63"/>
</g>
<!-- Node4 -->
<g id="node4" class="node">
<title>Node4</title>
<g id="a_node4"><a xlink:title=" ">
<polygon fill="none" stroke="#bfbfbf" points="746,-0.5 746,-19.5 784,-19.5 784,-0.5 746,-0.5"/>
<text text-anchor="middle" x="765" y="-7.5" font-family="Helvetica,sans-Serif" font-size="10.00">array</text>
</a>
</g>
</g>
<!-- Node3&#45;&gt;Node4 -->
<g id="edge3" class="edge">
<title>Node3&#45;&gt;Node4</title>
<path fill="none" stroke="midnightblue" d="M765,-61.98C765,-53.58 765,-40.48 765,-29.66"/>
<polygon fill="midnightblue" stroke="midnightblue" points="768.5,-29.51 765,-19.51 761.5,-29.51 768.5,-29.51"/>
</g>
<!-- Node5 -->
<g id="node5" class="node">
<title>Node5</title>
<g id="a_node5"><a xlink:title=" ">
<polygon fill="none" stroke="#bfbfbf" points="502,-0.5 502,-19.5 546,-19.5 546,-0.5 502,-0.5"/>
<text text-anchor="middle" x="524" y="-7.5" font-family="Helvetica,sans-Serif" font-size="10.00">format</text>
</a>
</g>
</g>
<!-- Node3&#45;&gt;Node5 -->
<g id="edge4" class="edge">
<title>Node3&#45;&gt;Node5</title>
<path fill="none" stroke="midnightblue" d="M730.47,-61.98C683.86,-50.47 601.45,-30.12 556.11,-18.93"/>
<polygon fill="midnightblue" stroke="midnightblue" points="556.78,-15.49 546.23,-16.49 555.1,-22.28 556.78,-15.49"/>
</g>
<!-- Node6 -->
<g id="node6" class="node">
<title>Node6</title>
<g id="a_node6"><a xlink:title=" ">
<polygon fill="none" stroke="#bfbfbf" points="640,-0.5 640,-19.5 690,-19.5 690,-0.5 640,-0.5"/>
<text text-anchor="middle" x="665" y="-7.5" font-family="Helvetica,sans-Serif" font-size="10.00">optional</text>
</a>
</g>
</g>
<!-- Node3&#45;&gt;Node6 -->
<g id="edge5" class="edge">
<title>Node3&#45;&gt;Node6</title>
<path fill="none" stroke="midnightblue" d="M750.67,-61.98C734.34,-52.25 707.4,-36.23 688.09,-24.74"/>
<polygon fill="midnightblue" stroke="midnightblue" points="689.68,-21.61 679.3,-19.51 686.11,-27.63 689.68,-21.61"/>
</g>
<!-- Node7 -->
<g id="node7" class="node">
<title>Node7</title>
<g id="a_node7"><a xlink:title=" ">
<polygon fill="none" stroke="#bfbfbf" points="309,-0.5 309,-19.5 347,-19.5 347,-0.5 309,-0.5"/>
<text text-anchor="middle" x="328" y="-7.5" font-family="Helvetica,sans-Serif" font-size="10.00">span</text>
</a>
</g>
</g>
<!-- Node3&#45;&gt;Node7 -->
<g id="edge6" class="edge">
<title>Node3&#45;&gt;Node7</title>
<path fill="none" stroke="midnightblue" d="M724.38,-61.98C713.56,-59.86 701.86,-57.71 691,-56 558.35,-35.07 524.15,-37.5 391,-20 379.91,-18.54 367.74,-16.83 357.07,-15.29"/>
<polygon fill="midnightblue" stroke="midnightblue" points="357.41,-11.8 347.01,-13.83 356.4,-18.73 357.41,-11.8"/>
</g>
<!-- Node3&#45;&gt;Node8 -->
<g id="edge7" class="edge">
<title>Node3&#45;&gt;Node8</title>
<path fill="none" stroke="midnightblue" d="M775.75,-61.98C787.55,-52.61 806.74,-37.38 821.08,-26.01"/>
<polygon fill="midnightblue" stroke="midnightblue" points="823.62,-28.47 829.27,-19.51 819.26,-22.98 823.62,-28.47"/>
</g>
<!-- Node9&#45;&gt;Node3 -->
<g id="edge9" class="edge">
<title>Node9&#45;&gt;Node3</title>
<path fill="none" stroke="midnightblue" d="M626.27,-179.32C651.68,-159.75 713.68,-112.02 745.48,-87.53"/>
<polygon fill="midnightblue" stroke="midnightblue" points="747.81,-90.16 753.59,-81.28 743.54,-84.61 747.81,-90.16"/>
</g>
<!-- Node9&#45;&gt;Node7 -->
<g id="edge26" class="edge">
<title>Node9&#45;&gt;Node7</title>
<path fill="none" stroke="midnightblue" d="M529.8,-185.65C388.4,-179.74 114.99,-159.04 57,-87 48.36,-76.27 48.09,-66.51 57,-56 72.52,-37.69 231.19,-20.35 298.29,-13.78"/>
<polygon fill="midnightblue" stroke="midnightblue" points="298.99,-17.23 308.6,-12.78 298.31,-10.26 298.99,-17.23"/>
</g>
<!-- Node9&#45;&gt;Node8 -->
<g id="edge27" class="edge">
<title>Node9&#45;&gt;Node8</title>
<path fill="none" stroke="midnightblue" d="M671.95,-179.47C724.87,-168.23 800.93,-142.86 838,-87 849.15,-70.2 847.7,-46.39 844.73,-29.92"/>
<polygon fill="midnightblue" stroke="midnightblue" points="848.09,-28.9 842.56,-19.86 841.25,-30.38 848.09,-28.9"/>
</g>
<!-- Node10 -->
<g id="node10" class="node">
<title>Node10</title>
<g id="a_node10"><a xlink:href="TfLiteUtils_8hpp.html" target="_top" xlink:title=" ">
<polygon fill="none" stroke="black" points="478,-123.5 478,-142.5 558,-142.5 558,-123.5 478,-123.5"/>
<text text-anchor="middle" x="518" y="-130.5" font-family="Helvetica,sans-Serif" font-size="10.00">TfLiteUtils.hpp</text>
</a>
</g>
</g>
<!-- Node9&#45;&gt;Node10 -->
<g id="edge10" class="edge">
<title>Node9&#45;&gt;Node10</title>
<path fill="none" stroke="midnightblue" d="M599.42,-179.32C584,-170.74 560.19,-157.49 542.29,-147.52"/>
<polygon fill="midnightblue" stroke="midnightblue" points="543.99,-144.46 533.55,-142.65 540.58,-150.58 543.99,-144.46"/>
</g>
<!-- Node14 -->
<g id="node14" class="node">
<title>Node14</title>
<g id="a_node14"><a xlink:title=" ">
<polygon fill="none" stroke="#bfbfbf" points="546,-62 546,-81 598,-81 598,-62 546,-62"/>
<text text-anchor="middle" x="572" y="-69" font-family="Helvetica,sans-Serif" font-size="10.00">memory</text>
</a>
</g>
</g>
<!-- Node9&#45;&gt;Node14 -->
<g id="edge25" class="edge">
<title>Node9&#45;&gt;Node14</title>
<path fill="none" stroke="midnightblue" d="M611.77,-179.32C604.8,-160.59 588.21,-116.05 578.81,-90.79"/>
<polygon fill="midnightblue" stroke="midnightblue" points="582.04,-89.43 575.27,-81.28 575.48,-91.87 582.04,-89.43"/>
</g>
<!-- Node15 -->
<g id="node15" class="node">
<title>Node15</title>
<g id="a_node15"><a xlink:title=" ">
<polygon fill="none" stroke="#bfbfbf" points="616,-62 616,-81 682,-81 682,-62 616,-62"/>
<text text-anchor="middle" x="649" y="-69" font-family="Helvetica,sans-Serif" font-size="10.00">string_view</text>
</a>
</g>
</g>
<!-- Node9&#45;&gt;Node15 -->
<g id="edge28" class="edge">
<title>Node9&#45;&gt;Node15</title>
<path fill="none" stroke="midnightblue" d="M617.56,-179.32C623.04,-160.67 636.06,-116.44 643.52,-91.13"/>
<polygon fill="midnightblue" stroke="midnightblue" points="646.95,-91.86 646.41,-81.28 640.23,-89.89 646.95,-91.86"/>
</g>
<!-- Node16 -->
<g id="node16" class="node">
<title>Node16</title>
<g id="a_node16"><a xlink:title=" ">
<polygon fill="none" stroke="#bfbfbf" points="66,-56.5 66,-86.5 160,-86.5 160,-56.5 66,-56.5"/>
<text text-anchor="start" x="74" y="-74.5" font-family="Helvetica,sans-Serif" font-size="10.00">tensorflow/lite/c/c</text>
<text text-anchor="middle" x="113" y="-63.5" font-family="Helvetica,sans-Serif" font-size="10.00">_api.h</text>
</a>
</g>
</g>
<!-- Node9&#45;&gt;Node16 -->
<g id="edge23" class="edge">
<title>Node9&#45;&gt;Node16</title>
<path fill="none" stroke="midnightblue" d="M572.69,-179.49C529.46,-170.7 460.44,-156.42 401,-143 300.66,-120.35 273.53,-113.17 169.97,-87.23"/>
<polygon fill="midnightblue" stroke="midnightblue" points="170.59,-83.77 160.04,-84.74 168.89,-90.56 170.59,-83.77"/>
</g>
<!-- Node17 -->
<g id="node17" class="node">
<title>Node17</title>
<g id="a_node17"><a xlink:title=" ">
<polygon fill="none" stroke="#bfbfbf" points="178,-56.5 178,-86.5 300,-86.5 300,-56.5 178,-56.5"/>
<text text-anchor="start" x="186" y="-74.5" font-family="Helvetica,sans-Serif" font-size="10.00">tensorflow/lite/delegates</text>
<text text-anchor="middle" x="239" y="-63.5" font-family="Helvetica,sans-Serif" font-size="10.00">/gpu/delegate.h</text>
</a>
</g>
</g>
<!-- Node9&#45;&gt;Node17 -->
<g id="edge24" class="edge">
<title>Node9&#45;&gt;Node17</title>
<path fill="none" stroke="midnightblue" d="M587.05,-179.41C525.23,-160.42 375.95,-114.57 294.42,-89.52"/>
<polygon fill="midnightblue" stroke="midnightblue" points="295.41,-86.17 284.82,-86.58 293.35,-92.86 295.41,-86.17"/>
</g>
<!-- Node10&#45;&gt;Node3 -->
<g id="edge11" class="edge">
<title>Node10&#45;&gt;Node3</title>
<path fill="none" stroke="midnightblue" d="M553.39,-123.48C597.23,-112.92 671.97,-94.91 719.88,-83.37"/>
<polygon fill="midnightblue" stroke="midnightblue" points="720.77,-86.75 729.68,-81.01 719.13,-79.95 720.77,-86.75"/>
</g>
<!-- Node10&#45;&gt;Node6 -->
<g id="edge18" class="edge">
<title>Node10&#45;&gt;Node6</title>
<path fill="none" stroke="midnightblue" d="M517.67,-123.26C517.56,-107.71 519.6,-75.1 537,-56 560.88,-29.79 600.92,-18.84 629.87,-14.27"/>
<polygon fill="midnightblue" stroke="midnightblue" points="630.57,-17.71 639.99,-12.86 629.6,-10.78 630.57,-17.71"/>
</g>
<!-- Node10&#45;&gt;Node7 -->
<g id="edge19" class="edge">
<title>Node10&#45;&gt;Node7</title>
<path fill="none" stroke="midnightblue" d="M477.73,-132.47C438.96,-130.68 381.3,-121.73 347,-87 332.17,-71.98 328.34,-47.24 327.62,-30.09"/>
<polygon fill="midnightblue" stroke="midnightblue" points="331.11,-29.6 327.52,-19.64 324.11,-29.67 331.11,-29.6"/>
</g>
<!-- Node11 -->
<g id="node11" class="node">
<title>Node11</title>
<g id="a_node11"><a xlink:href="Errors_8hpp.html" target="_top" xlink:title=" ">
<polygon fill="none" stroke="black" points="356,-62 356,-81 490,-81 490,-62 356,-62"/>
<text text-anchor="middle" x="423" y="-69" font-family="Helvetica,sans-Serif" font-size="10.00">EyeAICore/utils/Errors.hpp</text>
</a>
</g>
</g>
<!-- Node10&#45;&gt;Node11 -->
<g id="edge12" class="edge">
<title>Node10&#45;&gt;Node11</title>
<path fill="none" stroke="midnightblue" d="M504.39,-123.48C488.94,-113.8 463.51,-97.87 445.18,-86.39"/>
<polygon fill="midnightblue" stroke="midnightblue" points="446.92,-83.35 436.59,-81.01 443.2,-89.28 446.92,-83.35"/>
</g>
<!-- Node10&#45;&gt;Node14 -->
<g id="edge17" class="edge">
<title>Node10&#45;&gt;Node14</title>
<path fill="none" stroke="midnightblue" d="M525.74,-123.48C534,-114.37 547.28,-99.74 557.49,-88.48"/>
<polygon fill="midnightblue" stroke="midnightblue" points="560.15,-90.77 564.28,-81.01 554.97,-86.06 560.15,-90.77"/>
</g>
<!-- Node10&#45;&gt;Node15 -->
<g id="edge20" class="edge">
<title>Node10&#45;&gt;Node15</title>
<path fill="none" stroke="midnightblue" d="M536.77,-123.48C558.85,-113.45 595.72,-96.7 621.14,-85.15"/>
<polygon fill="midnightblue" stroke="midnightblue" points="622.61,-88.33 630.27,-81.01 619.71,-81.96 622.61,-88.33"/>
</g>
<!-- Node10&#45;&gt;Node16 -->
<g id="edge21" class="edge">
<title>Node10&#45;&gt;Node16</title>
<path fill="none" stroke="midnightblue" d="M477.96,-128.48C414.59,-122.56 287.18,-109.19 170.11,-87.07"/>
<polygon fill="midnightblue" stroke="midnightblue" points="170.74,-83.63 160.26,-85.18 169.42,-90.5 170.74,-83.63"/>
</g>
<!-- Node10&#45;&gt;Node17 -->
<g id="edge22" class="edge">
<title>Node10&#45;&gt;Node17</title>
<path fill="none" stroke="midnightblue" d="M478.03,-123.48C434.36,-114.16 363.54,-99.06 310.3,-87.7"/>
<polygon fill="midnightblue" stroke="midnightblue" points="310.74,-84.22 300.23,-85.56 309.28,-91.07 310.74,-84.22"/>
</g>
<!-- Node11&#45;&gt;Node5 -->
<g id="edge13" class="edge">
<title>Node11&#45;&gt;Node5</title>
<path fill="none" stroke="midnightblue" d="M437.47,-61.98C453.97,-52.25 481.18,-36.23 500.68,-24.74"/>
<polygon fill="midnightblue" stroke="midnightblue" points="502.72,-27.6 509.56,-19.51 499.16,-21.57 502.72,-27.6"/>
</g>
<!-- Node11&#45;&gt;Node8 -->
<g id="edge14" class="edge">
<title>Node11&#45;&gt;Node8</title>
<path fill="none" stroke="midnightblue" d="M488.5,-61.99C578.54,-50.22 735.9,-29.36 793,-20 798.3,-19.13 803.91,-18.13 809.35,-17.11"/>
<polygon fill="midnightblue" stroke="midnightblue" points="810.29,-20.5 819.45,-15.18 808.97,-13.62 810.29,-20.5"/>
</g>
<!-- Node11&#45;&gt;Node12 -->
<g id="edge15" class="edge">
<title>Node11&#45;&gt;Node12</title>
<path fill="none" stroke="midnightblue" d="M380.3,-61.98C326.56,-51.24 234.31,-32.83 176.65,-21.31"/>
<polygon fill="midnightblue" stroke="midnightblue" points="177.15,-17.84 166.66,-19.32 175.78,-24.71 177.15,-17.84"/>
</g>
<!-- Node13 -->
<g id="node13" class="node">
<title>Node13</title>
<g id="a_node13"><a xlink:title=" ">
<polygon fill="none" stroke="#bfbfbf" points="400,-0.5 400,-19.5 446,-19.5 446,-0.5 400,-0.5"/>
<text text-anchor="middle" x="423" y="-7.5" font-family="Helvetica,sans-Serif" font-size="10.00">variant</text>
</a>
</g>
</g>
<!-- Node11&#45;&gt;Node13 -->
<g id="edge16" class="edge">
<title>Node11&#45;&gt;Node13</title>
<path fill="none" stroke="midnightblue" d="M423,-61.98C423,-53.58 423,-40.48 423,-29.66"/>
<polygon fill="midnightblue" stroke="midnightblue" points="426.5,-29.51 423,-19.51 419.5,-29.51 426.5,-29.51"/>
</g>
</g>
</svg>
